<?xml version="1.0" encoding="UTF-8" standalone="no"?>
<svg
   transform="rotate(-90)"
   xmlns:dc="http://purl.org/dc/elements/1.1/"
   xmlns:cc="http://creativecommons.org/ns#"
   xmlns:rdf="http://www.w3.org/1999/02/22-rdf-syntax-ns#"
   xmlns:svg="http://www.w3.org/2000/svg"
   xmlns="http://www.w3.org/2000/svg"
   xmlns:sodipodi="http://sodipodi.sourceforge.net/DTD/sodipodi-0.dtd"
   xmlns:inkscape="http://www.inkscape.org/namespaces/inkscape"
   version="1.1"
   id="svg203"
   sodipodi:docname="chippy_trap.svg"
   inkscape:version="1.0.1 (3bc2e813f5, 2020-09-07)"
   x="0px"
   y="0px"
   width="1000"
   height="1000"
   viewBox="0 0 1000 1000"
   enable-background="new 0 0 942.094 768.078"
   xml:space="preserve"><metadata
   id="metadata418"><rdf:RDF><cc:Work
       rdf:about=""><dc:format>image/svg+xml</dc:format><dc:type
         rdf:resource="http://purl.org/dc/dcmitype/StillImage" /><dc:title></dc:title></cc:Work></rdf:RDF></metadata><defs
   id="defs416" />
<sodipodi:namedview
   objecttolerance="10"
   bordercolor="#666666"
   borderopacity="1"
   pagecolor="#ffffff"
   gridtolerance="10"
   guidetolerance="10"
   showgrid="false"
   inkscape:zoom="0.34766083"
   inkscape:cx="312.69181"
   inkscape:cy="85.530367"
   id="namedview205"
   inkscape:window-height="991"
   inkscape:window-x="479"
   inkscape:window-y="0"
   inkscape:window-maximized="0"
   inkscape:current-layer="svg203"
   inkscape:pageopacity="0"
   inkscape:pageshadow="2"
   inkscape:window-width="1421"
   inkscape:document-rotation="0">
	</sodipodi:namedview>
<g
   id="g482"
   transform="translate(-612.4925,-93.474648)"><path
     id="path89"
     fill="#956134"
     d="m 1464.476,240.29165 c 53.3798,62.00756 60.4705,151.6111 -32.2945,236.50738 -25.4713,23.15443 -55.2718,28.63137 -83.1028,23.22224 -49.6169,72.75854 -101.8007,120.85512 -168.2609,176.19567 -43.9507,35.55359 -152.9952,105.29957 -150.5274,168.3522 -14.6582,-22.56549 -23.5034,-41.26651 -32.91916,-59.36551 94.02206,-88.78022 118.86356,-245.00436 177.98276,-353.55567 53.5264,-95.37911 158.6821,-258.56032 289.122,-191.35631 z"
     style="stroke-width:1.69879" /><path
     id="path91"
     fill="#c9a063"
     d="m 1350.1814,170.16484 c 45.6688,12.71196 86.3327,37.62317 114.2954,70.12829 -130.4397,-67.20023 -235.5969,95.97805 -289.122,191.35629 -59.1183,108.55279 -83.962,264.7763 -177.98186,353.55714 -2.15951,-4.15149 -4.33408,-8.27469 -6.63638,-12.40849 3.21061,-61.18786 56.72144,-129.17218 68.25474,-195.91244 10.6515,-63.84013 24.2415,-122.58759 53.8905,-177.03453 37.5726,-75.99327 138.8988,-223.76016 237.2948,-229.6639 z"
     style="stroke-width:1.69879" /><path
     id="path93"
     fill="#956134"
     d="m 1350.1814,170.16484 v 0.0233 c -98.3945,5.90671 -199.7245,153.67382 -237.2966,229.66097 -29.65,54.44546 -43.2389,113.1944 -53.8906,177.03453 -11.5331,66.74026 -65.0424,134.72752 -68.25299,195.91538 -5.49717,-9.87471 -11.60501,-19.80488 -19.38383,-30.3121 3.80214,-46.31135 5.3504,-93.83226 2.59215,-139.74756 0.86555,-51.40107 5.54032,-82.7432 22.5411,-145.87074 24.37767,-90.49609 69.84437,-196.42417 149.42317,-252.55365 63.2744,-45.48805 138.9023,-52.33282 204.2723,-34.14918 z"
     style="stroke-width:1.69879" /><path
     id="path155_2_"
     fill="none"
     stroke="#000000"
     stroke-width="8.49394"
     stroke-linejoin="round"
     stroke-miterlimit="10"
     d="m 1347.0315,497.01912 c -49.6169,72.75854 -101.8021,120.85597 -168.2624,176.19652 -43.9506,35.55359 -152.9937,105.29872 -150.5272,168.3522 L 969.30328,739.48319 c 3.80214,-46.31135 5.35187,-93.83311 2.59213,-139.74755 0.86556,-51.40106 5.53862,-82.74614 22.54111,-145.87072 24.37768,-90.49612 69.84428,-196.42417 149.42468,-252.55452 63.2758,-45.4889 138.9029,-52.33514 204.2728,-34.15152 45.6688,12.71197 86.3327,37.6232 114.2954,70.1283 53.3799,62.00756 60.4706,151.61109 -32.2944,236.50737 -25.4713,23.15443 -55.2716,28.63137 -83.1,23.22055 -84.0512,-16.32711 -150.1137,-131.95697 -24.6324,-160.56405" /><path
     id="path167"
     fill="none"
     stroke="#000000"
     stroke-width="8.49394"
     stroke-linejoin="round"
     stroke-miterlimit="10"
     d="m 988.55989,772.83664 c 0.0258,-1.01534 0.0688,-2.02482 0.12639,-3.04282 3.2106,-61.18784 56.71982,-129.1751 68.25302,-195.91538 10.6531,-63.84096 24.2416,-122.5876 53.8905,-177.03453 37.5725,-75.99325 138.8997,-223.75868 237.2966,-229.66097" /><path
     id="path169"
     fill="none"
     stroke="#000000"
     stroke-width="8.49394"
     stroke-linejoin="round"
     stroke-miterlimit="10"
     d="m 994.44449,783.02906 c 0.29946,-0.27295 0.58547,-0.54203 0.87898,-0.82527 94.01883,-88.78231 118.86363,-245.00436 177.98283,-353.55567 53.5234,-95.38119 158.6822,-258.55652 289.1203,-191.35924 v 0.0153" /></g>

<g
   id="圖層_1"
   display="none">
	<polygon
   id="polygon177"
   display="inline"
   opacity="0.7"
   fill="#ec6865"
   enable-background="new    "
   points="795.475,1388.06 1288.478,890.382 648.979,390 " />
</g>
<g
   id="圖層_6"
   display="none">
	<polygon
   id="polygon180"
   display="inline"
   opacity="0.6"
   fill="#8fc31f"
   enable-background="new    "
   points="1616.923,1006.646 967.416,1006.646 1292.171,344.646 " />
</g>
<g
   id="圖層_7"
   display="none">
	<polygon
   id="polygon183"
   display="inline"
   opacity="0.6"
   fill="#00a0e9"
   enable-background="new    "
   points="1789.527,1389.396 1288.478,890.382 1932.947,391.335 " />
</g>
<g
   id="g474"
   transform="matrix(1.1227826,0,0,1.1227826,-45.965217,-141.94544)"><path
     id="path95"
     fill="#956134"
     d="m 571.38328,818.54363 c -0.043,2.785 -0.146,5.525 -0.269,8.277 -0.527,11.996 -1.522,24.133 -0.691,39.951 1.729,38.062 50.169,43.25 76.118,65.74 -6.92,0 -12.109,3.459 -17.299,3.459 3.459,3.461 6.919,8.65 8.649,12.109 -3.461,0 -10.381,1.729 -13.842,1.729 5.19,3.461 8.649,13.84 10.381,19.029 -27.681,8.65 -74.39,-15.568 -102.067,-24.219 -39.79,-10.381 -81.31,-20.76 -122.828,-27.68 -32.87,-6.922 -51.897,5.188 -84.769,15.568 -29.41,8.648 -81.311,38.061 -112.448,29.408 3.46,-1.729 8.649,-12.109 12.108,-15.568 -6.92,1.729 -15.568,-3.461 -22.488,-3.461 3.46,-1.729 12.108,-6.92 17.3,-8.648 -49.503,-13.752 24.219,-27.68 34.599,-36.328 13.84,-10.381 12.11,-24.221 17.301,-43.25 8.649,-36.33 19.029,-72.658 32.869,-108.988 5.19,-12.109 25.95,-46.709 17.302,-60.549 -3.46,-6.92 -48.439,-26.814 -58.819,-30.275 -39.789,-20.758 -88.229,-38.924 -115.908,-71.793 5.19,0 15.57,-3.459 20.76,-5.188 -1.729,-3.461 -1.729,-10.381 -3.46,-13.84 3.46,0 10.38,-1.73 13.842,-1.73 -6.921,-8.648 -3.462,-12.107 -1.73,-20.76 50.56,26.434 80.124,58.924 137.204,65.844 0,0 0,0 0.009,0 15.457,4.748 31.287,7.982 46.164,10.275 2.182,0.363 4.403,0.727 6.661,1.082 -3.771,23.674 -10.121,28.328 -13.581,40.438 4.048,-0.285 8.044,-1.496 12.032,-3.297 -22.481,25.951 -29.332,72.496 -29.332,107.096 0,44.979 15.568,77.85 65.739,84.77 53.629,6.92 100.338,-25.949 117.638,-76.119 10.38,-32.869 17.075,-125.959 -17.524,-146.719 13.098,-1.461 25.456,-3.807 36.556,-7.248 2.388,-0.684 4.738,-1.375 7.065,-2.094 h 0.011 c 6.364,-1.955 12.517,-4.039 18.396,-6.264 19.462,-4.645 43.059,-6.436 61.024,-14.135 20.76,-10.379 39.789,-24.219 60.549,-32.869 0,5.189 1.729,13.84 0,19.029 6.92,-3.459 13.84,-3.459 17.3,-3.459 -3.46,5.188 -5.188,13.84 -8.648,19.029 10.381,-5.189 20.761,-10.381 31.141,-10.381 -17.301,34.6 -89.959,69.197 -122.828,88.229 -17.3,10.381 -41.521,19.029 -43.25,38.061 0,13.84 7.568,58.896 10.025,71.283 0.935,4.73 1.607,9.135 2.084,13.295 0.868,7.65 1.059,14.509 0.954,21.161 z" /><path
     id="path105"
     fill="#c9a063"
     d="m 501.00028,624.90763 c 34.601,20.76 27.904,113.85 17.524,146.719 -17.301,50.17 -64.01,83.039 -117.64,76.119 -50.168,-6.92 -65.737,-39.789 -65.737,-84.77 0,-34.6 6.851,-81.145 29.332,-107.096 17.489,-7.914 34.668,-27.307 54.287,-30.812 5.06,0.408 10.172,0.764 15.301,1.049 19.947,6.506 45.057,30.76 61.968,39.979 0,-12.107 -10.76,-27.74 -10.76,-39.85 5.337,-0.309 10.587,-0.76 15.725,-1.338 z" /><path
     id="path109"
     fill="#c30d23"
     d="m 485.27528,626.24963 c 0,12.107 10.76,27.738 10.76,39.85 -16.911,-9.221 -42.021,-33.475 -61.968,-39.979 17.179,0.949 34.575,1.13 51.208,0.129 z" /><path
     id="path121"
     fill="#c30d23"
     d="m 364.48028,655.88163 c -3.988,1.801 -7.984,3.012 -12.032,3.297 3.46,-12.109 9.809,-16.764 13.581,-40.438 16.054,2.523 34.081,4.814 52.738,6.33 -19.618,3.505 -36.799,22.897 -54.287,30.811 z" /><path
     id="path131"
     fill="none"
     stroke="#000000"
     stroke-width="5"
     stroke-linejoin="round"
     stroke-miterlimit="10"
     d="m 313.30328,605.74863 c 15.457,4.748 31.287,7.982 46.164,10.275 2.18,0.361 4.403,0.727 6.661,1.082 16.054,2.523 34.081,4.814 52.738,6.33 5.06,0.406 10.172,0.762 15.301,1.047 17.179,0.951 34.574,1.133 51.208,0.131 5.337,-0.312 10.587,-0.762 15.726,-1.342 13.096,-1.461 25.456,-3.807 36.556,-7.248 2.388,-0.686 4.738,-1.375 7.065,-2.094" /><path
     id="path153"
     fill="none"
     stroke="#000000"
     stroke-width="5"
     stroke-linejoin="round"
     stroke-miterlimit="10"
     d="m 313.30328,605.74863 c -0.009,0 -0.009,0 -0.009,0 -57.081,-6.92 -86.646,-39.41 -137.204,-65.844 -1.73,8.648 -5.19,12.107 1.729,20.76 -3.46,0 -10.38,1.729 -13.84,1.729 1.73,3.463 1.73,10.383 3.46,13.842 -5.188,1.729 -15.568,5.189 -20.76,5.189 27.68,32.869 76.119,51.033 115.908,71.793 10.38,3.459 55.357,23.355 58.817,30.275 8.65,13.84 -12.108,48.438 -17.3,60.549 -13.84,36.328 -24.22,72.658 -32.87,108.988 -5.188,19.027 -3.46,32.867 -17.3,43.248 -10.38,8.648 -84.104,22.576 -34.599,36.328 -5.19,1.73 -13.842,6.922 -17.302,8.65 6.922,0 15.57,5.189 22.49,3.459 -3.46,3.461 -8.648,13.84 -12.109,15.57 31.14,8.648 83.038,-20.762 112.447,-29.41 32.869,-10.379 51.899,-22.488 84.771,-15.568 41.52,6.92 83.039,17.299 122.828,27.68 27.68,8.648 74.389,32.869 102.066,24.221 -1.729,-5.189 -5.188,-15.57 -10.38,-19.029 3.46,0 10.38,-1.729 13.84,-1.729 -1.729,-3.463 -5.188,-8.65 -8.647,-12.109 5.188,0 10.379,-3.461 17.299,-3.461 -25.949,-22.488 -74.39,-27.68 -76.118,-65.738 -0.831,-15.82 0.164,-27.957 0.691,-39.953 0.119,-2.752 0.226,-5.494 0.269,-8.277 0.104,-6.65 -0.087,-13.512 -0.96,-21.156 -0.476,-4.162 -1.15,-8.564 -2.085,-13.295 -2.456,-12.389 -10.024,-57.445 -10.024,-71.285 1.729,-19.029 25.949,-27.678 43.25,-38.059 32.868,-19.029 105.527,-53.631 122.827,-88.229 -10.38,0 -20.76,5.189 -31.14,10.379 3.46,-5.188 5.188,-13.838 8.648,-19.029 -3.459,0 -10.381,0 -17.301,3.463 1.73,-5.189 0,-13.842 0,-19.029 -20.76,8.646 -39.789,22.488 -60.549,32.869 -17.966,7.695 -41.562,9.486 -61.023,14.133 -6.772,1.617 -13.043,3.582 -18.397,6.264 h -0.009" /><path
     id="path159"
     fill="none"
     stroke="#000000"
     stroke-width="5"
     stroke-linejoin="round"
     stroke-miterlimit="10"
     d="m 366.12828,617.10563 c -3.771,23.674 -10.121,28.326 -13.581,40.438 4.048,-0.285 8.044,-1.496 12.032,-3.297 17.488,-7.914 34.668,-27.307 54.285,-30.811 2.64,-0.477 5.328,-0.666 8.07,-0.492 2.311,0.188 4.73,0.727 7.23,1.539 19.946,6.506 45.058,30.76 61.969,39.979 0,-12.109 -10.762,-27.74 -10.762,-39.85" /><path
     id="path161"
     fill="none"
     stroke="#000000"
     stroke-width="5"
     stroke-linejoin="round"
     stroke-miterlimit="10"
     d="m 364.58828,654.23863 -0.009,0.008 c -22.481,25.951 -29.332,72.496 -29.332,107.096 0,44.979 15.567,77.85 65.737,84.77 53.629,6.92 100.338,-25.949 117.64,-76.119 10.38,-32.869 17.073,-125.959 -17.524,-146.719" /></g><g
   id="g464"
   transform="matrix(1.1227826,0,0,1.1227826,-59.425377,153.09816)"><path
     id="path97"
     fill="#c9a063"
     d="m 470.3775,281.55671 c -10.873,3.537 -27.816,-4.43 -38.379,-4.43 -5.095,0 -22.204,6.004 -33.268,5.275 v 0.062 c -9.125,39.686 -1.046,42.738 26.348,43.059 2.188,0.025 4.489,0.035 6.92,0.043 43.256,0.148 29.73,-16.329 38.379,-44.009 z m -36.398,-58.759 c 1.998,-0.752 3.884,-1.521 5.646,-2.311 72.141,4.188 144.143,20.354 210.944,39.693 l 0.511,-0.025 c 2.041,40.396 -28.657,66.926 -75.972,84.734 -6.773,1.617 -13.044,3.58 -18.398,6.262 h -0.009 c -2.327,0.719 -4.682,1.41 -7.067,2.094 -11.098,3.443 -23.458,5.787 -36.554,7.25 -5.138,0.578 -10.389,1.027 -15.726,1.342 -16.636,1.002 -34.029,0.818 -51.208,-0.131 -2.5,-0.812 -4.922,-1.352 -7.231,-1.541 -2.742,-0.174 -5.432,0.02 -8.069,0.492 -18.657,-1.514 -36.685,-3.805 -52.737,-6.33 -2.259,-0.354 -4.48,-0.719 -6.661,-1.082 -14.877,-2.293 -30.707,-5.525 -46.164,-10.273 -0.009,0 -0.009,0 -0.009,0 -31.271,-9.604 -61.025,-25.379 -78.386,-52.004 -8.666,-13.494 -12.552,-27.246 -12.61,-41 h 0.009 c 62.539,-25.182 129.125,-32.854 195.781,-29.965 1.661,0.996 3.045,1.929 3.91,2.795 z" /><path
     id="path99"
     fill="#b28247"
     d="m 651.0815,260.15671 -0.511,0.025 c -66.803,-19.342 -138.804,-35.508 -210.944,-39.693 21.798,-9.725 25.249,-21.895 3.607,-23.328 l 0.008,-0.146 c 10.38,-53.629 30.915,-90.842 89.734,-90.842 0.087,-0.535 0.173,-1.064 0.26,-1.592 8.226,5.777 16.218,11.824 23.899,18.053 30.084,24.393 55.313,51.414 70.35,74.916 15.295,23.916 22.688,44.632 23.597,62.607 z m -161.995,-106.947 c 23.771,40.793 63.091,-20.674 0,0 z" /><path
     id="path101"
     fill="#6a3906"
     d="m 575.5345,57.42071 c 10.38,24.221 4.221,52.912 -18.397,65.213 -7.683,-6.23 -15.675,-12.275 -23.898,-18.053 3.7,-21.625 14.114,-36.502 42.295,-47.16 z" /><path
     id="path103"
     fill="#956134"
     d="m 533.2375,104.58071 c -0.087,0.525 -0.173,1.055 -0.26,1.592 -58.819,0 -79.354,37.211 -89.734,90.84 l -0.008,0.146 c -4.195,-0.285 -9.333,-0.164 -15.466,0.469 l -0.097,-0.943 c -10.38,-46.709 -16.435,-102.432 -70.062,-97.242 2.518,-1.6 5.035,-3.154 7.534,-4.688 28.259,-17.281 55.193,-30.361 73.773,-37.332 31.599,8.812 64.459,26.173 94.32,47.158 z" /><path
     id="path107"
     d="m 489.0865,153.20971 c 63.091,-20.674 23.771,40.793 0,0 z" /><path
     id="path111"
     fill="#ffffff"
     d="m 431.6765,277.07971 c 10.562,0 27.506,7.967 38.379,4.43 -8.648,27.68 4.878,44.156 -38.379,44.01 -2.431,-0.008 -4.729,-0.018 -6.92,-0.043 v -0.207 c -1.108,-14.421 4.455,-31.391 6.92,-48.19 z" /><path
     id="path113"
     d="m 443.2355,197.15871 c 21.642,1.438 18.188,13.605 -3.607,23.328 -3.183,-0.189 -6.375,-0.354 -9.558,-0.482 -8.321,-5.025 -23.511,-11.824 -14.266,-20.727 4.344,-0.744 8.33,-1.289 11.964,-1.65 6.133,-0.633 11.27,-0.754 15.467,-0.469 z" /><path
     id="path115"
     d="m 439.6265,220.48871 c -1.764,0.787 -3.649,1.559 -5.646,2.311 -0.865,-0.865 -2.249,-1.799 -3.91,-2.793 3.181,0.127 6.374,0.291 9.556,0.482 z" /><path
     id="path117"
     fill="#b28247"
     d="m 427.6715,196.68371 0.097,0.943 c -3.635,0.361 -7.621,0.906 -11.965,1.65 -9.246,8.9 5.943,15.699 14.266,20.727 -66.656,-2.891 -133.242,4.781 -195.781,29.963 h -0.009 c -0.227,-51.043 52.062,-102.121 106.792,-139.635 5.501,-3.771 11.037,-7.404 16.538,-10.893 53.63,-5.186 59.683,50.536 70.062,97.245 z m -45.843,-46.494 c -11.895,-9.514 -23.787,-7.135 -33.302,4.76 11.894,7.135 26.167,7.135 33.302,-4.76 z" /><path
     id="path119"
     fill="#ffffff"
     d="m 425.0945,325.29071 v 0.207 c -27.394,-0.318 -35.473,-3.373 -26.348,-43.059 v -0.062 c 11.062,0.729 28.173,-5.275 33.268,-5.275 -2.465,16.799 -8.029,33.769 -6.92,48.189 z" /><path
     id="path123"
     d="m 348.5275,154.94771 c 9.515,-11.895 21.407,-14.271 33.302,-4.758 -7.136,11.895 -21.409,11.895 -33.302,4.758 z" /><path
     id="path125"
     fill="#6a3906"
     d="m 364.5295,93.75071 0.614,1.004 c -2.5,1.531 -5.019,3.088 -7.534,4.688 -5.501,3.484 -11.037,7.117 -16.538,10.891 -19.523,-11.229 -22.854,-38.672 0.969,-61.561998 17.297,8.648998 22.489,27.323998 22.489,44.978998 z" /><path
     id="path133_2_"
     fill="none"
     stroke="#000000"
     stroke-width="5"
     stroke-linejoin="round"
     stroke-miterlimit="10"
     d="m 438.9175,55.08671 c -18.58,6.973 -45.516,20.051 -73.774,37.334 -2.5,1.531 -5.018,3.088 -7.533,4.688 -5.501,3.484 -11.037,7.117 -16.538,10.891 -54.729,37.516 -107.018,88.592 -106.792,139.635 0.061,13.754 3.942,27.508 12.609,41.002 17.36,26.623 47.116,42.4 78.387,52.002 0,0 33.775,18.744 119.108,21.871 85.333,3.127 112.327,-13.689 112.327,-13.689 6.366,-1.955 12.519,-4.039 18.398,-6.262 47.312,-17.811 78.013,-44.34 75.972,-84.734 -0.908,-17.975 -8.304,-38.689 -23.597,-62.605 -15.034,-23.502 -40.268,-50.523 -70.352,-74.916 -7.682,-6.23 -15.674,-12.275 -23.897,-18.053 -29.86,-20.984 -62.722,-38.348 -94.318,-47.16" /><path
     id="path135"
     fill="none"
     stroke="#000000"
     stroke-width="5"
     stroke-linejoin="round"
     stroke-miterlimit="10"
     d="m 532.9765,103.83871 c 0.087,-0.537 0.173,-1.064 0.26,-1.592 3.702,-21.625 14.116,-36.502 42.298,-47.16 10.38,24.221 4.221,52.912 -18.397,65.213" /><path
     id="path137"
     fill="none"
     stroke="#000000"
     stroke-width="5"
     stroke-linejoin="round"
     stroke-miterlimit="10"
     d="m 364.5285,91.41671 c 0,-17.654 -5.19,-36.33 -22.489,-44.979998 -23.822,22.890998 -20.492,50.333998 -0.969,61.561998" /><path
     id="path139"
     fill="none"
     stroke="#000000"
     stroke-width="5"
     stroke-linejoin="round"
     stroke-miterlimit="10"
     d="m 234.2875,247.63371 c 62.539,-25.18 129.125,-32.854 195.781,-29.963 3.183,0.129 6.375,0.293 9.558,0.482 72.14,4.188 144.142,20.354 210.944,39.693" /><path
     id="path141"
     fill="none"
     stroke="#000000"
     stroke-width="5"
     stroke-linejoin="round"
     stroke-miterlimit="10"
     d="m 433.9785,220.46371 c -0.865,-0.865 -2.249,-1.799 -3.91,-2.793 -8.321,-5.025 -23.51,-11.824 -14.266,-20.727 4.344,-0.742 8.33,-1.287 11.965,-1.65 6.133,-0.633 11.271,-0.754 15.466,-0.469 21.642,1.438 18.188,13.605 -3.607,23.328 -1.764,0.789 -3.65,1.559 -5.648,2.311" /><path
     id="path143"
     fill="none"
     stroke="#000000"
     stroke-width="5"
     stroke-linejoin="round"
     stroke-miterlimit="10"
     d="m 433.9785,220.46371 c -4.316,20.094 -5.441,40.49 -8.901,54.33" /><path
     id="path145"
     fill="none"
     stroke="#000000"
     stroke-width="5"
     stroke-linejoin="round"
     stroke-miterlimit="10"
     d="m 390.4785,264.41471 c -4.266,11.373 0.526,15.152 8.252,15.654 11.062,0.729 28.173,-5.275 33.268,-5.275 10.562,0 27.506,7.967 38.379,4.43 5.155,-1.662 8.944,-5.918 10.062,-14.809" /><path
     id="path147"
     fill="none"
     stroke="#000000"
     stroke-width="5"
     stroke-linejoin="round"
     stroke-miterlimit="10"
     d="m 398.7305,280.13171 c -9.125,39.686 -1.047,42.738 26.348,43.059 2.188,0.025 4.489,0.035 6.92,0.043 43.258,0.146 29.729,-16.33 38.379,-44.01" /><path
     id="path149"
     fill="none"
     stroke="#000000"
     stroke-width="5"
     stroke-linejoin="round"
     stroke-miterlimit="10"
     d="m 348.5265,152.61371 c 9.515,-11.895 21.407,-14.271 33.302,-4.758 -7.136,11.895 -21.408,11.895 -33.302,4.758 z" /><path
     id="path151"
     fill="none"
     stroke="#000000"
     stroke-width="5"
     stroke-linejoin="round"
     stroke-miterlimit="10"
     d="m 489.0865,150.87571 c 63.091,-20.674 23.77,40.793 0,0 z" /><path
     id="path163"
     fill="none"
     stroke="#000000"
     stroke-width="5"
     stroke-linejoin="round"
     stroke-miterlimit="10"
     d="m 357.6085,97.10771 c 53.629,-5.188 59.684,50.533 70.062,97.242" /><path
     id="path165"
     fill="none"
     stroke="#000000"
     stroke-width="5"
     stroke-linejoin="round"
     stroke-miterlimit="10"
     d="m 443.2425,194.67871 c 10.38,-53.629 30.915,-90.84 89.734,-90.84" /><path
     id="path171"
     fill="none"
     stroke="#000000"
     stroke-width="5"
     stroke-linejoin="round"
     stroke-miterlimit="10"
     d="m 431.9975,274.79371 c -2.465,16.799 -8.026,33.77 -6.92,48.188" /></g><path
   sodipodi:type="star"
   style="fill:#808080;stroke:#000000;stroke-width:5.18188;stroke-miterlimit:4;stroke-dasharray:none"
   id="path746"
   sodipodi:sides="3"
   sodipodi:cx="-142.37288"
   sodipodi:cy="-142.37288"
   sodipodi:r1="112.5097"
   sodipodi:r2="91.022255"
   sodipodi:arg1="0.86217005"
   sodipodi:arg2="1.9093676"
   inkscape:flatsided="true"
   inkscape:rounded="0.18514237"
   inkscape:randomized="0"
   inkscape:transform-center-x="-7.0423673"
   inkscape:transform-center-y="-16.051432"
   transform="matrix(1.2650556,0.02918459,-0.02918459,1.2650556,966.92669,548.3865)"
   d="m -69.152538,-56.949149 c -27.39334,23.480005 -177.172022,-29.26159 -183.809632,-64.724921 -6.63761,-35.46333 113.92729,-138.80467 147.95824,-126.82135 34.030952,11.98333 63.244731,168.066266 35.851392,191.546271 z" /><path
   sodipodi:type="star"
   style="fill:#803300;stroke:#241c1c;stroke-width:7.1323;stroke-miterlimit:4;stroke-dasharray:none;stroke-opacity:1"
   id="path752"
   sodipodi:sides="4"
   sodipodi:cx="-219.66103"
   sodipodi:cy="8.1355934"
   sodipodi:r1="85.156967"
   sodipodi:r2="60.215073"
   sodipodi:arg1="0.78539816"
   sodipodi:arg2="1.5707963"
   inkscape:flatsided="true"
   inkscape:rounded="0.185142"
   inkscape:randomized="0"
   transform="matrix(0.38768591,0.12994063,-0.70418094,2.1009673,820.00704,533.75727)"
   d="m -159.44596,68.350662 c -15.76613,15.766131 -104.664,15.766132 -120.43013,10e-7 -15.76614,-15.766132 -15.76614,-104.664007 -1e-5,-120.430138 15.76614,-15.766132 104.66401,-15.766132 120.43014,-10e-7 15.76613,15.766131 15.76613,104.664007 0,120.430138 z" /><path
   sodipodi:type="star"
   style="opacity:0.998;fill:none;stroke:#4d4d4d;stroke-width:22.259;stroke-miterlimit:4;stroke-dasharray:none"
   id="path754"
   sodipodi:sides="3"
   sodipodi:cx="-161.50798"
   sodipodi:cy="108.70508"
   sodipodi:r1="40.114746"
   sodipodi:r2="20.057373"
   sodipodi:arg1="-0.53172407"
   sodipodi:arg2="0.51547348"
   inkscape:flatsided="true"
   inkscape:rounded="0.185142"
   inkscape:randomized="0"
   inkscape:transform-center-x="-0.70631817"
   inkscape:transform-center-y="4.2281768"
   transform="matrix(1.6151774,0.54135873,-0.39028552,1.1644411,974.04113,663.27447)"
   d="m -126.93171,88.366094 c 6.52221,11.087759 -21.38694,60.347886 -34.25033,60.452406 -12.86339,0.10452 -41.56933,-48.69558 -35.22815,-59.88786 6.34117,-11.192279 62.95627,-11.652304 69.47848,-0.564546 z" /></svg>
