<svg width="58" height="58" xmlns="http://www.w3.org/2000/svg">
 <!-- Created with Method Draw - http://github.com/duopixel/Method-Draw/ -->

 <g>
  <title>background</title>
  <rect fill="none" id="canvas_background" height="60" width="60" y="-1" x="-1"/>
  <g display="none" overflow="visible" y="0" x="0" height="100%" width="100%" id="canvasGrid">
   <rect fill="url(#gridpattern)" stroke-width="0" y="0" x="0" height="100%" width="100%"/>
  </g>
 </g>
 <g>
  <title>Layer 1</title>
  <g id="svg_37">
   <g transform="matrix(0.21285399151680282,0,0,0.21285399151680282,0,0) " id="svg_10"/>
   <g transform="matrix(0.21285399151680282,0,0,0.21285399151680282,0,0) " id="svg_9"/>
   <g transform="matrix(0.21285399151680282,0,0,0.21285399151680282,0,0) " id="svg_7">
    <g id="svg_8">
     <g id="svg_12">
      <path id="svg_13" d="m260.813634,217.853627c-11,3 -9.33,0.7 -19.33,0.7c2.87,2.48 4.34,7.3 3.84,12.3c-6,-2 -6.51,-3 -12.51,-3c0,4 0,8 0,12c-18,-12 -37,-33.49 -55,-45.49l-0.56,-1.52c11.05,-3.97 21.54,-9.29 29.94,-15.54c-10.19,13.13 -2.63,32.91 15.02,32.07c5.27,-0.25 9.71,-1.88 13.19,-4.38l2.24,0.63c6,4 19.67,5 23.17,12.23z" fill="#FAEE00"/>
      <path id="svg_14" d="m231.633634,88.583627c6.76,0 12.24,5.48 12.24,12.24c0,6.77 -5.48,12.25 -12.24,12.25c-6.76,0 -12.25,-5.48 -12.25,-12.25c0,-6.76 5.49,-12.24 12.25,-12.24z"/>
      <path id="svg_15" d="m231.633634,176.993627c6.76,0 12.24,5.48 12.24,12.24c0,6.76 -5.48,12.24 -12.24,12.24c-6.76,0 -12.25,-5.48 -12.25,-12.24c0,-6.76 5.49,-12.24 12.25,-12.24z"/>
      <path id="svg_16" d="m227.603634,78.223627c3.94,1.1 7.96,3.63 11.74,8c14.51,16.78 0,45.67 -24.47,35.88c-0.89,-0.52 -1.73,-1.05 -2.53,-1.61c-23.1,-16.15 -4.81,-47.84 15.26,-42.27zm16.27,22.6c0,-6.76 -5.48,-12.24 -12.24,-12.24c-6.76,0 -12.25,5.48 -12.25,12.24c0,6.77 5.49,12.25 12.25,12.25c6.76,0 12.24,-5.48 12.24,-12.25z" fill="#FFFFFF"/>
      <path id="svg_17" d="m225.193634,54.633627c0,2 16.51,1.5 16.51,1.5c0,5.87 -8.13,16.03 -14.1,22.09c-20.07,-5.57 -38.36,26.12 -15.26,42.27l-2.14,1.57c-7.7,-6.3 -19.42,-14.34 -32.33,-21.21l0.02,-0.03c4,-24 15.3,-46.19 27.3,-68.19c0,6 6,12 8,18c4,-2 8,-4 12,-6c0,2 -2,8 0,10z" fill="#FAEE00"/>
      <path id="svg_18" d="m225.473634,166.963627c22.63,4.98 23.64,28.2 9.93,38.03c-3.48,2.5 -7.92,4.13 -13.19,4.38c-17.65,0.84 -25.21,-18.94 -15.02,-32.07c2.76,-2.06 5.29,-4.22 7.54,-6.45c2.98,-1.71 6.54,-3.05 10.74,-3.89zm18.4,22.27c0,-6.76 -5.48,-12.24 -12.24,-12.24c-6.76,0 -12.25,5.48 -12.25,12.24c0,6.76 5.49,12.24 12.25,12.24c6.76,0 12.24,-5.48 12.24,-12.24z" fill="#FFFFFF"/>
      <path id="svg_19" d="m214.053634,125.373627c17.51,16.05 13.99,32.25 0.68,45.48c-3.16,1.8 -5.66,4.01 -7.54,6.45c-8.4,6.25 -18.89,11.57 -29.94,15.54c-4.12,1.48 -8.33,2.77 -12.53,3.85c-32.22,8.31 -64.27,4.18 -59.96,-22.39c0,-2.11 -0.08,-4.6 -0.19,-7.38c-0.67,-16.16 -2.66,-42.04 1.28,-59.52c1.66,-7.38 4.38,-13.26 8.7,-16.29c12.02,-8.81 31.91,-4.64 51.17,3.82l0,0.01c4.11,1.8 8.19,3.8 12.15,5.91c12.91,6.87 24.63,14.91 32.33,21.21c1.43,1.17 2.72,2.28 3.85,3.31z" fill="#F39800"/>
      <path id="svg_20" d="m104.763634,174.303627c-4.31,26.57 27.74,30.7 59.96,22.39c-12.65,27.76 -43.65,51.02 -69.75,37.97c-24.46,-11.42 -25.15,-34.12 -14.48,-45.43c-22.5,6 -46.32,9.86 -68.82,9.86c8.97,-6.73 15,-8.1 19.5,-15c-3,0 -8.63,-2.16 -11.63,-3.66c-2.24,0 12.46,-11.75 11.63,-11.34c-4.5,-1.5 -9,-4.5 -13.5,-6c27,-7.5 57.3,20.37 85.8,3.87l1.1,-0.04c0.11,2.78 0.19,5.27 0.19,7.38z" fill="#FAEE00"/>
      <path id="svg_21" d="m82.913634,84.743627c-16.09,-24.04 52.39,-67.03 82.81,10.19c-19.26,-8.46 -39.15,-12.63 -51.17,-3.82c-4.32,3.03 -7.04,8.91 -8.7,16.29c-34.64,-8.41 -49.93,16.68 -79.18,17.61c0,-1.04 4.95,-6.44 6.83,-8.39l0.04,0.04c1,-1.07 0.78,-0.89 -0.04,-0.04l-6.83,-6.29c3,-1.5 7.5,-4.24 10.5,-5.74c-1.5,-1.5 -3,-4.5 -4.5,-6c16.5,6 35.24,-10.85 50.24,-13.85z" fill="#FAEE00"/>
     </g>
     <g id="svg_22">
      <path id="svg_23" d="m165.723634,94.943627c4.11,1.8 8.19,3.8 12.15,5.91c12.91,6.87 24.63,14.91 32.33,21.21c1.43,1.17 2.72,2.28 3.85,3.31c17.51,16.05 13.99,32.25 0.68,45.48c-2.25,2.23 -4.78,4.39 -7.54,6.45c-8.4,6.25 -18.89,11.57 -29.94,15.54c-4.12,1.48 -8.33,2.77 -12.53,3.85c-32.22,8.31 -64.27,4.18 -59.96,-22.39" stroke-miterlimit="10" stroke-width="4" stroke="#000000" fill="none"/>
      <path id="svg_24" d="m104.763634,174.303627c0,-2.11 -0.08,-4.6 -0.19,-7.38c-0.67,-16.16 -2.66,-42.04 1.28,-59.52c1.66,-7.38 4.38,-13.26 8.7,-16.29c12.02,-8.81 31.91,-4.64 51.17,3.82" stroke-miterlimit="10" stroke-width="4" stroke="#000000" fill="none"/>
      <path id="svg_25" d="m214.873634,122.103627c-0.89,-0.52 -1.73,-1.05 -2.53,-1.61c-23.1,-16.15 -4.81,-47.84 15.26,-42.27c3.94,1.1 7.96,3.63 11.74,8c14.51,16.78 0,45.67 -24.47,35.88" stroke-miterlimit="10" stroke-width="4" stroke="#000000" fill="none"/>
      <path id="svg_26" d="m225.473634,166.963627c22.63,4.98 23.64,28.2 9.93,38.03c-3.48,2.5 -7.92,4.13 -13.19,4.38c-17.65,0.84 -25.21,-18.94 -15.02,-32.07c1.88,-2.44 4.38,-4.65 7.54,-6.45c2.98,-1.71 6.54,-3.05 10.74,-3.89" stroke-miterlimit="10" stroke-width="4" stroke="#000000" fill="none"/>
      <path id="svg_27" d="m165.723634,94.943627l0,-0.01c-30.42,-77.22 -98.9,-34.23 -82.81,-10.19c0.33,0.5 0.7,0.99 1.11,1.47" stroke-miterlimit="10" stroke-width="4" stroke="#000000" fill="none"/>
      <path id="svg_28" d="m164.723634,196.693627c-12.65,27.76 -43.65,51.02 -69.75,37.97c-24.46,-11.42 -25.15,-34.12 -14.48,-45.43" stroke-miterlimit="10" stroke-width="4" stroke="#000000" fill="none"/>
      <path id="svg_29" d="m243.873634,100.823627c0,6.77 -5.48,12.25 -12.24,12.25c-6.76,0 -12.25,-5.48 -12.25,-12.25c0,-6.76 5.49,-12.24 12.25,-12.24c6.76,0 12.24,5.48 12.24,12.24z" stroke-miterlimit="10" stroke-width="4" stroke="#000000" fill="none"/>
      <path id="svg_30" d="m243.873634,189.233627c0,6.76 -5.48,12.24 -12.24,12.24c-6.76,0 -12.25,-5.48 -12.25,-12.24c0,-6.76 5.49,-12.24 12.25,-12.24c6.76,0 12.24,5.48 12.24,12.24z" stroke-miterlimit="10" stroke-width="4" stroke="#000000" fill="none"/>
      <path id="svg_31" d="m33.503634,116.623627c-1.88,1.95 -6.83,7.35 -6.83,8.39c29.25,-0.93 44.54,-26.02 79.18,-17.61" stroke-miterlimit="10" stroke-width="4" stroke="#000000" fill="none"/>
      <path id="svg_32" d="m33.503634,116.623627l0.04,0.04c1,-1.07 0.78,-0.89 -0.04,-0.04z" stroke-miterlimit="10" stroke-width="4" stroke="#000000" fill="none"/>
      <path id="svg_33" d="m82.913634,84.743627c-15,3 -33.74,19.85 -50.24,13.85c1.5,1.5 3,4.5 4.5,6c-3,1.5 -7.5,4.24 -10.5,5.74l6.83,6.29" stroke-miterlimit="10" stroke-width="4" stroke="#000000" fill="none"/>
      <path id="svg_34" d="m80.493634,189.233627c-22.5,6 -46.32,9.86 -68.82,9.86c8.97,-6.73 15,-8.1 19.5,-15c-3,0 -8.63,-2.16 -11.63,-3.66c-2.24,0 12.46,-11.75 11.63,-11.34c-4.5,-1.5 -9,-4.5 -13.5,-6c27,-7.5 57.3,20.37 85.8,3.87" stroke-miterlimit="10" stroke-width="4" stroke="#000000" fill="none"/>
      <path id="svg_35" d="m177.893634,100.823627c4,-24 15.3,-46.19 27.3,-68.19c0,6 6,12 8,18c4,-2 8,-4 12,-6c0,2 -2,8 0,10c0,2 16.51,1.5 16.51,1.5c0,5.87 -8.13,16.03 -14.1,22.09c-0.14,0.14 -0.28,0.28 -0.41,0.41" stroke-linejoin="round" stroke-linecap="round" stroke-width="4" stroke="#000000" fill="none"/>
      <path id="svg_36" d="m177.813634,194.363627c18,12 37,33.49 55,45.49c0,-4 0,-8 0,-12c6,0 6.51,1 12.51,3c0.5,-5 -0.97,-9.82 -3.84,-12.3c10,0 8.33,2.3 19.33,-0.7c-3.5,-7.23 -17.17,-8.23 -23.17,-12.23" stroke-linejoin="round" stroke-linecap="round" stroke-width="4" stroke="#000000" fill="none"/>
     </g>
    </g>
   </g>
  </g>
 </g>
</svg>