<?xml version="1.0" encoding="utf-8"?>
<!-- Generator: Adobe Illustrator 16.0.0, SVG Export Plug-In . SVG Version: 6.00 Build 0)  -->
<!DOCTYPE svg PUBLIC "-//W3C//DTD SVG 1.1//EN" "http://www.w3.org/Graphics/SVG/1.1/DTD/svg11.dtd">
<svg version="1.1" xmlns="http://www.w3.org/2000/svg" xmlns:xlink="http://www.w3.org/1999/xlink" x="0px" y="0px" width="190px"
	 height="194px" viewBox="0 0 190 194" enable-background="new 0 0 190 194" xml:space="preserve">
<g id="圖層_3" display="none">
</g>
<g id="圖層_1">
	<g>
		<g>
			<defs>
				<polygon id="SVGID_1_" points="-651.567,1697.801 1485.568,1697.801 1485.568,-11.8 -651.567,-11.8 -651.567,1697.801 				"/>
			</defs>
			<clipPath id="SVGID_2_">
				<use xlink:href="#SVGID_1_"  overflow="visible"/>
			</clipPath>
			
				<use xlink:href="#SVGID_1_"  overflow="visible" fill-rule="evenodd" clip-rule="evenodd" fill="none" stroke="#000000" stroke-width="10" stroke-miterlimit="10"/>
		</g>
	</g>
</g>
<g id="圖層_4">
	<g>
		<g>
			<path fill="#B5B5B6" d="M35.182,61.295c3.451,5.455,8.885,9.917,15.431,10.917c2.724,0.416,4.713,2.027-1.03-1.044
				c-4.618-2.469-8.077-7.878-8.198-13.118c-0.128-5.503,0.363-2.382-0.218-0.167c-3.353,12.786,6.213,25.016,19.285,25.317
				c6.704,0.154,13.296,1.846,20,2C75.737,73.82,71.023,62.439,66.31,51.059c-0.822,0.913-5.614,5.023-1.227,1.716
				c-1.465,1.104-3.099,1.967-4.73,2.792c5-2.526-0.27-0.051-1.626,0.343c-1.378,0.401-8.962,1.575-2.853,0.812
				c-7.751,0.969-15.635,0.503-23.423,0.479C15.061,57.147,5.894,79.073,18.31,91.343c9.056,8.951,19.726,17.188,32.192,20.607
				c16.774,4.6,33.202-3.595,41.219-18.655c5.123-9.625,2.501-21.696-7.175-27.364c-9.121-5.342-22.247-2.438-27.364,7.175
				c-0.439,0.884-0.926,1.742-1.458,2.574c1.84-2.191,2.08-2.514,0.72-0.967c-1.569,1.459-1.1,1.154,1.409-0.917
				c-3.204,2.287,4.611-1.436,0.965-0.297c-3.085,0.963,5.422-0.02,0.196-0.294c6.518,0.343,0.957-0.103-1.121-0.869
				c5.805,2.138,0.694,0.11-0.633-0.644c-1.837-1.043-3.566-2.272-5.271-3.516c4.773,3.484,0.037-0.082-0.914-0.906
				c-1.549-1.343-3.024-2.77-4.482-4.21c-4.714,11.381-9.428,22.761-14.142,34.142c22.205,0.068,46.009,0.07,62.142-17.858
				c11.628-12.92,3.829-33.728-14.142-34.142c-6.704-0.154-13.296-1.846-20-2c6.429,8.439,12.857,16.878,19.285,25.317
				c2.659-10.144,2.146-20.57-5.489-28.444c-2.912-3.003-7.258-5.307-11.311-6.18c-0.736-0.159-1.498-0.224-2.243-0.337
				c-0.352-0.056-0.698-0.132-1.04-0.23c4.265,1.237,7.62,3.83,10.067,7.78c-5.817-9.195-17.709-12.831-27.364-7.175
				C33.205,39.292,29.348,52.074,35.182,61.295L35.182,61.295z"/>
		</g>
	</g>
	<g>
		<g>
			<path fill="#B5B5B6" d="M119.724,147.883c1.928-1.195,3.858-2.502,5.253-4.307c1.075-1.153,2.003-2.407,2.784-3.761
				c0.132-0.239,0.263-0.478,0.395-0.717c-1.824,2.699-4.492,4.31-8.003,4.833c-5-5-10-10-15-15
				c0.117,1.108-0.181,4.507,0.474,0.285c-0.451,1.573-0.263,1.232,0.566-1.023c1.56-1.801,1.803-2.125,0.729-0.97
				c2.446-2.565,1.355-0.997-0.004-0.268c3.681-1.974-0.159-0.121-1.338,0.174c-0.708,0.177-4.493,0.744-0.584,0.237
				c-1.626,0.211-3.268,0.304-4.903,0.397c-3.308,0.188-6.629,0.166-9.94,0.167c-6.671,0.002-12.694,4.577-14.464,11.012
				c-1.951,7.093,1.451,12.794,6.893,16.94c-1.037-0.809-0.847-0.653,0.571,0.469c1.225,0.977,2.434,1.974,3.647,2.963
				c2.639,2.151,5.313,4.268,8.031,6.317c4.316,3.253,8.761,6.136,13.75,8.25c8.138,3.447,15.242,1.905,20.523-5.381
				c-1.656,2.285,1.44-1.265,1.556-1.375c0.747-0.678,1.517-1.33,2.307-1.957c-1.036,0.816-0.853,0.696,0.548-0.359
				c3.157-2.317,6.388-4.586,9.244-7.273c5.955-5.603,5.647-15.566,0-21.213c-5.91-5.911-15.263-5.599-21.213,0
				c-0.572,0.564-1.17,1.099-1.795,1.604c1.307-0.992,1.237-0.951-0.206,0.124c-2.222,1.636-4.421,3.279-6.599,4.975
				c-3.887,3.027-6.842,6.326-9.746,10.333c6.841-1.794,13.682-3.587,20.523-5.381c-10.784-4.569-16.509-10.77-26-18
				c-2.524,9.317-5.048,18.635-7.571,27.952c8.763-0.002,18.101,0.071,26.484-2.775c11.28-3.831,19.83-13.767,18.516-26.225
				c-0.812-7.696-6.217-15.574-15-15c-5.529,0.361-9.727,1.615-14.015,5.164c-1.304,1.08-2.712,2.919-3.476,4.181
				c-1.838,3.039,0.776-0.589,1.919-1.297c-6.936,4.3-9.594,13.331-5.381,20.523C103.249,149.414,112.769,152.194,119.724,147.883
				L119.724,147.883z"/>
		</g>
	</g>
	<g>
		<g>
			<path fill="#B5B5B6" d="M141.174,55.94c2.362,3.111,4.446,5.132,8.159,6.383c6.972,2.35-6.142-5.337-5.123-9.568
				c-1.952,8.108,3.781,15.498,12.054,15.823c3.602,0.142,7.146,0.933,10.748,1.074c-2.946-7.113-5.893-14.226-8.839-21.339
				c-1.148,1.224-0.996,1.189-3.012,2.227c1.932-0.994-3.938,0.626-1.617,0.333c-4.069,0.515-8.237,0.25-12.325,0.229
				c-10.835-0.057-16.645,13.708-8.839,21.339c5.266,5.148,11.506,10.002,18.823,11.685c9.712,2.232,18.607-2.504,23.377-10.992
				c7.908-14.071-13.689-26.669-21.586-12.618c-0.855,1.462-0.989,1.724-0.401,0.786c1.02-1.123,2.367-1.649,4.045-1.58
				c-1.44-0.034-1.396-0.018,0.134,0.048c-1.354-0.45-1.446-0.47-0.278-0.059c-3.244-1.567-3.587-2.164-6.436-4.949
				c-2.946,7.113-5.893,14.226-8.839,21.339c12.563,0.066,25.407-0.272,34.632-10.11c7.588-8.093,2.145-20.907-8.839-21.339
				c-3.602-0.142-7.146-0.933-10.748-1.074c4.018,5.274,8.036,10.549,12.054,15.823c1.303-5.413,1.632-12.865-3.251-16.844
				c-2.054-1.673-3.784-3.099-6.419-3.771c-1.845-0.471-3.042-1.463-0.08,0.436c1.495,1.495,2.989,2.989,4.484,4.484
				c-0.098-0.128-0.194-0.256-0.292-0.384c-4.112-5.415-10.688-8.242-17.102-4.484C140.312,41.97,137.041,50.5,141.174,55.94
				L141.174,55.94z"/>
		</g>
	</g>
</g>
<g id="圖層_2" display="none">
</g>
</svg>
