<?xml version="1.0" encoding="UTF-8" standalone="no"?>
<svg
   xmlns:dc="http://purl.org/dc/elements/1.1/"
   xmlns:cc="http://creativecommons.org/ns#"
   xmlns:rdf="http://www.w3.org/1999/02/22-rdf-syntax-ns#"
   xmlns:svg="http://www.w3.org/2000/svg"
   xmlns="http://www.w3.org/2000/svg"
   xmlns:sodipodi="http://sodipodi.sourceforge.net/DTD/sodipodi-0.dtd"
   xmlns:inkscape="http://www.inkscape.org/namespaces/inkscape"
   width="1000"
   height="1000"
   viewBox="0 0 264.58333 264.58334"
   version="1.1"
   id="svg8"
   inkscape:version="1.0.1 (3bc2e813f5, 2020-09-07)"
   sodipodi:docname="chestnnuts.svg">
  <defs
     id="defs2" />
  <sodipodi:namedview
     id="base"
     pagecolor="#ffffff"
     bordercolor="#666666"
     borderopacity="1.0"
     inkscape:pageopacity="0.0"
     inkscape:pageshadow="2"
     inkscape:zoom="0.49497475"
     inkscape:cx="1156.6348"
     inkscape:cy="542.23202"
     inkscape:document-units="mm"
     inkscape:current-layer="layer1"
     inkscape:document-rotation="0"
     showgrid="false"
     units="px"
     inkscape:window-width="1449"
     inkscape:window-height="991"
     inkscape:window-x="453"
     inkscape:window-y="0"
     inkscape:window-maximized="0" />
  <metadata
     id="metadata5">
    <rdf:RDF>
      <cc:Work
         rdf:about="">
        <dc:format>image/svg+xml</dc:format>
        <dc:type
           rdf:resource="http://purl.org/dc/dcmitype/StillImage" />
        <dc:title></dc:title>
      </cc:Work>
    </rdf:RDF>
  </metadata>
  <g
     inkscape:label="Layer 1"
     inkscape:groupmode="layer"
     id="layer1">
    <path
       style="fill:#c87137;stroke:#000000;stroke-width:0.280087px;stroke-linecap:butt;stroke-linejoin:miter;stroke-opacity:1"
       d="m 118.72389,71.78909 c 0,0 4.10172,24.854769 13.83753,33.63391 11.12428,10.03117 30.38829,19.17722 55.07876,19.47226 24.69048,0.29503 45.31109,-6.49075 55.6214,-16.22689 10.31031,-9.736131 11.39561,-16.521921 11.93825,-21.24247 0.54265,-4.720546 -136.47594,-15.63681 -136.47594,-15.63681 z"
       id="path45"
       sodipodi:nodetypes="cssssc" />
    <path
       style="fill:#782121;stroke:#000000;stroke-width:0.280087px;stroke-linecap:butt;stroke-linejoin:miter;stroke-opacity:1"
       d="m 187.91696,4.7985139 c 0,0 2.17058,5.9006881 -3.79853,10.0311671 -5.96914,4.13048 -27.40373,7.080822 -42.59787,18.587157 -13.8688,10.502673 -16.55076,17.407031 -21.43459,30.388543 -4.88383,12.981507 8.41104,24.487846 8.41104,24.487846 0,0 13.29488,10.916272 21.43459,15.046743 8.13971,4.13049 25.77578,9.4411 37.17139,9.4411 11.3956,0 37.44269,1.18014 54.80742,-11.80137 17.36474,-12.981517 14.38018,-11.801377 16.00812,-23.602743 1.77275,-12.851141 -5.42647,-25.37295 -13.02355,-33.043843 C 237.2979,36.662221 225.63099,28.696292 220.47583,26.040983 217.53335,24.525386 201.21182,18.96016 196.05668,14.829682 192.029,11.602578 187.91696,4.7985139 187.91696,4.7985139 Z"
       id="path43"
       sodipodi:nodetypes="cssscsssssssc" />
    <path
       style="fill:#c87137;stroke:#000000;stroke-width:0.280087px;stroke-linecap:butt;stroke-linejoin:miter;stroke-opacity:1"
       d="m 9.1054955,194.74628 c 0,0 4.1017115,24.85478 13.8375285,33.63391 11.124281,10.03117 30.388285,19.17721 55.078752,19.47226 24.690494,0.29503 45.311094,-6.49075 55.621404,-16.2269 10.3103,-9.73613 11.39561,-16.52191 11.93825,-21.24245 C 146.12408,205.66255 9.1054955,194.74628 9.1054955,194.74628 Z"
       id="path45-2"
       sodipodi:nodetypes="cssssc" />
    <path
       style="fill:#782121;stroke:#000000;stroke-width:0.280087px;stroke-linecap:butt;stroke-linejoin:miter;stroke-opacity:1"
       d="m 78.298559,127.75571 c 0,0 2.170586,5.90069 -3.79853,10.03116 -5.969138,4.13048 -27.403727,7.08083 -42.597869,18.58716 -13.868799,10.50267 -16.550755,17.40703 -21.434589,30.38854 -4.8838341,12.98151 8.411044,24.48786 8.411044,24.48786 0,0 13.294876,10.91626 21.434588,15.04673 8.139712,4.13048 25.775783,9.4411 37.171384,9.4411 11.395601,0 37.442703,1.18014 54.807413,-11.80137 17.36474,-12.98151 14.38018,-11.80138 16.00813,-23.60274 1.77274,-12.85115 -5.42648,-25.37295 -13.02356,-33.04385 -7.59707,-7.67089 -19.26397,-15.63682 -24.41913,-18.29213 -2.94248,-1.51559 -19.264015,-7.08082 -24.419158,-11.2113 -4.027677,-3.22709 -8.139723,-10.03116 -8.139723,-10.03116 z"
       id="path43-0"
       sodipodi:nodetypes="cssscsssssssc" />
  </g>
  <g
     inkscape:groupmode="layer"
     id="layer2"
     inkscape:label="chestnut" />
</svg>
