<?xml version="1.0" encoding="UTF-8" standalone="no"?>
<svg
   xmlns:dc="http://purl.org/dc/elements/1.1/"
   xmlns:cc="http://creativecommons.org/ns#"
   xmlns:rdf="http://www.w3.org/1999/02/22-rdf-syntax-ns#"
   xmlns:svg="http://www.w3.org/2000/svg"
   xmlns="http://www.w3.org/2000/svg"
   xmlns:sodipodi="http://sodipodi.sourceforge.net/DTD/sodipodi-0.dtd"
   xmlns:inkscape="http://www.inkscape.org/namespaces/inkscape"
   width="1000"
   height="1000"
   viewBox="0 0 264.58333 264.58334"
   version="1.1"
   id="svg8"
   inkscape:version="1.0.1 (3bc2e813f5, 2020-09-07)"
   sodipodi:docname="new_trap.svg">
  <defs
     id="defs2" />
  <sodipodi:namedview
     id="base"
     pagecolor="#ffffff"
     bordercolor="#666666"
     borderopacity="1.0"
     inkscape:pageopacity="0.0"
     inkscape:pageshadow="2"
     inkscape:zoom="0.35"
     inkscape:cx="526.70771"
     inkscape:cy="608.57143"
     inkscape:document-units="mm"
     inkscape:current-layer="layer1"
     inkscape:document-rotation="0"
     showgrid="false"
     units="px"
     inkscape:window-width="1449"
     inkscape:window-height="1030"
     inkscape:window-x="619"
     inkscape:window-y="0"
     inkscape:window-maximized="0" />
  <metadata
     id="metadata5">
    <rdf:RDF>
      <cc:Work
         rdf:about="">
        <dc:format>image/svg+xml</dc:format>
        <dc:type
           rdf:resource="http://purl.org/dc/dcmitype/StillImage" />
        <dc:title />
      </cc:Work>
    </rdf:RDF>
  </metadata>
  <g
     inkscape:label="Layer 1"
     inkscape:groupmode="layer"
     id="layer1">
    <rect
       style="fill:#666666;stroke-width:0.378187"
       id="rect114"
       width="37.818733"
       height="258.24792"
       x="114.23364"
       y="-63.094048"
       transform="rotate(29.47503)" />
    <rect
       style="fill:#666666;stroke-width:0.37717"
       id="rect114-9"
       width="37.717094"
       height="257.55386"
       x="226.12503"
       y="-258.90622"
       transform="rotate(89.47503)" />
    <path
       sodipodi:type="star"
       style="fill:#999999;stroke-width:0.264583"
       id="path135"
       sodipodi:sides="3"
       sodipodi:cx="-62.744045"
       sodipodi:cy="-47.625"
       sodipodi:r1="25.129023"
       sodipodi:r2="32.183514"
       sodipodi:arg1="0.80667154"
       sodipodi:arg2="1.8538691"
       inkscape:flatsided="true"
       inkscape:rounded="0.105736"
       inkscape:randomized="0"
       d="m -45.35714,-29.482142 c -3.322685,3.18424 -40.696244,-7.687135 -41.792534,-12.156785 -1.09629,-4.46965 27.005376,-31.400414 31.424352,-30.115004 4.418975,1.28541 13.690868,39.087549 10.368182,42.271789 z"
       inkscape:transform-center-x="0.50608819"
       inkscape:transform-center-y="1.8742437"
       transform="matrix(-0.7439947,-0.7439947,0.52366867,-0.52366867,145.11073,-29.295658)" />
    <path
       sodipodi:type="star"
       style="fill:#999999;stroke-width:0.264583"
       id="path135-1"
       sodipodi:sides="3"
       sodipodi:cx="-62.744045"
       sodipodi:cy="-47.625"
       sodipodi:r1="25.129023"
       sodipodi:r2="32.183514"
       sodipodi:arg1="0.80667154"
       sodipodi:arg2="1.8538691"
       inkscape:flatsided="true"
       inkscape:rounded="0.105736"
       inkscape:randomized="0"
       d="m -45.35714,-29.482142 c -3.322685,3.18424 -40.696244,-7.687135 -41.792534,-12.156785 -1.09629,-4.46965 27.005376,-31.400414 31.424352,-30.115004 4.418975,1.28541 13.690868,39.087549 10.368182,42.271789 z"
       inkscape:transform-center-x="0.50608385"
       inkscape:transform-center-y="1.8742446"
       transform="matrix(-0.74399471,-0.7439947,0.52366867,-0.52366865,129.9325,-4.8687987)" />
    <path
       sodipodi:type="star"
       style="fill:#999999;stroke-width:0.264583"
       id="path135-4"
       sodipodi:sides="3"
       sodipodi:cx="-62.744045"
       sodipodi:cy="-47.625"
       sodipodi:r1="25.129023"
       sodipodi:r2="32.183514"
       sodipodi:arg1="0.80667154"
       sodipodi:arg2="1.8538691"
       inkscape:flatsided="true"
       inkscape:rounded="0.105736"
       inkscape:randomized="0"
       d="m -45.35714,-29.482142 c -3.322685,3.18424 -40.696244,-7.687135 -41.792534,-12.156785 -1.09629,-4.46965 27.005376,-31.400414 31.424352,-30.115004 4.418975,1.28541 13.690868,39.087549 10.368182,42.271789 z"
       inkscape:transform-center-x="0.50609242"
       inkscape:transform-center-y="1.8742449"
       transform="matrix(-0.74399471,-0.7439947,0.52366867,-0.52366865,114.68244,21.545087)" />
    <path
       sodipodi:type="star"
       style="fill:#999999;stroke-width:0.264583"
       id="path135-41"
       sodipodi:sides="3"
       sodipodi:cx="-62.744045"
       sodipodi:cy="-47.625"
       sodipodi:r1="25.129023"
       sodipodi:r2="32.183514"
       sodipodi:arg1="0.80667154"
       sodipodi:arg2="1.8538691"
       inkscape:flatsided="true"
       inkscape:rounded="0.105736"
       inkscape:randomized="0"
       d="m -45.35714,-29.482142 c -3.322685,3.18424 -40.696244,-7.687135 -41.792534,-12.156785 -1.09629,-4.46965 27.005376,-31.400414 31.424352,-30.115004 4.418975,1.28541 13.690868,39.087549 10.368182,42.271789 z"
       inkscape:transform-center-x="0.50608747"
       inkscape:transform-center-y="1.8742444"
       transform="matrix(-0.74399471,-0.7439947,0.52366867,-0.52366865,99.878913,49.625536)" />
    <path
       sodipodi:type="star"
       style="fill:#999999;stroke-width:0.264583"
       id="path135-7"
       sodipodi:sides="3"
       sodipodi:cx="-62.744045"
       sodipodi:cy="-47.625"
       sodipodi:r1="25.129023"
       sodipodi:r2="32.183514"
       sodipodi:arg1="0.80667154"
       sodipodi:arg2="1.8538691"
       inkscape:flatsided="true"
       inkscape:rounded="0.105736"
       inkscape:randomized="0"
       d="m -45.35714,-29.482142 c -3.322685,3.18424 -40.696244,-7.687135 -41.792534,-12.156785 -1.09629,-4.46965 27.005376,-31.400414 31.424352,-30.115004 4.418975,1.28541 13.690868,39.087549 10.368182,42.271789 z"
       inkscape:transform-center-x="0.50608349"
       inkscape:transform-center-y="1.8742447"
       transform="matrix(-0.74399471,-0.7439947,0.52366867,-0.52366865,85.015574,74.149589)" />
    <path
       sodipodi:type="star"
       style="fill:#999999;stroke-width:0.264583"
       id="path135-5"
       sodipodi:sides="3"
       sodipodi:cx="-62.744045"
       sodipodi:cy="-47.625"
       sodipodi:r1="25.129023"
       sodipodi:r2="32.183514"
       sodipodi:arg1="0.80667154"
       sodipodi:arg2="1.8538691"
       inkscape:flatsided="true"
       inkscape:rounded="0.105736"
       inkscape:randomized="0"
       d="m -45.35714,-29.482142 c -3.322685,3.18424 -40.696244,-7.687135 -41.792534,-12.156785 -1.09629,-4.46965 27.005376,-31.400414 31.424352,-30.115004 4.418975,1.28541 13.690868,39.087549 10.368182,42.271789 z"
       inkscape:transform-center-x="-4.4430896"
       inkscape:transform-center-y="-5.6132073"
       transform="matrix(-0.27232094,1.0163156,-0.71534468,-0.19167604,193.91296,267.77356)" />
    <path
       sodipodi:type="star"
       style="fill:#999999;stroke-width:0.264583"
       id="path135-5-8"
       sodipodi:sides="3"
       sodipodi:cx="-62.744045"
       sodipodi:cy="-47.625"
       sodipodi:r1="25.129023"
       sodipodi:r2="32.183514"
       sodipodi:arg1="0.80667154"
       sodipodi:arg2="1.8538691"
       inkscape:flatsided="true"
       inkscape:rounded="0.105736"
       inkscape:randomized="0"
       d="m -45.35714,-29.482142 c -3.322685,3.18424 -40.696244,-7.687135 -41.792534,-12.156785 -1.09629,-4.46965 27.005376,-31.400414 31.424352,-30.115004 4.418975,1.28541 13.690868,39.087549 10.368182,42.271789 z"
       inkscape:transform-center-x="-4.4430859"
       inkscape:transform-center-y="-5.6132012"
       transform="matrix(-0.27232094,1.0163156,-0.71534467,-0.19167604,166.84643,266.32925)" />
    <path
       sodipodi:type="star"
       style="fill:#999999;stroke-width:0.264583"
       id="path135-5-3"
       sodipodi:sides="3"
       sodipodi:cx="-62.744045"
       sodipodi:cy="-47.625"
       sodipodi:r1="25.129023"
       sodipodi:r2="32.183514"
       sodipodi:arg1="0.80667154"
       sodipodi:arg2="1.8538691"
       inkscape:flatsided="true"
       inkscape:rounded="0.105736"
       inkscape:randomized="0"
       d="m -45.35714,-29.482142 c -3.322685,3.18424 -40.696244,-7.687135 -41.792534,-12.156785 -1.09629,-4.46965 27.005376,-31.400414 31.424352,-30.115004 4.418975,1.28541 13.690868,39.087549 10.368182,42.271789 z"
       inkscape:transform-center-x="-4.4430835"
       inkscape:transform-center-y="-5.6132038"
       transform="matrix(-0.27232094,1.0163156,-0.71534467,-0.19167604,140.96621,268.05459)" />
    <path
       sodipodi:type="star"
       style="fill:#999999;stroke-width:0.264583"
       id="path135-5-9"
       sodipodi:sides="3"
       sodipodi:cx="-62.744045"
       sodipodi:cy="-47.625"
       sodipodi:r1="25.129023"
       sodipodi:r2="32.183514"
       sodipodi:arg1="0.80667154"
       sodipodi:arg2="1.8538691"
       inkscape:flatsided="true"
       inkscape:rounded="0.105736"
       inkscape:randomized="0"
       d="m -45.35714,-29.482142 c -3.322685,3.18424 -40.696244,-7.687135 -41.792534,-12.156785 -1.09629,-4.46965 27.005376,-31.400414 31.424352,-30.115004 4.418975,1.28541 13.690868,39.087549 10.368182,42.271789 z"
       inkscape:transform-center-x="-4.4430752"
       inkscape:transform-center-y="-5.6132011"
       transform="matrix(-0.27232094,1.0163156,-0.71534467,-0.19167604,113.36063,267.19191)" />
    <path
       sodipodi:type="star"
       style="fill:#999999;stroke-width:0.264583"
       id="path135-5-85"
       sodipodi:sides="3"
       sodipodi:cx="-62.744045"
       sodipodi:cy="-47.625"
       sodipodi:r1="25.129023"
       sodipodi:r2="32.183514"
       sodipodi:arg1="0.80667154"
       sodipodi:arg2="1.8538691"
       inkscape:flatsided="true"
       inkscape:rounded="0.105736"
       inkscape:randomized="0"
       d="m -45.35714,-29.482142 c -3.322685,3.18424 -40.696244,-7.687135 -41.792534,-12.156785 -1.09629,-4.46965 27.005376,-31.400414 31.424352,-30.115004 4.418975,1.28541 13.690868,39.087549 10.368182,42.271789 z"
       inkscape:transform-center-x="-4.443081"
       inkscape:transform-center-y="-5.6132051"
       transform="matrix(-0.27232094,1.0163156,-0.71534467,-0.19167604,84.029714,268.91726)" />
    <path
       sodipodi:type="star"
       style="fill:#999999;stroke-width:0.264583"
       id="path135-7-2"
       sodipodi:sides="3"
       sodipodi:cx="-62.744045"
       sodipodi:cy="-47.625"
       sodipodi:r1="25.129023"
       sodipodi:r2="32.183514"
       sodipodi:arg1="0.80667154"
       sodipodi:arg2="1.8538691"
       inkscape:flatsided="true"
       inkscape:rounded="0.105736"
       inkscape:randomized="0"
       d="m -45.35714,-29.482142 c -3.322685,3.18424 -40.696244,-7.687135 -41.792534,-12.156785 -1.09629,-4.46965 27.005376,-31.400414 31.424352,-30.115004 4.418975,1.28541 13.690868,39.087549 10.368182,42.271789 z"
       inkscape:transform-center-x="0.50608432"
       inkscape:transform-center-y="1.8742486"
       transform="matrix(-0.74399471,-0.74399471,0.52366868,-0.52366865,70.224823,98.00471)" />
    <path
       sodipodi:type="star"
       style="fill:#999999;stroke-width:0.264583"
       id="path135-5-85-1"
       sodipodi:sides="3"
       sodipodi:cx="-62.744045"
       sodipodi:cy="-47.625"
       sodipodi:r1="25.129023"
       sodipodi:r2="32.183514"
       sodipodi:arg1="0.80667154"
       sodipodi:arg2="1.8538691"
       inkscape:flatsided="true"
       inkscape:rounded="0.105736"
       inkscape:randomized="0"
       d="m -45.35714,-29.482142 c -3.322685,3.18424 -40.696244,-7.687135 -41.792534,-12.156785 -1.09629,-4.46965 27.005376,-31.400414 31.424352,-30.115004 4.418975,1.28541 13.690868,39.087549 10.368182,42.271789 z"
       inkscape:transform-center-x="-4.4430816"
       inkscape:transform-center-y="-5.6132024"
       transform="matrix(-0.27232094,1.0163156,-0.71534467,-0.19167604,53.836128,268.05458)" />
    <circle
       style="fill:#333333;stroke-width:0.301936"
       id="path245"
       cx="26.259506"
       cy="240.50531"
       r="20.704174" />
  </g>
</svg>
