<?xml version="1.0" encoding="UTF-8" standalone="no"?>
<svg
   xmlns:dc="http://purl.org/dc/elements/1.1/"
   xmlns:cc="http://creativecommons.org/ns#"
   xmlns:rdf="http://www.w3.org/1999/02/22-rdf-syntax-ns#"
   xmlns:svg="http://www.w3.org/2000/svg"
   xmlns="http://www.w3.org/2000/svg"
   xmlns:sodipodi="http://sodipodi.sourceforge.net/DTD/sodipodi-0.dtd"
   xmlns:inkscape="http://www.inkscape.org/namespaces/inkscape"
   width="1000"
   height="1000"
   viewBox="0 0 264.58333 264.58334"
   version="1.1"
   id="svg8"
   inkscape:version="1.0.1 (3bc2e813f5, 2020-09-07)"
   sodipodi:docname="driftwood.svg">
  <defs
     id="defs2">
    <clipPath
       clipPathUnits="userSpaceOnUse"
       id="clipEmfPath1">
      <path
         d="M 38.376741,19.508177 L 193.80254,19.508177 L 193.80254,309.73228 L 38.376741,309.73228 z"
         id="path67" />
    </clipPath>
    <pattern
       id="EMFhbasepattern"
       patternUnits="userSpaceOnUse"
       width="6"
       height="6"
       x="0"
       y="0" />
  </defs>
  <sodipodi:namedview
     id="base"
     pagecolor="#ffffff"
     bordercolor="#666666"
     borderopacity="1.0"
     inkscape:pageopacity="0.0"
     inkscape:pageshadow="2"
     inkscape:zoom="0.49497475"
     inkscape:cx="1007.724"
     inkscape:cy="461.41982"
     inkscape:document-units="mm"
     inkscape:current-layer="layer1"
     inkscape:document-rotation="0"
     showgrid="false"
     units="px"
     inkscape:window-width="1920"
     inkscape:window-height="1001"
     inkscape:window-x="-9"
     inkscape:window-y="-9"
     inkscape:window-maximized="1" />
  <metadata
     id="metadata5">
    <rdf:RDF>
      <cc:Work
         rdf:about="">
        <dc:format>image/svg+xml</dc:format>
        <dc:type
           rdf:resource="http://purl.org/dc/dcmitype/StillImage" />
        <dc:title></dc:title>
      </cc:Work>
    </rdf:RDF>
  </metadata>
  <g
     inkscape:label="Layer 1"
     inkscape:groupmode="layer"
     id="layer1">
    <rect
       style="fill:#d5f6ff;fill-rule:evenodd;stroke-width:0.262336"
       id="rect10"
       width="264.58334"
       height="264.58334"
       x="384.64673"
       y="-5.1239772" />
    <path
       style="fill:#666666;fill-opacity:1;fill-rule:evenodd;stroke:#333333"
       clip-path="url(#clipEmfPath1)"
       d="m 109.49364,78.052695 c 10.8934,11.552999 19.23834,20.067838 29.38219,32.350395 l 20.01787,25.42459 c 4.59721,11.04331 10.09388,21.59691 13.78165,33.13992 0.76953,2.36856 -0.97941,5.97637 -0.44973,8.47486 3.21805,15.1708 15.78044,42.72411 20.44761,53.9473 -24.50515,0.02 -16.30012,1.76893 -28.06299,-2.28861 -3.55785,0 -6.26621,-3.14809 -10.68353,0.01 -2.48849,1.76893 -5.97638,15.70049 -5.80648,17.72926 0.41975,5.18686 2.37856,9.60418 3.10812,14.64113 0.44972,3.18806 -0.0999,6.87583 0.42974,10.02392 0.94942,5.59661 2.66838,10.79346 3.99757,16.19019 l -2.67837,13.87159 -1.34919,6.94579 c -2.51847,-1.28922 -6.34615,-1.73894 -7.56541,-3.84767 -15.42065,-26.7238 -29.19231,-54.39703 -42.25439,-82.45003 -1.77892,-3.81768 -0.37977,-9.33434 -2.218657,-13.11205 C 82.150212,173.30497 62.522108,138.72592 43.993337,103.54724 42.654149,98.150515 36.977589,94.642641 39.99576,87.357056 c 1.049364,-2.548455 8.724712,-3.947607 12.922169,-5.406723 4.787098,-1.658994 9.204421,-2.578437 13.811629,-3.867656 13.23198,-22.866142 10.913386,-13.781647 10.273773,-28.522713 1.18928,-4.117505 2.978195,-8.474864 3.567838,-12.34252 0.909449,-5.916414 0.909449,-16.959721 0.909449,-16.959721 37.477282,4.956995 10.253785,-0.75954 28.013022,57.794972 z"
       id="path73"
       transform="matrix(0.82861582,0,0,0.82861582,32.581227,-3.7480488)" />
    <path
       style="fill:none;stroke:#7f7f7f;stroke-width:1.32919px;stroke-linecap:butt;stroke-linejoin:miter;stroke-miterlimit:8;stroke-dasharray:none;stroke-opacity:1"
       clip-path="url(#clipEmfPath1)"
       d="m 109.49364,78.052695 c 10.8934,11.552999 19.23834,20.067838 29.38219,32.350395 l 20.01787,25.42459 c 4.59721,11.04331 10.09388,21.59691 13.78165,33.13992 0.76953,2.36856 -0.97941,5.97637 -0.44973,8.47486 3.21805,15.1708 15.78044,42.72411 20.44761,53.9473 -24.50515,0.02 -16.30012,1.76893 -28.06299,-2.28861 -3.55785,0 -6.26621,-3.14809 -10.68353,0.01 -2.48849,1.76893 -5.97638,15.70049 -5.80648,17.72926 0.41975,5.18686 2.37856,9.60418 3.10812,14.64113 0.44972,3.18806 -0.0999,6.87583 0.42974,10.02392 0.94942,5.59661 2.66838,10.79346 3.99757,16.19019 l -2.67837,13.87159 -1.34919,6.94579 c -2.51847,-1.28922 -6.34615,-1.73894 -7.56541,-3.84767 -15.42065,-26.7238 -29.19231,-54.39703 -42.25439,-82.45003 -1.77892,-3.81768 -0.37977,-9.33434 -2.218657,-13.11205 C 82.150212,173.30497 62.522108,138.72592 43.993337,103.54724 42.654149,98.150515 36.977589,94.642641 39.99576,87.357056 c 1.049364,-2.548455 8.724712,-3.947607 12.922169,-5.406723 4.787098,-1.658994 9.204421,-2.578437 13.811629,-3.867656 13.23198,-22.866142 10.913386,-13.781647 10.273773,-28.522713 1.18928,-4.117505 2.978195,-8.474864 3.567838,-12.34252 0.909449,-5.916414 0.909449,-16.959721 0.909449,-16.959721 37.477282,4.956995 10.253785,-0.75954 28.013022,57.794972 z"
       id="path75"
       transform="matrix(0.82861582,0,0,0.82861582,32.581227,-3.7480488)" />
  </g>
  <g
     inkscape:groupmode="layer"
     id="layer2"
     inkscape:label="chestnut" />
</svg>
