<?xml version="1.0" encoding="utf-8"?>
<!-- Generator: Adobe Illustrator 16.0.0, SVG Export Plug-In . SVG Version: 6.00 Build 0)  -->
<!DOCTYPE svg PUBLIC "-//W3C//DTD SVG 1.1//EN" "http://www.w3.org/Graphics/SVG/1.1/DTD/svg11.dtd">
<svg version="1.1" xmlns="http://www.w3.org/2000/svg" xmlns:xlink="http://www.w3.org/1999/xlink" x="0px" y="0px" width="395px"
	 height="279.352px" viewBox="0 0 395 279.352" enable-background="new 0 0 395 279.352" xml:space="preserve">
<g id="圖層_2" display="none">
</g>
<g id="圖層_1" display="none">
</g>
<g id="圖層_4" display="none">
</g>
<g id="圖層_5">
	<g id="XMLID_12_">
		<g>
			<path fill="#EC6865" d="M369.299,162.508c3.088,2.717-1.179,7.52-3.088,9.211c-12.54,10.084-33.242,11.722-48.401,17.31
				c-9.986,3.732-20.605,6.111-30.907,9.102c4.621-3.118,8.797-7.26,12.319-12.534c3.358-5.066,5.542-11.058,6.666-17.431
				c12.354-1.059,29.274-3.027,43.091-4.358C351.881,163.622,366.909,160.195,369.299,162.508z"/>
			<path fill="#EC6865" d="M222.141,119.637c6.709-3.468,14.751-6.618,23.31-8.875c5.298-1.407,10.792-2.477,16.293-3.076
				c3.733-0.41,7.468-0.603,11.144-0.54c23.781,0.421,37.757,34.154,32.999,61.02c-1.124,6.373-3.308,12.364-6.666,17.431
				c-3.522,5.274-7.698,9.416-12.319,12.534c0,0,0,0-0.007,0c-0.679,0.465-1.37,0.9-2.067,1.313
				c-28.176,16.757-70.76-1.8-82.685-30.146c-4.795-11.409-4.623-24.404,3.455-37.325c1.33-1.792,3.266-3.67,5.693-5.554l0.007,0
				C214.25,124.118,217.932,121.818,222.141,119.637z"/>
			<path fill="#EC6865" d="M261.739,107.657l0.005,0.029c-5.501,0.599-10.996,1.669-16.293,3.076l-0.059-0.221
				c-35.333-30.602-68.02-88.313-37.86-97.966C231.595,4.88,234.917,61.622,261.739,107.657z"/>
			<path fill="#EC6865" d="M222.141,119.637c-4.209,2.181-7.892,4.481-10.843,6.782l-0.007,0
				c-17.126-3.944-95.623-61.329-74.058-83.156C161.846,18.735,211.214,108.825,222.141,119.637z"/>
			<path fill="#EC6865" d="M154.426,242.749c-5.402-0.328-10.782-1.015-16.207-0.982c-5.063,0.055-4.005,0.48-7.737,2.423
				c-10.073,5.173-22.493,7.313-33.766,8.437c-9.473,1.233-19.644,2.063-29.434,2.554c-7.268,0.644-18.291,3.591-25.406,1.714
				c-8.873-2.707-2.608-10.641,3.71-13.511c19.338-8.95,41.012-8.721,58.79-21.741c0.696-0.507,1.357-1.046,1.991-1.6
				c6.972-6.142,10.855-15.102,17.056-22.354l0.007,0c0.179-0.206,0.358-0.419,0.544-0.625c2.742-0.521,5.27-1.784,6.893-4.592
				c0.355-0.615,0.631-1.234,0.82-1.852c11.339-7.337,26.447-10.651,39.041-14.118c9.56-2.674,20.648-6.701,30.798-7.17l0.616-0.035
				c11.925,28.346,54.509,46.902,82.685,30.146c-1.026,4.999,9.846,13.487,12.891,16.924c6.45,6.897,14.067,12.419,20.899,18.978
				c4.42,4.605,24.545,18.476,14.745,25.111c-9.036,5.959-30.602-7.999-37.903-12.779c-8-5.184-19.524-17.81-29.401-15.878
				c-2.543,0.208-3.983,0.12-6.57,1.048c-2.564,0.568-6.297,2.51-9.222,3.056c-8.076,2.041-15.792,4.104-24.206,5.763
				C202.325,245.65,178.195,244.188,154.426,242.749z"/>
			<path fill="#EC6865" d="M119.418,174.783c6.786,1.235,14.525,8.688,12.27,15.838c-2.234,1.44-4.312,3.042-6.206,4.829
				c-0.523,0.525-1.026,1.065-1.507,1.615c-1.419,0.269-2.891,0.345-4.322,0.331c-0.007,0-0.014-0.001-0.021-0.001
				c-2.646-0.247-5.322-0.583-8.008-0.991c-5.721-2.226-10.654-8.858-9.305-14.899C103.554,175.911,113.814,173.851,119.418,174.783
				z"/>
			<path fill="#EC6865" d="M131.688,190.621c-0.189,0.618-0.465,1.237-0.82,1.852c-1.624,2.808-4.151,4.072-6.893,4.592
				c0.481-0.549,0.984-1.09,1.507-1.615C127.376,193.664,129.454,192.062,131.688,190.621z"/>
			<path fill="#EC6865" d="M119.653,197.396c1.265,0.12,2.517,0.218,3.771,0.293c-6.201,7.251-10.084,16.212-17.056,22.354
				l-0.007-0.008c-16.142-13.991-40.389-14.816-56.618-27.366c-2.412-1.954-6.919-5.118-4.518-8.949
				c2.401-3.831,13.009,0.065,16.566,1.003c15.821,3.879,33.134,9.15,49.833,11.68c1.235,0.494,2.505,0.767,3.754,0.792
				c1.311,0.08,2.765,0.189,4.253,0.2C119.639,197.395,119.646,197.396,119.653,197.396z"/>
		</g>
		<g>
			<path fill="none" stroke="#FFFFFF" stroke-width="5" stroke-miterlimit="10" d="M286.895,198.13
				c-0.679,0.465-1.37,0.9-2.067,1.313c-28.176,16.757-70.76-1.8-82.685-30.146c-4.795-11.409-4.623-24.404,3.455-37.325"/>
			<path fill="none" stroke="#FFFFFF" stroke-width="5" stroke-miterlimit="10" d="M211.298,126.419
				c2.951-2.301,6.633-4.601,10.843-6.782c6.709-3.468,14.751-6.618,23.31-8.875c5.298-1.407,10.792-2.477,16.293-3.076
				c3.733-0.41,7.468-0.603,11.144-0.54c23.781,0.421,37.757,34.154,32.999,61.02c-1.124,6.373-3.308,12.364-6.666,17.431
				c-3.522,5.274-7.698,9.416-12.319,12.534"/>
			<path fill="none" stroke="#FFFFFF" stroke-width="5" stroke-miterlimit="10" d="M205.598,131.973
				c1.33-1.792,3.266-3.67,5.693-5.554"/>
			<path fill="none" stroke="#FFFFFF" stroke-width="5" stroke-miterlimit="10" d="M245.392,110.541
				c-35.333-30.602-68.02-88.313-37.86-97.966c24.063-7.694,27.384,49.047,54.207,95.082"/>
			<path fill="none" stroke="#FFFFFF" stroke-width="5" stroke-miterlimit="10" d="M211.298,126.419l-0.007,0
				c-17.126-3.944-95.623-61.329-74.058-83.156c24.613-24.527,73.981,65.563,84.908,76.375l0.006,0.008"/>
			<path fill="none" stroke="#FFFFFF" stroke-width="5" stroke-miterlimit="10" d="M123.431,197.69
				c0.179-0.206,0.358-0.419,0.544-0.625c0.481-0.549,0.984-1.09,1.507-1.615c1.894-1.787,3.972-3.389,6.206-4.829
				c11.339-7.337,26.447-10.651,39.041-14.118c9.56-2.674,20.648-6.701,30.798-7.17"/>
			<path fill="none" stroke="#FFFFFF" stroke-width="5" stroke-miterlimit="10" d="M284.828,199.443
				c-1.026,4.999,9.846,13.487,12.891,16.924c6.45,6.897,14.067,12.419,20.899,18.978c4.42,4.605,24.545,18.476,14.745,25.111
				c-9.036,5.959-30.602-7.999-37.903-12.779c-8-5.184-19.524-17.81-29.401-15.878c-2.543,0.208-3.983,0.12-6.57,1.048
				c-2.564,0.568-6.297,2.51-9.222,3.056c-8.076,2.041-15.792,4.104-24.206,5.763c-23.736,3.984-47.866,2.522-71.636,1.082
				c-5.402-0.328-10.782-1.015-16.207-0.982c-5.063,0.055-4.005,0.48-7.737,2.423c-10.073,5.173-22.493,7.313-33.766,8.437
				c-9.473,1.233-19.644,2.063-29.434,2.554c-7.268,0.644-18.291,3.591-25.406,1.714c-8.873-2.707-2.608-10.641,3.71-13.511
				c19.338-8.95,41.012-8.721,58.79-21.741c0.696-0.507,1.357-1.046,1.991-1.6c6.972-6.142,10.855-15.102,17.056-22.354"/>
			<path fill="none" stroke="#FFFFFF" stroke-width="5" stroke-miterlimit="10" d="M119.632,197.395
				c-2.646-0.247-5.322-0.583-8.008-0.991c-16.698-2.53-34.011-7.8-49.833-11.68c-3.558-0.938-14.166-4.834-16.566-1.003
				c-2.401,3.831,2.106,6.995,4.518,8.949c16.229,12.55,40.476,13.375,56.618,27.366"/>
			<path fill="none" stroke="#FFFFFF" stroke-width="5" stroke-miterlimit="10" d="M123.431,197.69l-0.007,0
				c-1.253-0.076-2.505-0.173-3.771-0.293"/>
			<path fill="none" stroke="#FFFFFF" stroke-width="5" stroke-miterlimit="10" d="M115.378,197.195
				c-1.249-0.025-2.519-0.297-3.754-0.792c-5.721-2.226-10.654-8.858-9.305-14.899c1.235-5.593,11.496-7.653,17.1-6.721
				c6.786,1.235,14.525,8.688,12.27,15.838c-0.189,0.618-0.465,1.237-0.82,1.852c-1.624,2.808-4.151,4.072-6.893,4.592
				c-1.419,0.269-2.891,0.345-4.322,0.331c-0.007,0-0.014-0.001-0.021-0.001C118.143,197.384,116.689,197.274,115.378,197.195"/>
			<path fill="none" stroke="#FFFFFF" stroke-width="5" stroke-miterlimit="10" d="M305.887,168.166
				c12.354-1.059,29.274-3.027,43.091-4.358c2.903-0.186,17.931-3.613,20.321-1.299c3.088,2.717-1.179,7.52-3.088,9.211
				c-12.54,10.084-33.242,11.722-48.401,17.31c-9.986,3.732-20.605,6.111-30.907,9.102c0,0,0,0-0.007,0"/>
		</g>
	</g>
</g>
</svg>
