<?xml version="1.0" encoding="utf-8"?>
<!-- Generator: Adobe Illustrator 16.0.0, SVG Export Plug-In . SVG Version: 6.00 Build 0)  -->
<!DOCTYPE svg PUBLIC "-//W3C//DTD SVG 1.1//EN" "http://www.w3.org/Graphics/SVG/1.1/DTD/svg11.dtd">
<svg version="1.1" xmlns="http://www.w3.org/2000/svg" xmlns:xlink="http://www.w3.org/1999/xlink" x="0px" y="0px"
	 width="366.34px" height="203px" viewBox="0 0 366.34 203" enable-background="new 0 0 366.34 203" xml:space="preserve">
<g id="圖層_2">
</g>
<g id="圖層_1">
</g>
<g id="圖層_4">
</g>
<g id="圖層_5">
	<g id="XMLID_6_">
		<g>
			<path fill="#22AC38" d="M287.664,86.003c11.157-14.143,13.243-16.912,31.007-15.334c15.553,1.38,24.707,5.468,22.333,26.665
				c-4.006,35.662-33.127,56.403-85.133,46.124c-3.797-9.066-7.823-17.598-12.198-25.516l0.009-0.009
				C263.36,107.601,274.618,103.705,287.664,86.003z"/>
			<path fill="#22AC38" d="M255.871,143.458c41.584,19.035-8.226,58.678-21.411,7.919
				C241.756,149.239,248.901,146.63,255.871,143.458z"/>
			<path fill="#22AC38" d="M234.46,151.376c-3.548,1.031-7.13,1.961-10.735,2.774c-8.58,1.962-17.326,3.334-26.196,4.252
				c-26.141,2.731-53.313,1.555-80.155-0.173c-7.952-0.51-15.876-1.063-23.729-1.58c-4.417-0.297-8.806-0.576-13.17-0.826
				c-6.568-0.376-13.065-0.697-19.484-0.89c-1.206-0.047-2.413-0.077-3.61-0.106l0.044-1.801c0.745-3.559,1.57-7.088,2.457-10.589
				c1.604-6.313,3.459-12.511,5.605-18.495c12.823-35.861,35.987-64.28,78.954-66.096c49.3-1.778,78.192,21.902,99.235,60.095
				c4.375,7.918,8.401,16.45,12.198,25.516C248.901,146.63,241.756,149.239,234.46,151.376z"/>
			<path fill="#22AC38" d="M223.724,154.16c-0.335,13.732,9.861,28.964-4.589,30.413c-16.296,3.206-27.361-11.894-21.606-26.169
				c8.87-0.918,17.616-2.291,26.196-4.252L223.724,154.16z"/>
			<path fill="#22AC38" d="M117.373,158.23c-2.273,43.66-46.632,27.557-23.729-1.58C101.497,157.167,109.421,157.721,117.373,158.23
				z"/>
			<path fill="#22AC38" d="M60.989,154.935c6.419,0.193,12.917,0.514,19.484,0.89c-8.787,64.656-59.591,18.087-19.488-0.755
				L60.989,154.935z"/>
			<path fill="#22AC38" d="M65.485,123.943c-2.146,5.984-4,12.183-5.605,18.495c-12.518-3.91-39.704-13.745-32.104-29.777
				C38.493,116.526,52.923,121.834,65.485,123.943z"/>
		</g>
		<g>
			<path fill="none" stroke="#FFFFFF" stroke-width="5" stroke-miterlimit="10" d="M57.423,153.027
				c0.745-3.559,1.57-7.088,2.457-10.589c1.604-6.313,3.459-12.511,5.605-18.495c12.823-35.861,35.987-64.28,78.954-66.096
				c49.3-1.778,78.192,21.902,99.235,60.095c4.375,7.918,8.401,16.45,12.198,25.516"/>
			<path fill="none" stroke="#FFFFFF" stroke-width="5" stroke-miterlimit="10" d="M57.379,154.828
				c1.198,0.029,2.404,0.059,3.61,0.106c6.419,0.193,12.917,0.514,19.484,0.89c4.364,0.25,8.753,0.529,13.17,0.826
				c7.853,0.516,15.777,1.07,23.729,1.58c26.843,1.728,54.015,2.904,80.155,0.173c8.87-0.918,17.616-2.291,26.196-4.252
				c3.605-0.813,7.188-1.744,10.735-2.774c7.296-2.137,14.441-4.747,21.411-7.919"/>
			<path fill="none" stroke="#FFFFFF" stroke-width="5" stroke-miterlimit="10" d="M243.683,117.933
				c19.677-10.332,30.936-14.228,43.981-31.929c11.157-14.143,13.243-16.912,31.007-15.334c15.553,1.38,24.707,5.468,22.333,26.665
				c-4.006,35.662-33.127,56.403-85.133,46.124"/>
			<path fill="none" stroke="#FFFFFF" stroke-width="5" stroke-miterlimit="10" d="M255.871,143.458
				c41.584,19.035-8.226,58.678-21.411,7.919v-0.009"/>
			<path fill="none" stroke="#FFFFFF" stroke-width="5" stroke-miterlimit="10" d="M223.724,154.16
				c-0.335,13.732,9.861,28.964-4.589,30.413c-16.296,3.206-27.361-11.894-21.606-26.169"/>
			<path fill="none" stroke="#FFFFFF" stroke-width="5" stroke-miterlimit="10" d="M93.644,156.651
				c-22.902,29.137,21.456,45.239,23.729,1.58"/>
			<path fill="none" stroke="#FFFFFF" stroke-width="5" stroke-miterlimit="10" d="M60.986,155.07
				c-40.103,18.842,10.701,65.411,19.488,0.755"/>
			<path fill="none" stroke="#FFFFFF" stroke-width="5" stroke-miterlimit="10" d="M65.485,123.943
				c-12.562-2.109-26.992-7.417-37.709-11.282c-7.599,16.032,19.586,25.868,32.104,29.777"/>
		</g>
	</g>
</g>
</svg>
