<?xml version="1.0" encoding="utf-8"?>
<!-- Generator: Adobe Illustrator 16.0.0, SVG Export Plug-In . SVG Version: 6.00 Build 0)  -->
<!DOCTYPE svg PUBLIC "-//W3C//DTD SVG 1.1//EN" "http://www.w3.org/Graphics/SVG/1.1/DTD/svg11.dtd">
<svg version="1.1" xmlns="http://www.w3.org/2000/svg" xmlns:xlink="http://www.w3.org/1999/xlink" x="0px" y="0px" width="415px"
	 height="181.457px" viewBox="0 0 415 181.457" enable-background="new 0 0 415 181.457" xml:space="preserve">
<g id="圖層_3" display="none">
	<g display="inline">
		<path fill="#B28247" d="M1861,562c-4-1-9,0-13,2c-6,23-5,36-8,48c-5,22-13,23-33,31c-21,9-50.641,10.352-59,28c-9,19-11,36-23,56
			c4,1,20,5,23,3c5-3,9-23,13-29c13-25,24.313-29.479,54-35c25.783-4.796,27.408-5.729,37,20c6.405,17.183,7,35.678,18,49.678
			c6-3,18-7.678,19-13.678C1856.245,676.265,1853,607,1861,562"/>
	</g>
</g>
<g id="圖層_1" display="none">
	<g display="inline">
		<g>
			<defs>
				<polygon id="SVGID_1_" points="211.433,1814.801 2348.568,1814.801 2348.568,105.2 211.433,105.2 211.433,1814.801 				"/>
			</defs>
			<clipPath id="SVGID_2_">
				<use xlink:href="#SVGID_1_"  overflow="visible"/>
			</clipPath>
			
				<line clip-path="url(#SVGID_2_)" fill="none" stroke="#000000" stroke-width="10" stroke-linejoin="round" stroke-miterlimit="10" x1="427.618" y1="106.626" x2="427.618" y2="1810.18"/>
			
				<line clip-path="url(#SVGID_2_)" fill="none" stroke="#000000" stroke-width="10" stroke-linejoin="round" stroke-miterlimit="10" x1="640.27" y1="106.626" x2="640.27" y2="1810.18"/>
			
				<line clip-path="url(#SVGID_2_)" fill="none" stroke="#000000" stroke-width="10" stroke-linejoin="round" stroke-miterlimit="10" x1="852.921" y1="106.626" x2="852.921" y2="1810.18"/>
			
				<line clip-path="url(#SVGID_2_)" fill="none" stroke="#000000" stroke-width="10" stroke-linejoin="round" stroke-miterlimit="10" x1="1065.573" y1="106.626" x2="1065.573" y2="1810.18"/>
			
				<line clip-path="url(#SVGID_2_)" fill="none" stroke="#000000" stroke-width="10" stroke-linejoin="round" stroke-miterlimit="10" x1="1278.228" y1="106.626" x2="1278.228" y2="1810.18"/>
			
				<line clip-path="url(#SVGID_2_)" fill="none" stroke="#000000" stroke-width="10" stroke-linejoin="round" stroke-miterlimit="10" x1="1490.876" y1="106.626" x2="1490.876" y2="1810.18"/>
			
				<line clip-path="url(#SVGID_2_)" fill="none" stroke="#000000" stroke-width="10" stroke-linejoin="round" stroke-miterlimit="10" x1="1703.528" y1="106.626" x2="1703.528" y2="1810.18"/>
			
				<line clip-path="url(#SVGID_2_)" fill="none" stroke="#000000" stroke-width="10" stroke-linejoin="round" stroke-miterlimit="10" x1="1916.18" y1="106.626" x2="1916.18" y2="1810.18"/>
			
				<line clip-path="url(#SVGID_2_)" fill="none" stroke="#000000" stroke-width="10" stroke-linejoin="round" stroke-miterlimit="10" x1="2128.833" y1="106.626" x2="2128.833" y2="1810.18"/>
			
				<line clip-path="url(#SVGID_2_)" fill="none" stroke="#000000" stroke-width="10" stroke-linejoin="round" stroke-miterlimit="10" x1="211.591" y1="322.097" x2="2344.861" y2="322.097"/>
			
				<line clip-path="url(#SVGID_2_)" fill="none" stroke="#000000" stroke-width="10" stroke-linejoin="round" stroke-miterlimit="10" x1="211.591" y1="534.199" x2="2344.861" y2="534.199"/>
			
				<line clip-path="url(#SVGID_2_)" fill="none" stroke="#000000" stroke-width="10" stroke-linejoin="round" stroke-miterlimit="10" x1="211.591" y1="746.302" x2="2344.861" y2="746.302"/>
			
				<line clip-path="url(#SVGID_2_)" fill="none" stroke="#000000" stroke-width="10" stroke-linejoin="round" stroke-miterlimit="10" x1="211.591" y1="958.404" x2="2344.861" y2="958.404"/>
			
				<line clip-path="url(#SVGID_2_)" fill="none" stroke="#000000" stroke-width="10" stroke-linejoin="round" stroke-miterlimit="10" x1="211.591" y1="1170.504" x2="2344.861" y2="1170.504"/>
			
				<line clip-path="url(#SVGID_2_)" fill="none" stroke="#000000" stroke-width="10" stroke-linejoin="round" stroke-miterlimit="10" x1="211.591" y1="1382.607" x2="2344.861" y2="1382.607"/>
			
				<line clip-path="url(#SVGID_2_)" fill="none" stroke="#000000" stroke-width="10" stroke-linejoin="round" stroke-miterlimit="10" x1="211.591" y1="1594.709" x2="2344.861" y2="1594.709"/>
			
				<line clip-path="url(#SVGID_2_)" fill="none" stroke="#000000" stroke-width="10" stroke-linejoin="round" stroke-miterlimit="10" x1="214.967" y1="106.626" x2="214.967" y2="1810.18"/>
			
				<line clip-path="url(#SVGID_2_)" fill="none" stroke="#000000" stroke-width="10" stroke-linejoin="round" stroke-miterlimit="10" x1="2341.485" y1="106.626" x2="2341.485" y2="1810.18"/>
			
				<line clip-path="url(#SVGID_2_)" fill="none" stroke="#000000" stroke-width="10" stroke-linejoin="round" stroke-miterlimit="10" x1="211.591" y1="109.994" x2="2344.861" y2="109.994"/>
			
				<line clip-path="url(#SVGID_2_)" fill="none" stroke="#000000" stroke-width="10" stroke-linejoin="round" stroke-miterlimit="10" x1="211.591" y1="1806.811" x2="2344.861" y2="1806.811"/>
			
				<use xlink:href="#SVGID_1_"  overflow="visible" fill-rule="evenodd" clip-rule="evenodd" fill="none" stroke="#000000" stroke-width="10" stroke-miterlimit="10"/>
		</g>
	</g>
</g>
<g id="圖層_2" display="none">
	<g display="inline">
		<circle fill="#B5B5B6" stroke="#000000" stroke-width="5" stroke-miterlimit="10" cx="1172.111" cy="851.948" r="81.111"/>
		<circle fill="#00A0E9" stroke="#000000" stroke-width="5" stroke-miterlimit="10" cx="1172.111" cy="851.949" r="65.062"/>
		<circle fill="#E60012" cx="1211.136" cy="851.949" r="12.14"/>
	</g>
	<g display="inline">
		
			<ellipse transform="matrix(0.9412 0.3379 -0.3379 0.9412 162.3203 -432.3077)" fill="#E4007F" stroke="#000000" stroke-width="5" stroke-miterlimit="10" cx="1322.963" cy="250.111" rx="14.475" ry="39.571"/>
		
			<ellipse transform="matrix(0.9388 -0.3444 0.3444 0.9388 2.2128 512.8375)" fill="#E4007F" stroke="#000000" stroke-width="5" stroke-miterlimit="10" cx="1444.627" cy="250.19" rx="14.475" ry="39.571"/>
		
			<ellipse transform="matrix(0.9997 0.0239 -0.0239 0.9997 6.2417 -32.9884)" fill="#E4007F" stroke="#000000" stroke-width="5" stroke-miterlimit="10" cx="1381.935" cy="244.388" rx="12.4" ry="33.896"/>
		<ellipse fill="#E4007F" stroke="#000000" stroke-width="5" stroke-miterlimit="10" cx="1383.874" cy="182.774" rx="80" ry="41"/>
	</g>
	<g display="inline">
		
			<ellipse transform="matrix(0.9999 -0.0117 0.0117 0.9999 -5.2344 12.92)" fill="#8FC31F" stroke="#000000" stroke-width="5" stroke-miterlimit="10" cx="1105.59" cy="455.426" rx="12.816" ry="63.205"/>
		
			<ellipse transform="matrix(1 0.0018 -0.0018 1 0.7786 -2.1132)" fill="#8FC31F" stroke="#000000" stroke-width="5" stroke-miterlimit="10" cx="1164.083" cy="427.643" rx="8.605" ry="54.33"/>
		
			<ellipse transform="matrix(1 0.0018 -0.0018 1 0.7789 -2.5279)" fill="#8FC31F" stroke="#000000" stroke-width="5" stroke-miterlimit="10" cx="1392.479" cy="427.643" rx="8.605" ry="54.33"/>
		
			<ellipse transform="matrix(0.9999 -0.0117 0.0117 0.9999 -5.2107 16.9728)" fill="#8FC31F" stroke="#000000" stroke-width="5" stroke-miterlimit="10" cx="1453.22" cy="455.426" rx="12.816" ry="63.205"/>
		<ellipse fill="#8FC31F" stroke="#000000" stroke-width="5" stroke-miterlimit="10" cx="1278" cy="393.321" rx="198" ry="34.321"/>
	</g>
</g>
<g id="圖層_4">
	<g>
		
			<ellipse transform="matrix(0.9999 -0.0117 0.0117 0.9999 -1.2722 0.4347)" fill="#8FC31F" stroke="#000000" stroke-width="5" stroke-miterlimit="10" cx="36.646" cy="109.341" rx="12.816" ry="63.205"/>
		
			<ellipse transform="matrix(1 0.0018 -0.0018 1 0.1483 -0.1726)" fill="#8FC31F" stroke="#000000" stroke-width="5" stroke-miterlimit="10" cx="95.14" cy="81.558" rx="8.604" ry="54.33"/>
		
			<ellipse transform="matrix(1 0.0018 -0.0018 1 0.1487 -0.5874)" fill="#8FC31F" stroke="#000000" stroke-width="5" stroke-miterlimit="10" cx="323.535" cy="81.558" rx="8.605" ry="54.33"/>
		
			<ellipse transform="matrix(0.9999 -0.0117 0.0117 0.9999 -1.2486 4.4874)" fill="#8FC31F" stroke="#000000" stroke-width="5" stroke-miterlimit="10" cx="384.276" cy="109.341" rx="12.816" ry="63.205"/>
		
			<ellipse fill="#8FC31F" stroke="#000000" stroke-width="5" stroke-miterlimit="10" cx="209.057" cy="47.236" rx="198" ry="34.321"/>
	</g>
</g>
</svg>
