<?xml version="1.0" encoding="UTF-8" standalone="no"?>
<!-- Generator: Adobe Illustrator 16.0.0, SVG Export Plug-In . SVG Version: 6.00 Build 0)  -->

<svg
   xmlns:dc="http://purl.org/dc/elements/1.1/"
   xmlns:cc="http://creativecommons.org/ns#"
   xmlns:rdf="http://www.w3.org/1999/02/22-rdf-syntax-ns#"
   xmlns:svg="http://www.w3.org/2000/svg"
   xmlns="http://www.w3.org/2000/svg"
   xmlns:sodipodi="http://sodipodi.sourceforge.net/DTD/sodipodi-0.dtd"
   xmlns:inkscape="http://www.inkscape.org/namespaces/inkscape"
   version="1.1"
   id="圖層_1"
   x="0px"
   y="0px"
   width="2560px"
   height="1920px"
   viewBox="0 0 2560 1920"
   enable-background="new 0 0 2560 1920"
   xml:space="preserve"
   sodipodi:docname="off-on-on.svg"
   inkscape:version="0.92.3 (2405546, 2018-03-11)"><metadata
   id="metadata823"><rdf:RDF><cc:Work
       rdf:about=""><dc:format>image/svg+xml</dc:format><dc:type
         rdf:resource="http://purl.org/dc/dcmitype/StillImage" /></cc:Work></rdf:RDF></metadata><defs
   id="defs821" /><sodipodi:namedview
   pagecolor="#ffffff"
   bordercolor="#666666"
   borderopacity="1"
   objecttolerance="10"
   gridtolerance="10"
   guidetolerance="10"
   inkscape:pageopacity="0"
   inkscape:pageshadow="2"
   inkscape:window-width="1920"
   inkscape:window-height="1052"
   id="namedview819"
   showgrid="false"
   inkscape:zoom="0.49166667"
   inkscape:cx="1560.7942"
   inkscape:cy="993.05114"
   inkscape:window-x="0"
   inkscape:window-y="0"
   inkscape:window-maximized="1"
   inkscape:current-layer="圖層_1" />
<rect
   style="fill:#ffe6d5"
   id="rect211"
   width="2301.0933"
   height="1507.2161"
   x="124.7076"
   y="173.84958" /><g
   id="圖層_5">
	<rect
   y="-3.53"
   fill="#060001"
   width="2560"
   height="184.529"
   id="rect521" />
	<rect
   y="1608.115"
   fill="#A97D45"
   stroke="#060001"
   stroke-width="10"
   stroke-miterlimit="10"
   width="2560"
   height="313.382"
   id="rect523" />
	<g
   id="XMLID_2_">
		<g
   id="g531">
			<path
   fill="#6B1318"
   d="M171.05,1123.26c-1.74,4.933-3.35,9.87-4.8,14.84c-4.2,14.271-3.14,29.19,0.35,44.382l-0.35,0.078     c-45.06,19.313-98.71,26.36-150.21,24.21c-17.17,0-55.79,2.15-66.52-15.02c-0.12-0.16-0.24-0.33-0.35-0.51     c0.1-9.12,0.22-18.25,0.35-27.393c0.12-6.72,0.25-13.448,0.39-20.17c0.67-4.16,1.3-7.62,1.75-9.87     C7.46,1144.54,121.7,1155.45,171.05,1123.26z"
   id="path525" />
			<path
   fill="#962023"
   d="M370.12,1938.53c-79.4,0-156.66,0-233.91,0c-47.21,0-92.27-2.15-137.34,2.14     c-36.48,2.15-42.92,12.88-49.35-23.6c-15.03-98.71,0-212.45,0-311.16c0-138.931-1.89-275.97-0.35-414.67     c0.11,0.18,0.23,0.35,0.35,0.51c10.73,17.17,49.35,15.021,66.52,15.021c51.5,2.149,105.15-4.898,150.21-24.211l0.35-0.078     c5.42,23.658,16.73,47.979,23.26,71.5c17.17,62.229,45.06,122.318,64.38,186.688c42.92,154.51,47.21,313.312,96.56,463.521     C355.09,1917.07,365.82,1927.8,370.12,1938.53z"
   id="path527" />
			<path
   fill="#962023"
   d="M421.62-3.53c0,96.57-15.021,201.72-30.04,296.14c-21.46,133.042-32.19,268.24-66.53,396.99     c-25.75,98.71-53.65,203.86-92.27,300.432c-17.46,42.66-45.41,87.067-61.73,133.229c-49.35,32.19-163.59,21.28-219.39,10.552     c-0.45,2.25-1.08,5.709-1.75,9.868c6.7-340.829,23.21-679.68,23.21-1020.6c0-23.61-10.73-81.55,0-103.01     C-16.15,0.76-20.44,9.34,1.02,5.05c34.33-6.44,72.96,0,107.29,0C209.17,5.05,322.91,9.34,421.62-3.53z"
   id="path529" />
		</g>
		<g
   id="g539">
			<path
   fill="none"
   stroke="#060001"
   stroke-width="10"
   stroke-miterlimit="10"
   d="M421.62-3.53     c0,96.57-15.021,201.72-30.04,296.14c-21.46,133.042-32.19,268.24-66.53,396.99c-25.75,98.71-53.65,203.86-92.27,300.432     c-17.46,42.66-45.41,87.067-61.73,133.229c-1.74,4.933-3.35,9.87-4.8,14.84c-4.2,14.271-3.14,29.19,0.35,44.382     c5.42,23.658,16.73,47.979,23.26,71.5c17.17,62.229,45.06,122.318,64.38,186.688c42.92,154.51,47.21,313.312,96.56,463.521     c4.29,12.881,15.021,23.608,19.32,34.341"
   id="path533" />
			<path
   fill="none"
   stroke="#060001"
   stroke-width="10"
   stroke-miterlimit="10"
   d="M421.62-3.53     C322.91,9.34,209.17,5.05,108.31,5.05c-34.33,0-72.96-6.44-107.29,0c-21.46,4.29-17.17-4.29-27.9,15.02     c-10.73,21.46,0,79.4,0,103.01c0,340.92-16.51,679.77-23.21,1020.6c-0.14,6.723-0.27,13.45-0.39,20.17     c-0.13,9.143-0.25,18.271-0.35,27.393c-1.54,138.698,0.35,275.739,0.35,414.67c0,98.71-15.03,212.45,0,311.16     c6.43,36.479,12.87,25.75,49.35,23.6c45.07-4.29,90.13-2.14,137.34-2.14c77.25,0,154.51,0,233.91,0"
   id="path535" />
			<path
   fill="none"
   stroke="#060001"
   stroke-width="10"
   stroke-miterlimit="10"
   d="M171.05,1123.26     c-49.35,32.19-163.59,21.28-219.39,10.55c-0.45,2.25-1.08,5.712-1.75,9.87c-2.46,15.33-5.34,40.07-0.74,47.563     c0.11,0.18,0.23,0.35,0.35,0.51c10.73,17.17,49.35,15.021,66.52,15.021c51.5,2.148,105.15-4.899,150.21-24.21"
   id="path537" />
		</g>
	</g>
	<g
   id="XMLID_3_">
		<g
   id="g548">
			<path
   fill="#962023"
   d="M2131.768-3.53c0,96.57,15.021,201.72,30.041,296.14c21.459,133.042,32.189,268.24,66.529,396.99     c25.75,98.71,53.649,203.86,92.271,300.432c17.46,42.66,45.408,87.067,61.729,133.229c49.352,32.19,163.59,21.28,219.392,10.552     c0.448,2.25,1.08,5.709,1.75,9.868c-6.7-340.829-23.211-679.68-23.211-1020.6c0-23.61,10.729-81.55,0-103.01     c-10.729-19.31-6.438-10.73-27.898-15.021c-34.33-6.44-72.961,0-107.29,0C2344.218,5.05,2230.479,9.34,2131.768-3.53z"
   id="path542" />
			<path
   fill="#962023"
   d="M2183.268,1938.53c79.4,0,156.66,0,233.91,0c47.21,0,92.271-2.15,137.34,2.14     c36.48,2.15,42.92,12.88,49.353-23.6c15.029-98.71,0-212.45,0-311.16c0-138.931,1.89-275.97,0.351-414.67     c-0.109,0.18-0.229,0.35-0.351,0.51c-10.729,17.17-49.353,15.021-66.521,15.021c-51.5,2.149-105.149-4.898-150.209-24.211     l-0.352-0.078c-5.42,23.658-16.729,47.979-23.261,71.5c-17.17,62.229-45.062,122.318-64.38,186.688     c-42.92,154.51-47.21,313.312-96.562,463.521C2198.298,1917.07,2187.566,1927.8,2183.268,1938.53z"
   id="path544" />
			<path
   fill="#6B1318"
   d="M2382.338,1123.26c1.74,4.933,3.35,9.87,4.8,14.84c4.2,14.271,3.14,29.19-0.35,44.382l0.35,0.078     c45.062,19.313,98.71,26.36,150.21,24.21c17.17,0,55.79,2.15,66.521-15.02c0.119-0.16,0.238-0.33,0.35-0.51     c-0.1-9.12-0.22-18.25-0.35-27.393c-0.12-6.72-0.25-13.448-0.393-20.17c-0.67-4.16-1.3-7.62-1.75-9.87     C2545.928,1144.54,2431.688,1155.45,2382.338,1123.26z"
   id="path546" />
		</g>
		<g
   id="g556">
			<path
   fill="none"
   stroke="#060001"
   stroke-width="10"
   stroke-miterlimit="10"
   d="M2131.768-3.53     c0,96.57,15.021,201.72,30.041,296.14c21.459,133.042,32.189,268.24,66.529,396.99c25.75,98.71,53.649,203.86,92.271,300.432     c17.46,42.66,45.408,87.067,61.729,133.229c1.74,4.933,3.352,9.87,4.801,14.84c4.199,14.271,3.141,29.19-0.351,44.382     c-5.42,23.658-16.729,47.979-23.261,71.5c-17.17,62.229-45.062,122.318-64.38,186.688     c-42.92,154.51-47.21,313.312-96.562,463.521c-4.29,12.881-15.021,23.608-19.318,34.341"
   id="path550" />
			<path
   fill="none"
   stroke="#060001"
   stroke-width="10"
   stroke-miterlimit="10"
   d="M2131.768-3.53     c98.711,12.87,212.45,8.58,313.313,8.58c34.329,0,72.96-6.44,107.29,0c21.46,4.29,17.17-4.29,27.897,15.02     c10.73,21.46,0,79.4,0,103.01c0,340.92,16.512,679.77,23.211,1020.6c0.142,6.723,0.271,13.45,0.392,20.17     c0.13,9.143,0.25,18.271,0.351,27.393c1.541,138.698-0.351,275.739-0.351,414.67c0,98.71,15.029,212.45,0,311.16     c-6.431,36.479-12.87,25.75-49.353,23.6c-45.068-4.29-90.129-2.14-137.34-2.14c-77.25,0-154.51,0-233.91,0"
   id="path552" />
			<path
   fill="none"
   stroke="#060001"
   stroke-width="10"
   stroke-miterlimit="10"
   d="M2382.338,1123.26     c49.35,32.19,163.59,21.28,219.39,10.55c0.45,2.25,1.08,5.712,1.75,9.87c2.46,15.33,5.341,40.07,0.74,47.563     c-0.11,0.18-0.229,0.35-0.351,0.51c-10.729,17.17-49.352,15.021-66.521,15.021c-51.5,2.148-105.148-4.899-150.21-24.21"
   id="path554" />
		</g>
	</g>
	<g
   id="g563">
		<g
   id="g561">
			<path
   fill="#6B1318"
   d="M321.136,84.451c-0.161,62.86-15.219,124.639-24.26,186.559c-9.251,63.357-16.05,127.046-25.547,190.37     c-9.244,61.632-21.048,123.01-39.977,182.466c-17.871,56.132-40.857,110.469-63.707,164.705     c-33.237,78.896-66.664,158.406-84.261,242.534c-1.394,6.663,1.86,13.486,8.73,15.377c6.254,1.72,13.981-2.061,15.377-8.73     c24.173-115.567,77.813-221.662,120.601-330.902c21.774-55.592,39.57-112.09,51.788-170.562     c13.327-63.774,21.49-128.495,29.708-193.083c5.864-46.088,11.868-92.139,19.725-137.937     c7.986-46.553,16.701-93.404,16.823-140.797C346.177,68.328,321.177,68.332,321.136,84.451L321.136,84.451z"
   id="path559" />
		</g>
	</g>
	<g
   id="g569">
		<g
   id="g567">
			<path
   fill="#6B1318"
   d="M173.513,87.565c-5.962,32.707-7.658,65.859-8.806,99.022c-1.119,32.333-2.644,64.361-7.021,96.436     c-8.956,65.614-17.999,131.217-27.806,196.71c-9.636,64.351-18.967,128.779-29.241,193.031     C90.488,736.25,78.268,799.36,61.21,861.379C45.148,919.78,27.145,978.021,19.007,1038.21     c-0.912,6.747,1.509,13.391,8.731,15.377c5.894,1.621,14.461-1.965,15.376-8.73C51.679,981.5,71.112,920.299,87.843,858.79     c16.876-62.041,28.4-125.415,38.411-188.878c10.155-64.38,19.608-128.899,29.2-193.366c9.746-65.496,18.73-131.102,27.68-196.71     c8.399-61.571,3.325-124.4,14.485-185.622c1.221-6.697-1.733-13.452-8.731-15.377C182.766,77.15,174.736,80.856,173.513,87.565     L173.513,87.565z"
   id="path565" />
		</g>
	</g>
	<g
   id="g575">
		<g
   id="g573">
			<path
   fill="#6B1318"
   d="M98.406,1304.513c24.829,118.581,38.573,239.26,66.487,357.229     c13.589,57.431,30.732,114.103,53.685,168.521c2.646,6.273,8.157,10.716,15.376,8.73c5.925-1.63,11.384-9.085,8.731-15.377     c-47.443-112.486-69.093-233.208-89.141-352.981c-9.659-57.709-19.037-115.484-31.03-172.77     c-1.397-6.671-9.122-10.451-15.377-8.73C100.267,1291.025,97.011,1297.85,98.406,1304.513L98.406,1304.513z"
   id="path571" />
		</g>
	</g>
	<g
   id="g581">
		<g
   id="g579">
			<path
   fill="#6B1318"
   d="M22.853,1303.335c5.911,129.151,32.671,256.063,58.179,382.439     c12.708,62.957,25.123,126.005,34.542,189.554c1.001,6.751,9.418,10.369,15.377,8.729c7.159-1.97,9.729-8.643,8.73-15.377     c-18.882-127.393-49.748-252.603-70.948-379.588c-10.267-61.496-18.028-123.444-20.88-185.759c-0.312-6.807-5.45-12.5-12.5-12.5     C28.774,1290.835,22.541,1296.522,22.853,1303.335L22.853,1303.335z"
   id="path577" />
		</g>
	</g>
	<g
   id="g587">
		<g
   id="g585">
			<path
   fill="#6B1318"
   d="M2207.402,165.996c4.479,123.572,21.916,246.625,47.144,367.587     c12.487,59.876,27.101,119.31,43.63,178.197c15.943,56.796,31.731,113.528,50.734,169.406     c20.871,61.369,44.879,121.963,74.791,179.528c3.139,6.041,11.445,7.798,17.102,4.484c6.092-3.567,7.627-11.058,4.484-17.104     c-54.219-104.348-89.086-218.01-119.728-331.139c-15.936-58.838-31.425-117.644-44.211-177.268     c-13.053-60.865-23.923-122.208-32.343-183.885c-8.593-62.936-14.305-126.33-16.604-189.812c-0.248-6.808-5.5-12.5-12.5-12.5     C2213.275,153.496,2207.155,159.183,2207.402,165.996L2207.402,165.996z"
   id="path583" />
		</g>
	</g>
	<g
   id="g593">
		<g
   id="g591">
			<path
   fill="#6B1318"
   d="M2396.243,187.456c0.021,130.287,4.746,260.589,15.762,390.425     c11.06,130.362,28.568,260.239,53.603,388.665c0.627,3.215,1.264,6.428,1.897,9.644c1.324,6.688,9.177,10.436,15.377,8.729     c6.923-1.904,10.053-8.699,8.729-15.377c-25.248-127.492-42.868-256.362-54.105-385.827     c-11.268-129.798-16.094-260.108-16.26-390.377c-0.002-1.96-0.003-3.92-0.003-5.88     C2421.24,171.334,2396.24,171.333,2396.243,187.456L2396.243,187.456z"
   id="path589" />
		</g>
	</g>
	<g
   id="g599">
		<g
   id="g597">
			<path
   fill="#6B1318"
   d="M2409.119,1303.335c-4.789,63.04-12.671,125.795-23.023,188.157c-5.238,31.56-11.143,63.008-17.602,94.34     c-6.237,30.262-13.837,60.257-19.41,90.649c-11.543,62.945-16.248,128.008-40.378,187.906c-2.55,6.331,2.728,13.728,8.729,15.377     c7.141,1.964,12.834-2.416,15.377-8.729c22.309-55.38,28.106-115.387,37.905-173.788c5.067-30.202,12.368-59.898,18.75-89.834     c6.661-31.244,12.699-62.62,18.156-94.097c12.054-69.522,21.146-139.619,26.493-209.982c0.517-6.803-6.077-12.5-12.5-12.5     C2414.415,1290.835,2409.635,1296.543,2409.119,1303.335L2409.119,1303.335z"
   id="path595" />
		</g>
	</g>
	<g
   id="g605">
		<g
   id="g603">
			<path
   fill="#6B1318"
   d="M2477.788,1307.627c0.017,66.028,1.529,132.074-0.656,198.085     c-2.145,64.768-10.056,128.792-19.661,192.822c-9.61,64.068-19.984,128.121-24.746,192.783c-0.502,6.805,6.064,12.5,12.5,12.5     c7.191,0,12-5.707,12.5-12.5c4.74-64.392,15.186-128.119,24.721-191.923c9.712-64.979,17.576-129.948,19.754-195.665     c2.163-65.347,0.604-130.738,0.591-196.104C2502.784,1291.506,2477.784,1291.505,2477.788,1307.627L2477.788,1307.627z"
   id="path601" />
		</g>
	</g>
</g>
<g
   id="圖層_2_1_"
   display="none">
	<g
   id="XMLID_4_"
   display="inline">
		<g
   id="g646">
			<path
   fill="#8E5E33"
   d="M1606.936,1543.863c-46.72,22.489-87.469,31.649-137.638,40.3c-32.879,5.189-108.987,8.65-126.288,41.52     c-0.84-15.819,0.155-27.955,0.684-39.953c74.068-17.585,132.715-89.915,194.795-127.854     c55.368-32.869,157.004-85.104,203.714-12.447h0.017c8.944,47.323-13.813,95.079-86.083,111.057     C1636.335,1560.782,1619.528,1554.813,1606.936,1543.863z"
   id="path608" />
			<path
   fill="#BE995F"
   d="M1742.218,1445.428h-0.017c-46.71-72.657-148.346-20.422-203.714,12.447     c-62.08,37.938-120.727,110.269-194.795,127.854c0.12-2.75,0.226-5.483,0.26-8.262c19.644-30.257,66.94-49.165,92.467-79.804     c24.22-29.409,48.448-55.358,79.588-74.389c41.521-27.681,136.668-73.188,188.567-47.236l0.008-0.009     C1724.131,1395.951,1737.521,1420.638,1742.218,1445.428z"
   id="path610" />
			<path
   fill="#8E5E33"
   d="M1704.582,1376.03l-0.008,0.009c-51.899-25.95-147.048,19.557-188.567,47.236     c-31.14,19.029-55.368,44.979-79.588,74.389c-25.525,30.639-72.823,49.547-92.467,79.804c0.121-6.65-0.069-13.52-0.942-21.175     c15.569-22.489,30.344-46.259,42.453-70.479c15.57-25.949,27.169-40.551,54.416-67.729     c39.072-38.959,93.428-79.579,150.517-84.77C1636.041,1328.75,1676.608,1347.521,1704.582,1376.03z"
   id="path612" />
			<path
   fill="#8E5E33"
   d="M1343.952,1577.468c-0.034,2.777-0.14,5.512-0.26,8.262c-0.527,11.998-1.522,24.134-0.684,39.953     c1.722,38.061,50.169,43.249,76.109,65.739c-6.919,0-12.101,3.46-17.291,3.46c3.452,3.46,6.912,8.649,8.649,12.109     c-3.459,0-10.38,1.729-13.84,1.729c5.189,3.46,8.643,13.839,10.381,19.029c-27.681,8.649-74.39-15.569-102.068-24.22     c-39.79-10.38-56.337-45.56-108.236-24.558c-26.996,8.001-28.995,29.997-25.993,54.001c0.995,8.996,2.993,18,2.993,27.999     c0,3.997,4.005,13.996-1.998,14.999c-5.995,0.995-8.996-8.001-8.996-12.006c-3.001,12.006-12.006,14.004-17.005,2.007     c1.003,39.997-23-11.003-28-24.003c-11.997-36.001-18.995-72.002-23.995-110.001c-5-34.002-11.002-67.996-11.002-103.002     c0-14.999,2.915-27.696,3.001-42.999c0.069-12.326,0-29.929-3.001-41.935c-3.46-6.92-37.264-26.814-47.644-30.274     c-39.79-20.76-88.229-38.925-115.908-71.794c5.19,0,15.57-3.46,20.76-5.188c-1.729-3.46-1.729-10.381-3.46-13.84     c3.46,0,10.38-1.73,13.84-1.73c-6.92-8.649-3.46-12.109-1.729-20.76c50.559,26.435,80.124,58.923,137.204,65.843c0,0,0,0,0.009,0     c15.457,4.749,31.286,7.984,46.164,10.276c2.18,0.362,4.403,0.727,6.661,1.081c-3.771,23.675-10.121,28.327-13.589,40.438     c4.057-0.286,8.062-1.497,12.049-3.305c-22.489,25.95-29.34,72.503-29.34,107.103c0,44.979,15.562,77.85,65.739,84.77     c53.629,6.92,100.338-25.949,117.638-76.118c10.38-32.87,17.075-125.96-17.525-146.719c13.087-1.462,25.457-3.808,36.545-7.249     c2.388-0.685,4.749-1.385,7.076-2.095c0.009-0.008,0.019-0.008,0.025-0.008c6.357-1.955,12.491-4.031,18.364-6.245     c19.462-4.654,43.066-6.443,61.041-14.143c20.761-10.38,39.78-24.22,60.541-32.87c0,5.19,1.738,13.84,0,19.03     c6.92-3.46,13.84-3.46,17.309-3.46c-3.469,5.188-5.189,13.84-8.649,19.028c10.38-5.188,20.761-10.38,31.14-10.38     c-17.299,34.601-89.958,69.199-122.827,88.229c-17.3,10.38-41.521,19.03-43.259,38.06c0,13.841,7.576,58.897,10.033,71.283     c0.936,4.731,1.609,9.135,2.085,13.295C1343.883,1563.948,1344.073,1570.816,1343.952,1577.468z"
   id="path614" />
			<path
   fill="#BE995F"
   d="M1194.482,1246.118c2.007-0.753,3.9-1.522,5.666-2.311c72.131,4.188,144.124,20.354,210.927,39.694     l0.511-0.026c2.041,40.396-28.666,66.934-75.989,84.743c-6.756,1.608-13.019,3.572-18.363,6.245c-0.009,0-0.018,0-0.025,0.008     c-2.327,0.71-4.688,1.41-7.076,2.095c-11.089,3.441-23.458,5.786-36.545,7.249c-5.138,0.578-10.388,1.028-15.725,1.34     c-16.625,1.004-34.029,0.822-51.208-0.129c-2.5-0.813-4.922-1.351-7.231-1.54c-2.742-0.173-5.432,0.018-8.069,0.493     c-18.658-1.515-36.685-3.807-52.738-6.332c-2.258-0.354-4.481-0.719-6.661-1.082c-14.878-2.291-30.707-5.526-46.164-10.275     c-0.009,0-0.009,0-0.009,0c-31.271-9.602-61.025-25.378-78.395-52.003c-8.667-13.493-12.542-27.247-12.603-41h0.009     c62.539-25.181,129.125-32.854,195.781-29.963C1192.233,1244.318,1193.618,1245.253,1194.482,1246.118z M1159.234,1305.724v0.062     c-9.125,39.686-1.047,42.739,26.348,43.06c2.188,0.025,4.489,0.034,6.92,0.043c43.258,0.147,29.729-16.331,38.379-44.011     c-10.873,3.538-27.81-4.429-38.379-4.429C1187.407,1300.447,1170.297,1306.45,1159.234,1305.724z"
   id="path616" />
			<path
   fill="#AA7D45"
   d="M1411.586,1283.478l-0.511,0.025c-66.803-19.342-138.796-35.508-210.927-39.693     c21.779-9.724,25.23-21.895,3.589-23.329l0.009-0.147c10.38-53.629,30.915-90.841,89.734-90.841     c0.086-0.536,0.173-1.063,0.26-1.591c8.226,5.777,16.218,11.824,23.898,18.052c30.084,24.384,55.315,51.415,70.35,74.917     C1403.281,1244.786,1410.678,1265.502,1411.586,1283.478z M1249.591,1176.529     C1273.361,1217.322,1312.675,1155.856,1249.591,1176.529L1249.591,1176.529z"
   id="path618" />
			<path
   fill="#65391B"
   d="M1336.038,1080.741c10.38,24.22,4.221,52.911-18.398,65.211c-7.682-6.229-15.674-12.274-23.898-18.053     C1297.442,1106.275,1307.848,1091.397,1336.038,1080.741z"
   id="path620" />
			<path
   fill="#8E5E33"
   d="M1293.74,1127.9c-0.087,0.526-0.174,1.055-0.26,1.591c-58.819,0-79.354,37.212-89.734,90.841     l-0.009,0.147c-4.195-0.285-9.333-0.164-15.466,0.467l-0.096-0.942c-10.388-46.709-16.435-102.423-70.063-97.242     c2.517-1.6,5.025-3.166,7.524-4.688c28.269-17.283,55.204-30.37,73.784-37.333C1231.02,1089.556,1263.88,1106.915,1293.74,1127.9     z"
   id="path622" />
			<path
   fill="#BE995F"
   d="M1273.585,1383.815c34.6,20.759,27.905,113.849,17.525,146.719     c-17.301,50.169-64.01,83.038-117.639,76.118c-50.178-6.921-65.739-39.789-65.739-84.77c0-34.6,6.852-81.151,29.341-107.103     c17.489-7.914,34.669-27.299,54.277-30.803c5.061,0.406,10.172,0.762,15.302,1.047c19.946,6.505,45.057,30.76,61.968,39.979     c0-12.11-10.761-27.74-10.761-39.851C1263.197,1384.845,1268.448,1384.396,1273.585,1383.815z"
   id="path624" />
			<path
   fill="#040000"
   d="M1249.591,1176.529C1312.675,1155.856,1273.361,1217.322,1249.591,1176.529L1249.591,1176.529z"
   id="path626" />
			<path
   fill="#AE1F25"
   d="M1257.86,1385.155c0,12.109,10.76,27.74,10.76,39.851c-16.911-9.221-42.021-33.476-61.968-39.979     C1223.832,1385.978,1241.235,1386.159,1257.86,1385.155z"
   id="path628" />
			<path
   fill="#FFFFFF"
   d="M1192.502,1300.447c10.57,0,27.506,7.967,38.379,4.429c-8.65,27.68,4.878,44.158-38.379,44.011     c-2.431-0.009-4.73-0.018-6.92-0.043v-0.208C1184.475,1334.217,1190.037,1317.245,1192.502,1300.447z"
   id="path630" />
			<path
   fill="#221714"
   d="M1203.738,1220.479c21.642,1.436,18.19,13.605-3.589,23.328c-3.192-0.189-6.385-0.354-9.576-0.483     c-8.321-5.026-23.511-11.825-14.272-20.727c4.352-0.743,8.338-1.288,11.971-1.651     C1194.405,1220.315,1199.543,1220.194,1203.738,1220.479z"
   id="path632" />
			<path
   fill="#221714"
   d="M1200.148,1243.809c-1.766,0.787-3.659,1.558-5.666,2.311c-0.865-0.865-2.25-1.8-3.91-2.794     C1193.765,1243.453,1196.957,1243.618,1200.148,1243.809z"
   id="path634" />
			<path
   fill="#AA7D45"
   d="M1188.177,1220.004l0.095,0.942c-3.633,0.363-7.62,0.908-11.971,1.651     c-9.238,8.9,5.951,15.699,14.272,20.727c-66.656-2.891-133.242,4.782-195.781,29.963h-0.009     c-0.225-51.043,52.063-102.12,106.791-139.635c5.501-3.771,11.029-7.404,16.529-10.892h0.009     C1171.742,1117.581,1177.789,1173.295,1188.177,1220.004z M1142.333,1173.511c-11.894-9.515-23.787-7.136-33.302,4.758     C1120.924,1185.404,1135.188,1185.404,1142.333,1173.511z"
   id="path636" />
			<path
   fill="#FFFFFF"
   d="M1185.582,1348.636v0.208c-27.395-0.319-35.473-3.374-26.348-43.06v-0.062     c11.063,0.728,28.173-5.275,33.268-5.275C1190.037,1317.245,1184.475,1334.217,1185.582,1348.636z"
   id="path638" />
			<path
   fill="#AE1F25"
   d="M1138.613,1377.647c16.054,2.525,34.08,4.817,52.738,6.332c-19.609,3.503-36.788,22.888-54.278,30.802     c-3.987,1.808-7.992,3.019-12.049,3.305C1128.493,1405.976,1134.842,1401.322,1138.613,1377.647z"
   id="path640" />
			<path
   fill="#040000"
   d="M1109.031,1178.269c9.515-11.894,21.408-14.271,33.302-4.758     C1135.188,1185.404,1120.924,1185.404,1109.031,1178.269z"
   id="path642" />
			<path
   fill="#65391B"
   d="M1125.024,1117.07l0.613,1.004c-2.5,1.521-5.008,3.088-7.524,4.688h-0.008     c-5.502,3.486-11.029,7.119-16.53,10.892c-19.522-11.229-22.854-38.674,0.969-61.563     C1119.834,1080.741,1125.024,1099.416,1125.024,1117.07z"
   id="path644" />
		</g>
		<g
   id="g698">
			<path
   fill="none"
   stroke="#040000"
   stroke-width="5"
   stroke-linejoin="round"
   stroke-miterlimit="10"
   d="M1317.232,1374.465     c6.357-1.955,12.49-4.031,18.363-6.245c47.323-17.811,78.03-44.349,75.989-84.743c-0.908-17.975-8.305-38.689-23.598-62.606     c-15.033-23.502-40.266-50.533-70.35-74.917c-7.682-6.229-15.674-12.274-23.898-18.052     c-29.86-20.985-62.722-38.346-94.318-47.159"
   id="path648" />
			<path
   fill="none"
   stroke="#040000"
   stroke-width="5"
   stroke-linejoin="round"
   stroke-miterlimit="10"
   d="M1085.789,1366.29     c15.457,4.749,31.286,7.984,46.164,10.276c2.18,0.362,4.402,0.727,6.661,1.081c16.054,2.525,34.079,4.817,52.737,6.332     c5.061,0.405,10.172,0.761,15.302,1.047c17.179,0.951,34.583,1.133,51.208,0.129c5.337-0.312,10.587-0.761,15.725-1.34     c13.087-1.462,25.457-3.808,36.545-7.249c2.388-0.685,4.749-1.384,7.076-2.095"
   id="path650" />
			<path
   fill="none"
   stroke="#040000"
   stroke-width="5"
   stroke-linejoin="round"
   stroke-miterlimit="10"
   d="M1118.104,1122.762     c-5.5,3.486-11.028,7.119-16.529,10.892c-54.729,37.515-107.017,88.592-106.791,139.635c0.061,13.753,3.936,27.507,12.603,41     c17.369,26.625,47.124,42.402,78.395,52.003"
   id="path652" />
			<path
   fill="none"
   stroke="#040000"
   stroke-width="5"
   stroke-linejoin="round"
   stroke-miterlimit="10"
   d="M1199.422,1080.741     c-18.58,6.963-45.516,20.05-73.784,37.333c-2.5,1.521-5.008,3.088-7.524,4.688"
   id="path654" />
			<path
   fill="none"
   stroke="#040000"
   stroke-width="5"
   stroke-linejoin="round"
   stroke-miterlimit="10"
   d="M1293.48,1129.491     c0.086-0.536,0.173-1.063,0.26-1.591c3.702-21.625,14.106-36.503,42.298-47.159c10.38,24.22,4.221,52.911-18.398,65.211"
   id="path656" />
			<path
   fill="none"
   stroke="#040000"
   stroke-width="5"
   stroke-linejoin="round"
   stroke-miterlimit="10"
   d="M1125.024,1117.07     c0-17.654-5.19-36.329-22.481-44.979c-23.821,22.889-20.491,50.334-0.969,61.563"
   id="path658" />
			<path
   fill="none"
   stroke="#040000"
   stroke-width="5"
   stroke-linejoin="round"
   stroke-miterlimit="10"
   d="M994.792,1273.287     c62.539-25.181,129.125-32.854,195.781-29.963c3.191,0.129,6.384,0.294,9.576,0.483c72.131,4.188,144.124,20.354,210.927,39.694"
   id="path660" />
			<path
   fill="none"
   stroke="#040000"
   stroke-width="5"
   stroke-linejoin="round"
   stroke-miterlimit="10"
   d="M1194.482,1246.118     c-0.865-0.865-2.249-1.8-3.91-2.794c-8.321-5.026-23.51-11.825-14.272-20.726c4.352-0.744,8.338-1.289,11.972-1.652     c6.133-0.631,11.271-0.752,15.466-0.467c21.642,1.436,18.19,13.605-3.589,23.328     C1198.384,1244.596,1196.489,1245.365,1194.482,1246.118"
   id="path662" />
			<path
   fill="none"
   stroke="#040000"
   stroke-width="5"
   stroke-linejoin="round"
   stroke-miterlimit="10"
   d="M1194.482,1246.118     c-4.316,20.093-5.44,40.489-8.9,54.329"
   id="path664" />
			<path
   fill="none"
   stroke="#040000"
   stroke-width="5"
   stroke-linejoin="round"
   stroke-miterlimit="10"
   d="M1150.982,1290.067     c-4.265,11.375,0.527,15.154,8.252,15.655c11.063,0.728,28.173-5.275,33.268-5.275c10.57,0,27.506,7.967,38.379,4.429     c5.146-1.669,8.936-5.916,10.051-14.809"
   id="path666" />
			<path
   fill="none"
   stroke="#040000"
   stroke-width="5"
   stroke-linejoin="round"
   stroke-miterlimit="10"
   d="M1159.234,1305.784     c-9.125,39.686-1.047,42.739,26.348,43.06c2.188,0.025,4.489,0.034,6.92,0.043c43.258,0.147,29.729-16.331,38.379-44.011"
   id="path668" />
			<path
   fill="none"
   stroke="#040000"
   stroke-width="5"
   stroke-linejoin="round"
   stroke-miterlimit="10"
   d="M1109.031,1178.269     c9.515-11.894,21.408-14.271,33.302-4.758C1135.188,1185.404,1120.924,1185.404,1109.031,1178.269z"
   id="path670" />
			<path
   fill="none"
   stroke="#040000"
   stroke-width="5"
   stroke-linejoin="round"
   stroke-miterlimit="10"
   d="M1249.591,1176.529     C1312.675,1155.856,1273.361,1217.322,1249.591,1176.529L1249.591,1176.529z"
   id="path672" />
			<path
   fill="none"
   stroke="#040000"
   stroke-width="5"
   stroke-linejoin="round"
   stroke-miterlimit="10"
   d="M1196.714,1678.975     c51.899-21.002,68.446,14.178,108.236,24.558c27.68,8.649,74.389,32.869,102.067,24.22c-1.737-5.19-5.189-15.569-10.38-19.029     c3.46,0,10.38-1.729,13.84-1.729c-1.737-3.46-5.197-8.649-8.649-12.109c5.189,0,10.372-3.46,17.291-3.46     c-25.94-22.49-74.39-27.68-76.109-65.739c-0.84-15.819,0.155-27.956,0.684-39.953c0.12-2.75,0.226-5.483,0.26-8.262     c0.121-6.65-0.069-13.52-0.942-21.175c-0.476-4.16-1.149-8.563-2.085-13.295c-2.457-12.386-10.034-57.443-10.034-71.283     c1.739-19.029,25.959-27.68,43.259-38.06c32.869-19.029,105.528-53.629,122.827-88.229c-10.379,0-20.759,5.19-31.139,10.38     c3.46-5.188,5.181-13.84,8.649-19.029c-3.47,0-10.39,0-17.31,3.461c1.739-5.19,0-13.841,0-19.03     c-20.76,8.649-39.78,22.489-60.54,32.87c-17.975,7.697-41.58,9.487-61.042,14.143c-6.756,1.608-13.019,3.572-18.364,6.245     c-0.008,0-0.017,0-0.024,0.008"
   id="path674" />
			<path
   fill="none"
   stroke="#040000"
   stroke-width="5"
   stroke-linejoin="round"
   stroke-miterlimit="10"
   d="M1085.789,1366.29     c-0.009,0-0.009,0-0.009,0c-57.081-6.92-86.646-39.408-137.204-65.843c-1.73,8.649-5.19,12.109,1.729,20.76     c-3.46,0-10.38,1.729-13.84,1.729c1.729,3.461,1.729,10.381,3.46,13.841c-5.189,1.729-15.57,5.188-20.76,5.188     c27.68,32.869,76.119,51.034,115.908,71.794c10.38,3.46,44.184,23.354,47.644,30.274"
   id="path676" />
			<path
   fill="none"
   stroke="#040000"
   stroke-width="5"
   stroke-linejoin="round"
   stroke-miterlimit="10"
   d="M1343.01,1556.293     c15.569-22.489,30.344-46.259,42.453-70.479c15.57-25.949,27.169-40.551,54.416-67.729     c39.072-38.959,93.428-79.579,150.518-84.77c45.646-4.566,86.213,14.203,114.187,42.714     c19.549,19.921,32.938,44.606,37.636,69.396c8.944,47.323-13.813,95.079-86.083,111.056c-19.8,4.3-36.605-1.668-49.2-12.619     c-38.051-33.042-37.695-111.453,34.703-89.104"
   id="path678" />
			<path
   fill="none"
   stroke="#040000"
   stroke-width="5"
   stroke-linejoin="round"
   stroke-miterlimit="10"
   d="M1606.936,1543.863     c-46.72,22.489-87.469,31.649-137.638,40.3c-32.879,5.189-108.987,8.65-126.288,41.52"
   id="path680" />
			<path
   fill="none"
   stroke="#040000"
   stroke-width="5"
   stroke-linejoin="round"
   stroke-miterlimit="10"
   d="M1138.613,1377.647     c-3.771,23.675-10.121,28.327-13.589,40.438c4.057-0.286,8.062-1.497,12.049-3.305c17.489-7.914,34.669-27.299,54.277-30.803     c2.639-0.476,5.328-0.666,8.07-0.492c2.309,0.189,4.731,0.727,7.231,1.539c19.946,6.505,45.057,30.76,61.968,39.979     c0-12.11-10.761-27.74-10.761-39.851"
   id="path682" />
			<path
   fill="none"
   stroke="#040000"
   stroke-width="5"
   stroke-linejoin="round"
   stroke-miterlimit="10"
   d="M1137.073,1414.781     c-22.489,25.95-29.34,72.503-29.34,107.103c0,44.979,15.562,77.85,65.738,84.77c53.63,6.92,100.339-25.949,117.639-76.118     c10.38-32.87,17.075-125.96-17.525-146.719"
   id="path684" />
			<path
   fill="none"
   stroke="#040000"
   stroke-width="5"
   stroke-linejoin="round"
   stroke-miterlimit="10"
   d="M1118.104,1122.762     h0.009c53.629-5.181,59.676,50.533,70.063,97.242"
   id="path686" />
			<path
   fill="none"
   stroke="#040000"
   stroke-width="5"
   stroke-linejoin="round"
   stroke-miterlimit="10"
   d="M1203.747,1220.332     c10.38-53.629,30.915-90.841,89.733-90.841"
   id="path688" />
			<path
   fill="none"
   stroke="#040000"
   stroke-width="5"
   stroke-linejoin="round"
   stroke-miterlimit="10"
   d="M1343.01,1578.965     c0.303-0.502,0.622-1.004,0.942-1.497c19.644-30.257,66.94-49.165,92.467-79.804c24.22-29.409,48.448-55.358,79.588-74.389     c41.521-27.681,136.668-73.188,188.567-47.236"
   id="path690" />
			<path
   fill="none"
   stroke="#040000"
   stroke-width="5"
   stroke-linejoin="round"
   stroke-miterlimit="10"
   d="M1343.01,1585.894     c0.226-0.053,0.458-0.104,0.684-0.164c74.068-17.586,132.715-89.916,194.795-127.854     c55.368-32.869,157.004-85.104,203.714-12.447"
   id="path692" />
			<path
   fill="none"
   stroke="#040000"
   stroke-width="5"
   stroke-linejoin="round"
   stroke-miterlimit="10"
   d="M1192.502,1300.447     c-2.465,16.798-8.027,33.77-6.92,48.188"
   id="path694" />
			<path
   fill="none"
   stroke="#040000"
   stroke-width="5"
   stroke-linejoin="round"
   stroke-miterlimit="10"
   d="M1082.718,1444.035     c3.001,12.006,3.071,29.608,3.001,41.935c-0.086,15.303-3.001,28-3.001,42.999c0,35.007,6.003,69,11.002,103.002     c5,37.999,11.998,74,23.995,110.001c5,13,29.003,64,28,24.004c5,11.996,14.004,9.998,17.005-2.008     c0,4.006,3.001,13.001,8.996,12.006c6.003-1.003,1.998-11.002,1.998-14.998c0-10-1.998-19.004-2.993-28     c-3.001-24.004-1.003-46,25.993-54"
   id="path696" />
		</g>
	</g>
</g>
<g
   id="圖層_2">
	<g
   id="XMLID_1_">
		<g
   id="g740">
			<path
   fill="#C39C61"
   d="M1538.251,1458.055c-62.089,37.938-120.735,110.269-194.795,127.854c0.121-2.751,0.225-5.493,0.268-8.278     c19.645-30.248,66.933-49.157,92.459-79.786c24.22-29.409,48.439-55.359,79.578-74.389     c41.52-27.68,136.668-73.187,188.567-47.237l0.009-0.009c19.549,19.921,32.938,44.607,37.636,69.398h-0.009     C1695.255,1372.948,1593.61,1425.185,1538.251,1458.055z"
   id="path702" />
			<path
   fill="#915F33"
   d="M1343.724,1577.63c0.104-6.651-0.086-13.511-0.96-21.157c15.57-22.489,30.344-46.26,42.454-70.479     c15.569-25.949,27.178-40.55,54.425-67.729c39.063-38.959,93.418-79.578,150.508-84.769     c45.645-4.566,86.213,14.203,114.187,42.713l-0.009,0.009c-51.899-25.949-147.048,19.558-188.567,47.237     c-31.139,19.029-55.358,44.979-79.578,74.389C1410.656,1528.473,1363.368,1547.382,1343.724,1577.63z"
   id="path704" />
			<path
   fill="#915F33"
   d="M1469.052,1584.343c-32.869,5.189-108.988,8.649-126.288,41.52c-0.83-15.821,0.165-27.957,0.692-39.954     c74.06-17.585,132.706-89.915,194.795-127.854c55.359-32.87,157.004-85.106,203.713-12.447h0.009     c8.943,47.323-13.814,95.079-86.084,111.056c-19.799,4.308-36.605-1.67-49.2-12.62     C1559.979,1566.532,1519.221,1575.692,1469.052,1584.343z"
   id="path706" />
			<path
   fill="#67391B"
   d="M1335.792,1080.92c10.38,24.22,4.222,52.912-18.398,65.212c-7.681-6.229-15.673-12.274-23.899-18.053     C1297.196,1106.455,1307.61,1091.577,1335.792,1080.92z"
   id="path708" />
			<path
   fill="#AD7E46"
   d="M1293.494,1128.079c8.227,5.778,16.219,11.824,23.899,18.053c30.085,24.384,55.316,51.415,70.35,74.916     c15.293,23.917,22.688,44.634,23.597,62.608l-0.51,0.025c-66.804-19.341-138.805-35.508-210.945-39.694     c21.798-9.722,25.249-21.893,3.607-23.328l0.009-0.147c10.38-53.629,30.915-90.841,89.733-90.841     C1293.321,1129.135,1293.408,1128.607,1293.494,1128.079z M1249.345,1176.709     C1273.115,1217.502,1312.438,1156.036,1249.345,1176.709L1249.345,1176.709z"
   id="path710" />
			<path
   fill="#915F33"
   d="M1293.494,1128.079c-0.086,0.528-0.173,1.056-0.26,1.592c-58.819,0-79.354,37.212-89.733,90.841     l-0.009,0.147c-4.195-0.286-9.333-0.165-15.466,0.467l-0.095-0.942c-10.38-46.71-16.435-102.433-70.064-97.242l-0.008-0.009     c2.517-1.592,5.034-3.157,7.534-4.688c28.268-17.282,55.204-30.36,73.784-37.324     C1230.774,1089.734,1263.635,1107.095,1293.494,1128.079z"
   id="path712" />
			<path
   d="M1249.345,1176.709C1312.438,1156.036,1273.115,1217.502,1249.345,1176.709L1249.345,1176.709z"
   id="path714" />
			<path
   fill="#B81C25"
   d="M1257.615,1385.335c0,12.11,10.76,27.74,10.76,39.85c-16.911-9.221-42.021-33.475-61.968-39.979     C1223.586,1386.157,1240.981,1386.339,1257.615,1385.335z"
   id="path716" />
			<path
   fill="#FFFFFF"
   d="M1192.256,1300.627c10.562,0,27.506,7.967,38.379,4.429c-8.65,27.68,4.878,44.157-38.379,44.011     c-2.431-0.009-4.731-0.018-6.92-0.044v-0.207C1184.229,1334.396,1189.791,1317.425,1192.256,1300.627z"
   id="path718" />
			<path
   fill="#C39C61"
   d="M1290.864,1530.713c-17.299,50.17-64.009,83.039-117.638,76.119     c-50.169-6.92-65.739-39.789-65.739-84.769c0-34.6,6.851-81.145,29.332-107.094c17.49-7.915,34.668-27.308,54.287-30.812     c5.06,0.407,10.172,0.762,15.301,1.047c19.947,6.505,45.057,30.759,61.968,39.979c0-12.109-10.76-27.739-10.76-39.85     c5.337-0.312,10.587-0.761,15.725-1.341C1307.939,1404.754,1301.244,1497.844,1290.864,1530.713z"
   id="path720" />
			<path
   fill="#221714"
   d="M1203.492,1220.659c21.642,1.436,18.191,13.606-3.607,23.328c-3.183-0.19-6.375-0.354-9.558-0.484     c-8.321-5.025-23.51-11.824-14.264-20.725c4.342-0.744,8.33-1.289,11.963-1.652     C1194.159,1220.494,1199.297,1220.373,1203.492,1220.659z"
   id="path722" />
			<path
   fill="#221714"
   d="M1199.885,1243.987c-1.765,0.787-3.65,1.558-5.648,2.31c-0.865-0.865-2.249-1.799-3.91-2.794     C1193.51,1243.633,1196.702,1243.797,1199.885,1243.987z"
   id="path724" />
			<path
   fill="#C39C61"
   d="M1194.237,1246.297c1.999-0.752,3.884-1.522,5.648-2.31c72.14,4.187,144.141,20.354,210.945,39.694     l0.51-0.025c2.042,40.395-28.657,66.924-75.972,84.733c-6.772,1.618-13.044,3.581-18.398,6.263h-0.009     c-2.326,0.718-4.679,1.41-7.066,2.094c-11.098,3.442-23.459,5.786-36.555,7.248c-5.138,0.58-10.388,1.029-15.725,1.341     c-16.634,1.004-34.029,0.822-51.208-0.13c-2.5-0.813-4.921-1.35-7.231-1.539c-2.742-0.174-5.432,0.017-8.07,0.492     c-18.658-1.514-36.684-3.806-52.738-6.331c-2.258-0.354-4.481-0.718-6.661-1.081c-14.877-2.293-30.707-5.527-46.164-10.276     c-0.009,0-0.009,0-0.009,0c-31.269-9.602-61.025-25.379-78.385-52.003c-8.667-13.494-12.551-27.247-12.611-41h0.009     c62.539-25.181,129.125-32.853,195.781-29.964C1191.988,1244.498,1193.372,1245.432,1194.237,1246.297z M1230.636,1305.056     c-10.873,3.538-27.818-4.429-38.379-4.429c-5.095,0-22.204,6.003-33.268,5.276v0.061c-9.125,39.686-1.046,42.739,26.348,43.059     c2.188,0.026,4.489,0.035,6.92,0.044C1235.514,1349.213,1221.986,1332.735,1230.636,1305.056z"
   id="path726" />
			<path
   fill="#FFFFFF"
   d="M1158.989,1305.964v-0.061c11.063,0.727,28.173-5.276,33.268-5.276     c-2.465,16.798-8.027,33.769-6.92,48.188v0.207C1157.942,1348.703,1149.863,1345.649,1158.989,1305.964z"
   id="path728" />
			<path
   fill="#B81C25"
   d="M1136.819,1414.97c-3.988,1.799-7.984,3.01-12.032,3.295c3.46-12.109,9.809-16.763,13.581-40.438     c16.054,2.525,34.081,4.817,52.738,6.331C1171.488,1387.662,1154.309,1407.055,1136.819,1414.97z"
   id="path730" />
			<path
   fill="#915F33"
   d="M1401.583,1695.061c3.46,3.46,6.92,8.65,8.649,12.11c-3.46,0-10.38,1.729-13.84,1.729     c5.19,3.46,8.65,13.84,10.38,19.03c-27.679,8.649-74.389-15.57-102.068-24.22c-39.789-10.38-81.309-20.76-122.828-27.68     c-32.87-6.92-51.899,5.189-84.769,15.569c-29.41,8.65-81.309,38.06-112.448,29.41c3.46-1.73,8.649-12.11,12.109-15.57     c-6.919,1.73-15.569-3.46-22.489-3.46c3.46-1.729,12.11-6.92,17.299-8.649c-49.503-13.754,24.22-27.68,34.6-36.33     c13.84-10.38,12.11-24.219,17.3-43.249c8.65-36.329,19.03-72.659,32.87-108.988c5.19-12.109,25.95-46.709,17.3-60.549     c-3.46-6.92-48.439-26.814-58.819-30.274c-39.79-20.76-88.229-38.925-115.908-71.794c5.19,0,15.57-3.46,20.76-5.19     c-1.73-3.46-1.73-10.38-3.46-13.84c3.46,0,10.38-1.729,13.84-1.729c-6.92-8.65-3.46-12.11-1.73-20.76     c50.559,26.434,80.124,58.923,137.204,65.843c0,0,0,0,0.009,0c15.457,4.749,31.287,7.983,46.164,10.276     c2.18,0.363,4.403,0.727,6.661,1.081c-3.771,23.675-10.121,28.328-13.581,40.438c4.048-0.285,8.044-1.496,12.032-3.295     c-22.481,25.949-29.332,72.494-29.332,107.094c0,44.979,15.57,77.849,65.739,84.769c53.629,6.92,100.338-25.949,117.638-76.119     c10.38-32.869,17.075-125.959-17.524-146.719c13.096-1.462,25.457-3.806,36.555-7.248c2.388-0.684,4.74-1.376,7.066-2.094h0.009     c6.366-1.955,12.517-4.039,18.398-6.263c19.462-4.645,43.06-6.436,61.024-14.134c20.76-10.38,39.79-24.22,60.55-32.869     c0,5.189,1.729,13.84,0,19.029c6.92-3.46,13.84-3.46,17.3-3.46c-3.46,5.19-5.19,13.84-8.65,19.03     c10.38-5.19,20.76-10.38,31.14-10.38c-17.3,34.6-89.959,69.198-122.828,88.229c-17.3,10.38-41.52,19.029-43.249,38.06     c0,13.84,7.568,58.896,10.025,71.283c0.934,4.731,1.608,9.135,2.084,13.295c0.874,7.646,1.064,14.506,0.96,21.157     c-0.043,2.785-0.146,5.527-0.268,8.278c-0.527,11.997-1.522,24.133-0.692,39.954c1.73,38.059,50.169,43.249,76.119,65.738     C1411.963,1691.601,1406.772,1695.061,1401.583,1695.061z"
   id="path732" />
			<path
   d="M1108.785,1178.447c9.515-11.894,21.408-14.272,33.302-4.757C1134.951,1185.584,1120.679,1185.584,1108.785,1178.447z"
   id="path734" />
			<path
   fill="#67391B"
   d="M1124.787,1117.25l0.605,0.994c-2.5,1.531-5.017,3.097-7.534,4.688     c-5.501,3.486-11.029,7.128-16.53,10.899c-19.522-11.228-22.853-38.674,0.969-61.562     C1119.597,1080.92,1124.787,1099.596,1124.787,1117.25z"
   id="path736" />
			<path
   fill="#AD7E46"
   d="M1190.327,1243.503c-66.656-2.889-133.242,4.783-195.781,29.964h-0.009     c-0.225-51.043,52.063-102.121,106.791-139.635c5.501-3.771,11.029-7.413,16.53-10.899l0.008,0.009     c53.629-5.19,59.684,50.532,70.064,97.242l0.095,0.942c-3.633,0.363-7.621,0.908-11.963,1.652     C1166.817,1231.679,1182.006,1238.478,1190.327,1243.503z M1142.087,1173.69c-11.894-9.516-23.787-7.137-33.302,4.757     C1120.679,1185.584,1134.951,1185.584,1142.087,1173.69z"
   id="path738" />
		</g>
		<g
   id="g786">
			<path
   fill="none"
   stroke="#000000"
   stroke-width="5"
   stroke-linejoin="round"
   stroke-miterlimit="10"
   d="M1316.97,1374.652     c6.366-1.955,12.517-4.039,18.398-6.263c47.314-17.81,78.014-44.339,75.972-84.733c-0.908-17.975-8.304-38.691-23.597-62.608     c-15.033-23.501-40.265-50.532-70.35-74.916c-7.681-6.229-15.673-12.274-23.899-18.053     c-29.859-20.984-62.72-38.345-94.318-47.159"
   id="path742" />
			<path
   fill="none"
   stroke="#000000"
   stroke-width="5"
   stroke-linejoin="round"
   stroke-miterlimit="10"
   d="M1085.543,1366.47     c15.457,4.749,31.287,7.983,46.164,10.276c2.18,0.363,4.403,0.727,6.661,1.081c16.054,2.525,34.081,4.817,52.738,6.331     c5.06,0.407,10.172,0.762,15.301,1.047c17.179,0.952,34.574,1.134,51.208,0.13c5.337-0.312,10.587-0.761,15.725-1.341     c13.096-1.462,25.457-3.806,36.555-7.248c2.388-0.684,4.74-1.376,7.066-2.094"
   id="path744" />
			<path
   fill="none"
   stroke="#000000"
   stroke-width="5"
   stroke-linejoin="round"
   stroke-miterlimit="10"
   d="M1199.176,1080.92     c-18.58,6.964-45.516,20.042-73.784,37.324c-2.5,1.531-5.017,3.097-7.534,4.688c-5.501,3.486-11.029,7.128-16.53,10.899     c-54.728,37.514-107.016,88.592-106.791,139.635c0.061,13.753,3.944,27.506,12.611,41c17.36,26.624,47.116,42.401,78.385,52.003"
   id="path746" />
			<path
   fill="none"
   stroke="#000000"
   stroke-width="5"
   stroke-linejoin="round"
   stroke-miterlimit="10"
   d="M1293.234,1129.671     c0.087-0.536,0.174-1.063,0.26-1.592c3.702-21.624,14.116-36.502,42.298-47.159c10.38,24.22,4.222,52.912-18.398,65.212"
   id="path748" />
			<path
   fill="none"
   stroke="#000000"
   stroke-width="5"
   stroke-linejoin="round"
   stroke-miterlimit="10"
   d="M1124.787,1117.25     c0-17.654-5.19-36.33-22.489-44.979c-23.822,22.888-20.492,50.334-0.969,61.562"
   id="path750" />
			<path
   fill="none"
   stroke="#000000"
   stroke-width="5"
   stroke-linejoin="round"
   stroke-miterlimit="10"
   d="M994.546,1273.467     c62.539-25.181,129.125-32.853,195.781-29.964c3.183,0.13,6.375,0.294,9.558,0.484c72.14,4.187,144.141,20.354,210.945,39.694"
   id="path752" />
			<path
   fill="none"
   stroke="#000000"
   stroke-width="5"
   stroke-linejoin="round"
   stroke-miterlimit="10"
   d="M1194.237,1246.297     c-0.865-0.865-2.249-1.799-3.91-2.794c-8.321-5.025-23.51-11.824-14.264-20.725c4.342-0.744,8.33-1.289,11.963-1.652     c6.133-0.632,11.271-0.753,15.466-0.467c21.642,1.436,18.191,13.606-3.607,23.328     C1198.121,1244.774,1196.235,1245.545,1194.237,1246.297"
   id="path754" />
			<path
   fill="none"
   stroke="#000000"
   stroke-width="5"
   stroke-linejoin="round"
   stroke-miterlimit="10"
   d="M1194.237,1246.297     c-4.316,20.094-5.44,40.49-8.9,54.33"
   id="path756" />
			<path
   fill="none"
   stroke="#000000"
   stroke-width="5"
   stroke-linejoin="round"
   stroke-miterlimit="10"
   d="M1150.737,1290.247     c-4.264,11.375,0.528,15.154,8.252,15.656c11.063,0.727,28.173-5.276,33.268-5.276c10.562,0,27.506,7.967,38.379,4.429     c5.155-1.661,8.944-5.917,10.06-14.809"
   id="path758" />
			<path
   fill="none"
   stroke="#000000"
   stroke-width="5"
   stroke-linejoin="round"
   stroke-miterlimit="10"
   d="M1158.989,1305.964     c-9.125,39.686-1.046,42.739,26.348,43.059c2.188,0.026,4.489,0.035,6.92,0.044c43.258,0.146,29.729-16.331,38.379-44.011"
   id="path760" />
			<path
   fill="none"
   stroke="#000000"
   stroke-width="5"
   stroke-linejoin="round"
   stroke-miterlimit="10"
   d="M1108.785,1178.447     c9.515-11.894,21.408-14.272,33.302-4.757C1134.951,1185.584,1120.679,1185.584,1108.785,1178.447z"
   id="path762" />
			<path
   fill="none"
   stroke="#000000"
   stroke-width="5"
   stroke-linejoin="round"
   stroke-miterlimit="10"
   d="M1249.345,1176.709     C1312.438,1156.036,1273.115,1217.502,1249.345,1176.709L1249.345,1176.709z"
   id="path764" />
			<path
   fill="none"
   stroke="#000000"
   stroke-width="5"
   stroke-linejoin="round"
   stroke-miterlimit="10"
   d="M1085.543,1366.47     c-0.009,0-0.009,0-0.009,0c-57.081-6.92-86.646-39.409-137.204-65.843c-1.73,8.649-5.19,12.109,1.73,20.76     c-3.46,0-10.38,1.729-13.84,1.729c1.73,3.46,1.73,10.38,3.46,13.84c-5.19,1.73-15.57,5.19-20.76,5.19     c27.68,32.869,76.119,51.034,115.908,71.794c10.38,3.46,55.359,23.354,58.819,30.274c8.65,13.84-12.11,48.439-17.3,60.549     c-13.84,36.329-24.22,72.659-32.87,108.988c-5.19,19.03-3.46,32.869-17.3,43.249c-10.38,8.65-84.103,22.576-34.6,36.33     c-5.189,1.729-13.839,6.92-17.299,8.649c6.92,0,15.57,5.19,22.489,3.46c-3.46,3.46-8.649,13.84-12.109,15.57     c31.139,8.649,83.039-20.76,112.448-29.41c32.869-10.38,51.899-22.489,84.769-15.569c41.519,6.92,83.039,17.3,122.828,27.68     c27.68,8.649,74.39,32.869,102.068,24.22c-1.729-5.19-5.189-15.57-10.38-19.03c3.46,0,10.38-1.729,13.84-1.729     c-1.729-3.46-5.189-8.65-8.649-12.11c5.189,0,10.38-3.46,17.3-3.46c-25.95-22.489-74.389-27.68-76.119-65.738     c-0.83-15.821,0.165-27.957,0.692-39.954c0.121-2.751,0.225-5.493,0.268-8.278c0.104-6.651-0.086-13.511-0.96-21.157     c-0.476-4.16-1.15-8.563-2.084-13.295c-2.457-12.387-10.025-57.443-10.025-71.283c1.729-19.03,25.949-27.68,43.249-38.06     c32.869-19.03,105.528-53.629,122.828-88.229c-10.38,0-20.76,5.189-31.14,10.38c3.46-5.19,5.19-13.84,8.65-19.03     c-3.46,0-10.38,0-17.3,3.46c1.729-5.189,0-13.84,0-19.029c-20.76,8.649-39.79,22.489-60.55,32.869     c-17.965,7.698-41.563,9.489-61.024,14.134c-6.772,1.618-13.044,3.581-18.398,6.263h-0.009"
   id="path766" />
			<path
   fill="none"
   stroke="#000000"
   stroke-width="5"
   stroke-linejoin="round"
   stroke-miterlimit="10"
   d="M1342.764,1556.473     c15.57-22.489,30.344-46.26,42.454-70.479c15.569-25.949,27.178-40.55,54.425-67.729c39.063-38.959,93.418-79.578,150.508-84.769     c45.645-4.566,86.213,14.203,114.187,42.713c19.549,19.921,32.938,44.607,37.636,69.398     c8.943,47.323-13.814,95.079-86.084,111.056c-19.799,4.308-36.605-1.67-49.2-12.62c-38.042-33.06-37.688-111.454,34.703-89.103"
   id="path768" />
			<path
   fill="none"
   stroke="#000000"
   stroke-width="5"
   stroke-linejoin="round"
   stroke-miterlimit="10"
   d="M1606.688,1544.043     c-46.709,22.489-87.468,31.649-137.637,40.3c-32.869,5.189-108.988,8.649-126.288,41.52"
   id="path770" />
			<path
   fill="none"
   stroke="#000000"
   stroke-width="5"
   stroke-linejoin="round"
   stroke-miterlimit="10"
   d="M1138.368,1377.827     c-3.771,23.675-10.121,28.328-13.581,40.438c4.048-0.285,8.044-1.496,12.032-3.295c17.49-7.915,34.668-27.308,54.287-30.812     c2.638-0.476,5.328-0.666,8.07-0.492c2.31,0.189,4.731,0.727,7.231,1.539c19.947,6.505,45.057,30.759,61.968,39.979     c0-12.109-10.76-27.739-10.76-39.85"
   id="path772" />
			<path
   fill="none"
   stroke="#000000"
   stroke-width="5"
   stroke-linejoin="round"
   stroke-miterlimit="10"
   d="M1136.828,1414.961     l-0.009,0.009c-22.481,25.949-29.332,72.494-29.332,107.094c0,44.979,15.57,77.849,65.739,84.769     c53.629,6.92,100.338-25.949,117.638-76.119c10.38-32.869,17.075-125.959-17.524-146.719"
   id="path774" />
			<path
   fill="none"
   stroke="#000000"
   stroke-width="5"
   stroke-linejoin="round"
   stroke-miterlimit="10"
   d="M1117.867,1122.941     c53.629-5.19,59.684,50.532,70.064,97.242"
   id="path776" />
			<path
   fill="none"
   stroke="#000000"
   stroke-width="5"
   stroke-linejoin="round"
   stroke-miterlimit="10"
   d="M1203.501,1220.512     c10.38-53.629,30.915-90.841,89.733-90.841"
   id="path778" />
			<path
   fill="none"
   stroke="#000000"
   stroke-width="5"
   stroke-linejoin="round"
   stroke-miterlimit="10"
   d="M1342.764,1579.144     c0.312-0.51,0.632-1.012,0.96-1.514c19.645-30.248,66.933-49.157,92.459-79.786c24.22-29.409,48.439-55.359,79.578-74.389     c41.52-27.68,136.668-73.187,188.567-47.237"
   id="path780" />
			<path
   fill="none"
   stroke="#000000"
   stroke-width="5"
   stroke-linejoin="round"
   stroke-miterlimit="10"
   d="M1342.764,1586.072     c0.233-0.052,0.459-0.104,0.692-0.164c74.06-17.585,132.706-89.915,194.795-127.854c55.359-32.87,157.004-85.106,203.713-12.447"
   id="path782" />
			<path
   fill="none"
   stroke="#000000"
   stroke-width="5"
   stroke-linejoin="round"
   stroke-miterlimit="10"
   d="M1192.256,1300.627     c-2.465,16.798-8.027,33.769-6.92,48.188"
   id="path784" />
		</g>
	</g>
</g>
<g
   id="圖層_1_1_"
   display="none">
	<polygon
   display="inline"
   opacity="0.7"
   fill="#D4635F"
   enable-background="new    "
   points="1288.479,890.383 648.979,390    795.475,1388.062  "
   id="polygon790" />
</g>
<g
   id="圖層_6">
	<polygon
   opacity="0.6"
   fill="#A6C028"
   enable-background="new    "
   points="967.417,1006.646 1292.171,344.646 1616.923,1006.646     "
   id="polygon793" />
</g>
<g
   id="圖層_7">
	<polygon
   opacity="0.6"
   fill="#0D63A1"
   enable-background="new    "
   points="1288.479,890.383 1932.947,391.336 1789.527,1389.396     "
   id="polygon796" />
</g>
<g
   id="圖層_4">
	<circle
   opacity="0.5"
   fill="#2490C7"
   enable-background="new    "
   cx="1291.152"
   cy="1386.366"
   r="496"
   id="circle799" />
	<polygon
   fill="#060001"
   points="1976.251,555.148 1787.152,453.915 1900.665,344.541 2004.363,400.054  "
   id="polygon801" />
	<polygon
   fill="#060001"
   points="1399.416,449.846 1184.924,449.846 1233.377,299.845 1350.998,299.845  "
   id="polygon803" />
	<polygon
   fill="#060001"
   points="606.052,555.15 795.152,453.917 681.638,344.542 577.94,400.055  "
   id="polygon805" />
	
		<line
   fill="none"
   stroke="#060001"
   stroke-width="40"
   stroke-miterlimit="10"
   x1="570.468"
   y1="107.385"
   x2="554.494"
   y2="267.383"
   id="line807" />
	<line
   fill="none"
   stroke="#060001"
   stroke-width="40"
   stroke-miterlimit="10"
   x1="556.161"
   y1="257.63"
   x2="631.769"
   y2="391.23"
   id="line809" />
	
		<line
   fill="none"
   stroke="#060001"
   stroke-width="40"
   stroke-miterlimit="10"
   x1="2000.393"
   y1="117.385"
   x2="2016.365"
   y2="277.383"
   id="line811" />
	
		<line
   fill="none"
   stroke="#060001"
   stroke-width="40"
   stroke-miterlimit="10"
   x1="2014.699"
   y1="267.63"
   x2="1944.689"
   y2="391.336"
   id="line813" />
	
		<line
   fill="none"
   stroke="#060001"
   stroke-width="40"
   stroke-miterlimit="10"
   x1="1283.529"
   y1="112.968"
   x2="1293.424"
   y2="316.649"
   id="line815" />
</g>
</svg>