<?xml version="1.0" encoding="UTF-8" standalone="no"?>
<!-- Generator: Adobe Illustrator 16.0.0, SVG Export Plug-In . SVG Version: 6.00 Build 0)  -->

<svg
   xmlns:dc="http://purl.org/dc/elements/1.1/"
   xmlns:cc="http://creativecommons.org/ns#"
   xmlns:rdf="http://www.w3.org/1999/02/22-rdf-syntax-ns#"
   xmlns:svg="http://www.w3.org/2000/svg"
   xmlns="http://www.w3.org/2000/svg"
   xmlns:sodipodi="http://sodipodi.sourceforge.net/DTD/sodipodi-0.dtd"
   xmlns:inkscape="http://www.inkscape.org/namespaces/inkscape"
   version="1.1"
   id="圖層_1"
   x="0px"
   y="0px"
   width="2560px"
   height="1920px"
   viewBox="0 0 2560 1920"
   enable-background="new 0 0 2560 1920"
   xml:space="preserve"
   sodipodi:docname="on-on-on.svg"
   inkscape:version="0.92.3 (2405546, 2018-03-11)"><metadata
   id="metadata1948"><rdf:RDF><cc:Work
       rdf:about=""><dc:format>image/svg+xml</dc:format><dc:type
         rdf:resource="http://purl.org/dc/dcmitype/StillImage" /></cc:Work></rdf:RDF></metadata><defs
   id="defs1946" /><sodipodi:namedview
   pagecolor="#ffffff"
   bordercolor="#666666"
   borderopacity="1"
   objecttolerance="10"
   gridtolerance="10"
   guidetolerance="10"
   inkscape:pageopacity="0"
   inkscape:pageshadow="2"
   inkscape:window-width="1920"
   inkscape:window-height="1052"
   id="namedview1944"
   showgrid="false"
   inkscape:zoom="0.34766083"
   inkscape:cx="1473.6372"
   inkscape:cy="899.22005"
   inkscape:window-x="0"
   inkscape:window-y="0"
   inkscape:window-maximized="1"
   inkscape:current-layer="圖層_1" />
<rect
   style="fill:#ffe6d5"
   id="rect211"
   width="2301.0933"
   height="1507.2161"
   x="117.93102"
   y="151.03456" /><g
   id="圖層_5">
	<rect
   y="-3.53"
   fill="#040000"
   width="2560"
   height="184.529"
   id="rect1646" />
	<rect
   y="1608.115"
   fill="#AD7F46"
   stroke="#040000"
   stroke-width="10"
   stroke-miterlimit="10"
   width="2560"
   height="313.382"
   id="rect1648" />
	<g
   id="XMLID_2_">
		<g
   id="g1656">
			<path
   fill="#6E1318"
   d="M171.05,1123.26c-1.74,4.933-3.35,9.87-4.8,14.84c-4.2,14.271-3.14,29.19,0.35,44.382l-0.35,0.078     c-45.06,19.313-98.71,26.36-150.21,24.21c-17.17,0-55.79,2.15-66.52-15.02c-0.12-0.16-0.24-0.33-0.35-0.51     c0.1-9.12,0.22-18.25,0.35-27.393c0.12-6.72,0.25-13.448,0.39-20.17c0.67-4.16,1.3-7.62,1.75-9.87     C7.46,1144.54,121.7,1155.45,171.05,1123.26z"
   id="path1650" />
			<path
   fill="#9D1F24"
   d="M370.12,1938.53c-79.4,0-156.66,0-233.91,0c-47.21,0-92.27-2.15-137.34,2.14     c-36.48,2.15-42.92,12.88-49.35-23.6c-15.03-98.71,0-212.45,0-311.16c0-138.931-1.89-275.97-0.35-414.67     c0.11,0.18,0.23,0.35,0.35,0.51c10.73,17.17,49.35,15.021,66.52,15.021c51.5,2.149,105.15-4.898,150.21-24.211l0.35-0.078     c5.42,23.658,16.73,47.979,23.26,71.5c17.17,62.229,45.06,122.318,64.38,186.688c42.92,154.51,47.21,313.312,96.56,463.521     C355.09,1917.07,365.82,1927.8,370.12,1938.53z"
   id="path1652" />
			<path
   fill="#9D1F24"
   d="M421.62-3.53c0,96.57-15.021,201.72-30.04,296.14c-21.46,133.042-32.19,268.24-66.53,396.99     c-25.75,98.71-53.65,203.86-92.27,300.432c-17.46,42.66-45.41,87.067-61.73,133.229c-49.35,32.19-163.59,21.28-219.39,10.552     c-0.45,2.25-1.08,5.709-1.75,9.868c6.7-340.829,23.21-679.68,23.21-1020.6c0-23.61-10.73-81.55,0-103.01     C-16.15,0.76-20.44,9.34,1.02,5.05c34.33-6.44,72.96,0,107.29,0C209.17,5.05,322.91,9.34,421.62-3.53z"
   id="path1654" />
		</g>
		<g
   id="g1664">
			<path
   fill="none"
   stroke="#040000"
   stroke-width="10"
   stroke-miterlimit="10"
   d="M421.62-3.53     c0,96.57-15.021,201.72-30.04,296.14c-21.46,133.042-32.19,268.24-66.53,396.99c-25.75,98.71-53.65,203.86-92.27,300.432     c-17.46,42.66-45.41,87.067-61.73,133.229c-1.74,4.933-3.35,9.87-4.8,14.84c-4.2,14.271-3.14,29.19,0.35,44.382     c5.42,23.658,16.73,47.979,23.26,71.5c17.17,62.229,45.06,122.318,64.38,186.688c42.92,154.51,47.21,313.312,96.56,463.521     c4.29,12.881,15.021,23.608,19.32,34.341"
   id="path1658" />
			<path
   fill="none"
   stroke="#040000"
   stroke-width="10"
   stroke-miterlimit="10"
   d="M421.62-3.53     C322.91,9.34,209.17,5.05,108.31,5.05c-34.33,0-72.96-6.44-107.29,0c-21.46,4.29-17.17-4.29-27.9,15.02     c-10.73,21.46,0,79.4,0,103.01c0,340.92-16.51,679.77-23.21,1020.6c-0.14,6.723-0.27,13.45-0.39,20.17     c-0.13,9.143-0.25,18.271-0.35,27.393c-1.54,138.698,0.35,275.739,0.35,414.67c0,98.71-15.03,212.45,0,311.16     c6.43,36.479,12.87,25.75,49.35,23.6c45.07-4.29,90.13-2.14,137.34-2.14c77.25,0,154.51,0,233.91,0"
   id="path1660" />
			<path
   fill="none"
   stroke="#040000"
   stroke-width="10"
   stroke-miterlimit="10"
   d="M171.05,1123.26     c-49.35,32.19-163.59,21.28-219.39,10.55c-0.45,2.25-1.08,5.712-1.75,9.87c-2.46,15.33-5.34,40.07-0.74,47.563     c0.11,0.18,0.23,0.35,0.35,0.51c10.73,17.17,49.35,15.021,66.52,15.021c51.5,2.148,105.15-4.899,150.21-24.21"
   id="path1662" />
		</g>
	</g>
	<g
   id="XMLID_3_">
		<g
   id="g1673">
			<path
   fill="#9D1F24"
   d="M2131.768-3.53c0,96.57,15.021,201.72,30.041,296.14c21.459,133.042,32.189,268.24,66.529,396.99     c25.75,98.71,53.649,203.86,92.271,300.432c17.46,42.66,45.408,87.067,61.729,133.229c49.352,32.19,163.59,21.28,219.392,10.552     c0.448,2.25,1.08,5.709,1.75,9.868c-6.7-340.829-23.211-679.68-23.211-1020.6c0-23.61,10.729-81.55,0-103.01     c-10.729-19.31-6.438-10.73-27.898-15.021c-34.33-6.44-72.961,0-107.29,0C2344.218,5.05,2230.479,9.34,2131.768-3.53z"
   id="path1667" />
			<path
   fill="#9D1F24"
   d="M2183.268,1938.53c79.4,0,156.66,0,233.91,0c47.21,0,92.271-2.15,137.34,2.14     c36.48,2.15,42.92,12.88,49.353-23.6c15.029-98.71,0-212.45,0-311.16c0-138.931,1.89-275.97,0.351-414.67     c-0.109,0.18-0.229,0.35-0.351,0.51c-10.729,17.17-49.353,15.021-66.521,15.021c-51.5,2.149-105.149-4.898-150.209-24.211     l-0.352-0.078c-5.42,23.658-16.729,47.979-23.261,71.5c-17.17,62.229-45.062,122.318-64.38,186.688     c-42.92,154.51-47.21,313.312-96.562,463.521C2198.298,1917.07,2187.566,1927.8,2183.268,1938.53z"
   id="path1669" />
			<path
   fill="#6E1318"
   d="M2382.338,1123.26c1.74,4.933,3.35,9.87,4.8,14.84c4.2,14.271,3.14,29.19-0.35,44.382l0.35,0.078     c45.062,19.313,98.71,26.36,150.21,24.21c17.17,0,55.79,2.15,66.521-15.02c0.119-0.16,0.238-0.33,0.35-0.51     c-0.1-9.12-0.22-18.25-0.35-27.393c-0.12-6.72-0.25-13.448-0.393-20.17c-0.67-4.16-1.3-7.62-1.75-9.87     C2545.928,1144.54,2431.688,1155.45,2382.338,1123.26z"
   id="path1671" />
		</g>
		<g
   id="g1681">
			<path
   fill="none"
   stroke="#040000"
   stroke-width="10"
   stroke-miterlimit="10"
   d="M2131.768-3.53     c0,96.57,15.021,201.72,30.041,296.14c21.459,133.042,32.189,268.24,66.529,396.99c25.75,98.71,53.649,203.86,92.271,300.432     c17.46,42.66,45.408,87.067,61.729,133.229c1.74,4.933,3.352,9.87,4.801,14.84c4.199,14.271,3.141,29.19-0.351,44.382     c-5.42,23.658-16.729,47.979-23.261,71.5c-17.17,62.229-45.062,122.318-64.38,186.688     c-42.92,154.51-47.21,313.312-96.562,463.521c-4.29,12.881-15.021,23.608-19.318,34.341"
   id="path1675" />
			<path
   fill="none"
   stroke="#040000"
   stroke-width="10"
   stroke-miterlimit="10"
   d="M2131.768-3.53     c98.711,12.87,212.45,8.58,313.313,8.58c34.329,0,72.96-6.44,107.29,0c21.46,4.29,17.17-4.29,27.897,15.02     c10.73,21.46,0,79.4,0,103.01c0,340.92,16.512,679.77,23.211,1020.6c0.142,6.723,0.271,13.45,0.392,20.17     c0.13,9.143,0.25,18.271,0.351,27.393c1.541,138.698-0.351,275.739-0.351,414.67c0,98.71,15.029,212.45,0,311.16     c-6.431,36.479-12.87,25.75-49.353,23.6c-45.068-4.29-90.129-2.14-137.34-2.14c-77.25,0-154.51,0-233.91,0"
   id="path1677" />
			<path
   fill="none"
   stroke="#040000"
   stroke-width="10"
   stroke-miterlimit="10"
   d="M2382.338,1123.26     c49.35,32.19,163.59,21.28,219.39,10.55c0.45,2.25,1.08,5.712,1.75,9.87c2.46,15.33,5.341,40.07,0.74,47.563     c-0.11,0.18-0.229,0.35-0.351,0.51c-10.729,17.17-49.352,15.021-66.521,15.021c-51.5,2.148-105.148-4.899-150.21-24.21"
   id="path1679" />
		</g>
	</g>
	<g
   id="g1688">
		<g
   id="g1686">
			<path
   fill="#6E1318"
   d="M321.136,84.451c-0.161,62.86-15.219,124.639-24.26,186.559c-9.251,63.357-16.05,127.046-25.547,190.37     c-9.244,61.632-21.048,123.01-39.977,182.466c-17.871,56.132-40.857,110.469-63.707,164.705     c-33.237,78.896-66.664,158.406-84.261,242.534c-1.394,6.663,1.86,13.486,8.73,15.377c6.254,1.72,13.981-2.061,15.377-8.73     c24.173-115.567,77.813-221.662,120.601-330.902c21.774-55.592,39.57-112.09,51.788-170.562     c13.327-63.774,21.49-128.495,29.708-193.083c5.864-46.088,11.868-92.139,19.725-137.937     c7.986-46.553,16.701-93.404,16.823-140.797C346.177,68.328,321.177,68.332,321.136,84.451L321.136,84.451z"
   id="path1684" />
		</g>
	</g>
	<g
   id="g1694">
		<g
   id="g1692">
			<path
   fill="#6E1318"
   d="M173.513,87.565c-5.962,32.707-7.658,65.859-8.806,99.022c-1.119,32.333-2.644,64.361-7.021,96.436     c-8.956,65.614-17.999,131.217-27.806,196.71c-9.636,64.351-18.967,128.779-29.241,193.031     C90.488,736.25,78.268,799.36,61.21,861.379C45.148,919.78,27.145,978.021,19.007,1038.21     c-0.912,6.747,1.509,13.391,8.731,15.377c5.894,1.621,14.461-1.965,15.376-8.73C51.679,981.5,71.112,920.299,87.843,858.79     c16.876-62.041,28.4-125.415,38.411-188.878c10.155-64.38,19.608-128.899,29.2-193.366c9.746-65.496,18.73-131.102,27.68-196.71     c8.399-61.571,3.325-124.4,14.485-185.622c1.221-6.697-1.733-13.452-8.731-15.377C182.766,77.15,174.736,80.856,173.513,87.565     L173.513,87.565z"
   id="path1690" />
		</g>
	</g>
	<g
   id="g1700">
		<g
   id="g1698">
			<path
   fill="#6E1318"
   d="M98.406,1304.513c24.829,118.581,38.573,239.26,66.487,357.229     c13.589,57.431,30.732,114.103,53.685,168.521c2.646,6.273,8.157,10.716,15.376,8.73c5.925-1.63,11.384-9.085,8.731-15.377     c-47.443-112.486-69.093-233.208-89.141-352.981c-9.659-57.709-19.037-115.484-31.03-172.77     c-1.397-6.671-9.122-10.451-15.377-8.73C100.267,1291.025,97.011,1297.85,98.406,1304.513L98.406,1304.513z"
   id="path1696" />
		</g>
	</g>
	<g
   id="g1706">
		<g
   id="g1704">
			<path
   fill="#6E1318"
   d="M22.853,1303.335c5.911,129.151,32.671,256.063,58.179,382.439     c12.708,62.957,25.123,126.005,34.542,189.554c1.001,6.751,9.418,10.369,15.377,8.729c7.159-1.97,9.729-8.643,8.73-15.377     c-18.882-127.393-49.748-252.603-70.948-379.588c-10.267-61.496-18.028-123.444-20.88-185.759c-0.312-6.807-5.45-12.5-12.5-12.5     C28.774,1290.835,22.541,1296.522,22.853,1303.335L22.853,1303.335z"
   id="path1702" />
		</g>
	</g>
	<g
   id="g1712">
		<g
   id="g1710">
			<path
   fill="#6E1318"
   d="M2207.402,165.996c4.479,123.572,21.916,246.625,47.144,367.587     c12.487,59.876,27.101,119.31,43.63,178.197c15.943,56.796,31.731,113.528,50.734,169.406     c20.871,61.369,44.879,121.963,74.791,179.528c3.139,6.041,11.445,7.798,17.102,4.484c6.092-3.567,7.627-11.058,4.484-17.104     c-54.219-104.348-89.086-218.01-119.728-331.139c-15.936-58.838-31.425-117.644-44.211-177.268     c-13.053-60.865-23.923-122.208-32.343-183.885c-8.593-62.936-14.305-126.33-16.604-189.812c-0.248-6.808-5.5-12.5-12.5-12.5     C2213.275,153.496,2207.155,159.183,2207.402,165.996L2207.402,165.996z"
   id="path1708" />
		</g>
	</g>
	<g
   id="g1718">
		<g
   id="g1716">
			<path
   fill="#6E1318"
   d="M2396.243,187.456c0.021,130.287,4.746,260.589,15.762,390.425     c11.06,130.362,28.568,260.239,53.603,388.665c0.627,3.215,1.264,6.428,1.897,9.644c1.324,6.688,9.177,10.436,15.377,8.729     c6.923-1.904,10.053-8.699,8.729-15.377c-25.248-127.492-42.868-256.362-54.105-385.827     c-11.268-129.798-16.094-260.108-16.26-390.377c-0.002-1.96-0.003-3.92-0.003-5.88     C2421.24,171.334,2396.24,171.333,2396.243,187.456L2396.243,187.456z"
   id="path1714" />
		</g>
	</g>
	<g
   id="g1724">
		<g
   id="g1722">
			<path
   fill="#6E1318"
   d="M2409.119,1303.335c-4.789,63.04-12.671,125.795-23.023,188.157c-5.238,31.56-11.143,63.008-17.602,94.34     c-6.237,30.262-13.837,60.257-19.41,90.649c-11.543,62.945-16.248,128.008-40.378,187.906c-2.55,6.331,2.728,13.728,8.729,15.377     c7.141,1.964,12.834-2.416,15.377-8.729c22.309-55.38,28.106-115.387,37.905-173.788c5.067-30.202,12.368-59.898,18.75-89.834     c6.661-31.244,12.699-62.62,18.156-94.097c12.054-69.522,21.146-139.619,26.493-209.982c0.517-6.803-6.077-12.5-12.5-12.5     C2414.415,1290.835,2409.635,1296.543,2409.119,1303.335L2409.119,1303.335z"
   id="path1720" />
		</g>
	</g>
	<g
   id="g1730">
		<g
   id="g1728">
			<path
   fill="#6E1318"
   d="M2477.788,1307.627c0.017,66.028,1.529,132.074-0.656,198.085     c-2.145,64.768-10.056,128.792-19.661,192.822c-9.61,64.068-19.984,128.121-24.746,192.783c-0.502,6.805,6.064,12.5,12.5,12.5     c7.191,0,12-5.707,12.5-12.5c4.74-64.392,15.186-128.119,24.721-191.923c9.712-64.979,17.576-129.948,19.754-195.665     c2.163-65.347,0.604-130.738,0.591-196.104C2502.784,1291.506,2477.784,1291.505,2477.788,1307.627L2477.788,1307.627z"
   id="path1726" />
		</g>
	</g>
</g>
<g
   id="圖層_2"
   display="none">
	<g
   id="XMLID_1_"
   display="inline">
		<g
   id="g1771">
			<path
   fill="#925F33"
   d="M1740.898,1445.964c8.962,47.323-13.798,95.088-86.074,111.064c-19.801,4.308-36.606-1.67-49.2-12.62     c-46.71,22.489-87.468,31.647-137.637,40.299c-32.87,5.188-108.988,8.649-126.288,41.52c-0.831-15.818,0.164-27.956,0.691-39.952     c74.061-17.587,132.707-89.916,194.795-127.854C1592.545,1425.55,1694.181,1373.313,1740.898,1445.964z"
   id="path1733" />
			<path
   fill="#C49D62"
   d="M1703.271,1376.574c19.541,19.921,32.938,44.59,37.627,69.39c-46.72-72.65-148.354-20.414-203.715,12.456     c-62.088,37.938-120.732,110.27-194.795,127.854c0.121-2.751,0.228-5.493,0.271-8.278c19.644-30.248,66.933-49.157,92.458-79.786     c24.22-29.41,48.438-55.359,79.579-74.389c41.52-27.682,136.668-73.188,188.565-47.237L1703.271,1376.574z"
   id="path1735" />
			<path
   fill="#925F33"
   d="M1703.271,1376.574l-0.01,0.009c-51.897-25.949-147.048,19.558-188.565,47.237     c-31.142,19.027-55.359,44.979-79.579,74.389c-25.525,30.629-72.814,49.538-92.458,79.786c0.104-6.651-0.087-13.511-0.96-21.157     c15.567-22.489,30.344-46.26,42.453-70.479c15.568-25.949,27.178-40.552,54.425-67.729     c39.063-38.959,93.419-79.578,150.508-84.769C1634.73,1329.294,1675.299,1348.063,1703.271,1376.574z"
   id="path1737" />
			<path
   fill="#925F33"
   d="M1342.659,1577.995c-0.043,2.785-0.147,5.527-0.271,8.277c-0.525,11.996-1.521,24.134-0.689,39.952     c1.729,38.062,50.169,43.25,76.118,65.739c-6.921,0-12.109,3.46-17.3,3.46c3.459,3.46,6.92,8.649,8.648,12.109     c-3.46,0-10.38,1.729-13.84,1.729c5.189,3.46,8.649,13.84,10.38,19.029c-27.68,8.65-74.389-15.569-102.067-24.22     c-39.789-10.38-81.31-20.76-122.827-27.681c-32.87-6.92-51.899,5.189-84.771,15.569c-29.41,8.649-81.309,38.061-112.448,29.409     c3.462-1.729,8.65-12.109,12.11-15.569c-6.92,1.729-15.57-3.46-22.49-3.46c3.46-1.729,12.11-6.92,17.301-8.648     c-49.504-13.753,24.22-27.68,34.6-36.329c13.84-10.38,12.109-24.221,17.3-43.249c8.65-36.33,19.03-72.659,32.87-108.988     c5.189-12.11,25.95-46.709,17.3-60.549c-3.46-6.92-48.438-26.815-58.818-30.275c-39.789-20.759-88.229-38.924-115.907-71.793     c5.189,0,15.568-3.46,20.76-5.188c-1.729-3.46-1.729-10.38-3.46-13.84c3.46,0,10.38-1.729,13.84-1.729     c-6.92-8.649-3.46-12.108-1.729-20.76c50.56,26.434,80.125,58.923,137.205,65.843c0,0,0,0,0.009,0     c15.457,4.748,31.287,7.983,46.164,10.275c2.18,0.363,4.401,0.727,6.661,1.082c-3.771,23.674-10.121,28.328-13.581,40.438     c4.048-0.284,8.044-1.495,12.03-3.296c-22.479,25.95-29.332,72.495-29.332,107.096c0,44.979,15.569,77.85,65.739,84.77     c53.629,6.92,100.338-25.95,117.64-76.119c10.38-32.869,17.073-125.959-17.524-146.719c13.096-1.462,25.456-3.807,36.554-7.249     c2.388-0.685,4.74-1.375,7.067-2.094h0.009c6.366-1.954,12.517-4.039,18.398-6.264c19.462-4.645,43.059-6.436,61.022-14.134     c20.76-10.38,39.789-24.22,60.549-32.869c0,5.188,1.73,13.84,0,19.029c6.92-3.46,13.84-3.46,17.301-3.46     c-3.461,5.189-5.188,13.84-8.648,19.029c10.38-5.189,20.76-10.381,31.14-10.381c-17.3,34.601-89.959,69.198-122.828,88.229     c-17.3,10.38-41.52,19.029-43.25,38.059c0,13.841,7.569,58.897,10.025,71.284c0.936,4.73,1.609,9.134,2.085,13.295     C1342.572,1564.484,1342.763,1571.344,1342.659,1577.995z"
   id="path1739" />
			<path
   fill="#C49D62"
   d="M1229.571,1305.421c-10.873,3.537-27.818-4.429-38.379-4.429c-5.097,0-22.204,6.003-33.27,5.276v0.061     c-9.125,39.686-1.046,42.738,26.349,43.059c2.188,0.026,4.488,0.035,6.921,0.043     C1234.449,1349.578,1220.921,1333.101,1229.571,1305.421z M1193.172,1246.662c1.998-0.753,3.884-1.522,5.648-2.312     c72.14,4.188,144.142,20.354,210.942,39.694l0.513-0.026c2.041,40.396-28.657,66.927-75.974,84.734     c-6.771,1.617-13.044,3.581-18.396,6.263h-0.011c-2.326,0.72-4.68,1.41-7.065,2.095c-11.1,3.441-23.458,5.785-36.554,7.248     c-5.14,0.578-10.391,1.028-15.728,1.342c-16.634,1.003-34.029,0.819-51.208-0.131c-2.5-0.813-4.921-1.351-7.23-1.539     c-2.741-0.174-5.433,0.018-8.069,0.492c-18.658-1.515-36.685-3.807-52.738-6.332c-2.258-0.354-4.479-0.719-6.661-1.082     c-14.877-2.291-30.707-5.525-46.164-10.273c-0.009,0-0.009,0-0.009,0c-31.269-9.604-61.024-25.379-78.385-52.003     c-8.667-13.494-12.552-27.247-12.611-41.001h0.009c62.539-25.182,129.125-32.854,195.781-29.963     C1190.923,1244.863,1192.307,1245.797,1193.172,1246.662z"
   id="path1741" />
			<path
   fill="#AD7F46"
   d="M1410.275,1284.021l-0.513,0.026c-66.803-19.341-138.804-35.508-210.942-39.694     c21.798-9.723,25.249-21.893,3.605-23.327l0.01-0.146c10.38-53.629,30.914-90.841,89.732-90.841     c0.087-0.536,0.173-1.063,0.261-1.592c8.227,5.776,16.219,11.822,23.898,18.053c30.084,24.393,55.314,51.414,70.35,74.916     C1401.972,1245.33,1409.367,1266.047,1410.275,1284.021z M1248.28,1177.074C1272.05,1217.866,1311.372,1156.4,1248.28,1177.074     L1248.28,1177.074z"
   id="path1743" />
			<path
   fill="#67391B"
   d="M1334.729,1081.285c10.381,24.22,4.222,52.911-18.397,65.212c-7.682-6.229-15.674-12.274-23.899-18.053     C1296.132,1106.819,1306.546,1091.942,1334.729,1081.285z"
   id="path1745" />
			<path
   fill="#925F33"
   d="M1292.43,1128.444c-0.087,0.525-0.173,1.056-0.26,1.592c-58.818,0-79.354,37.212-89.734,90.841     l-0.008,0.146c-4.193-0.283-9.333-0.162-15.466,0.47l-0.095-0.943c-10.38-46.709-16.437-102.432-70.064-97.241     c2.52-1.601,5.035-3.155,7.534-4.688c28.259-17.282,55.195-30.361,73.775-37.333     C1229.709,1090.1,1262.57,1107.46,1292.43,1128.444z"
   id="path1747" />
			<path
   fill="#C49D62"
   d="M1272.275,1384.359c34.6,20.76,27.902,113.85,17.522,146.719c-17.3,50.169-64.009,83.039-117.638,76.119     c-50.169-6.92-65.739-39.789-65.739-84.771c0-34.6,6.853-81.145,29.332-107.095c17.49-7.914,34.668-27.308,54.287-30.812     c5.061,0.406,10.172,0.763,15.301,1.048c19.947,6.505,45.058,30.759,61.969,39.979c0-12.108-10.761-27.74-10.761-39.85     C1261.887,1385.389,1267.137,1384.938,1272.275,1384.359z"
   id="path1749" />
			<path
   fill="#040000"
   d="M1248.28,1177.074C1311.372,1156.4,1272.05,1217.866,1248.28,1177.074L1248.28,1177.074z"
   id="path1751" />
			<path
   fill="#B81C25"
   d="M1256.55,1385.7c0,12.107,10.761,27.74,10.761,39.85c-16.91-9.221-42.021-33.475-61.969-39.979     C1222.521,1386.521,1239.916,1386.703,1256.55,1385.7z"
   id="path1753" />
			<path
   fill="#FFFFFF"
   d="M1191.191,1300.992c10.562,0,27.506,7.966,38.379,4.429c-8.65,27.68,4.878,44.157-38.379,44.01     c-2.433-0.008-4.731-0.017-6.92-0.043v-0.207C1183.164,1334.761,1188.726,1317.79,1191.191,1300.992z"
   id="path1755" />
			<path
   fill="#040000"
   d="M1202.428,1221.022c21.644,1.438,18.19,13.605-3.605,23.328c-3.185-0.188-6.375-0.354-9.56-0.482     c-8.32-5.025-23.51-11.824-14.264-20.727c4.342-0.742,8.33-1.287,11.963-1.65     C1193.094,1220.859,1198.232,1220.738,1202.428,1221.022z"
   id="path1757" />
			<path
   fill="#040000"
   d="M1198.82,1244.353c-1.766,0.787-3.65,1.559-5.648,2.312c-0.865-0.865-2.249-1.799-3.91-2.794     C1192.445,1243.998,1195.637,1244.162,1198.82,1244.353z"
   id="path1759" />
			<path
   fill="#AD7F46"
   d="M1186.866,1220.548l0.095,0.943c-3.633,0.363-7.621,0.908-11.963,1.65     c-9.247,8.9,5.943,15.699,14.264,20.727c-66.656-2.891-133.242,4.783-195.781,29.963h-0.009     c-0.225-51.043,52.063-102.12,106.792-139.635c5.501-3.771,11.037-7.404,16.538-10.892     C1170.432,1118.116,1176.486,1173.839,1186.866,1220.548z M1141.021,1174.055c-11.895-9.515-23.786-7.136-33.303,4.76     C1119.614,1185.948,1133.886,1185.948,1141.021,1174.055z"
   id="path1761" />
			<path
   fill="#FFFFFF"
   d="M1184.271,1349.181v0.207c-27.396-0.318-35.475-3.373-26.35-43.059v-0.061     c11.063,0.727,28.173-5.276,33.27-5.276C1188.726,1317.79,1183.164,1334.761,1184.271,1349.181z"
   id="path1763" />
			<path
   fill="#B81C25"
   d="M1135.754,1415.334c-3.988,1.8-7.984,3.011-12.032,3.296c3.46-12.109,9.811-16.764,13.581-40.438     c16.056,2.523,34.081,4.815,52.738,6.331C1170.423,1388.026,1153.244,1407.42,1135.754,1415.334z"
   id="path1765" />
			<path
   fill="#040000"
   d="M1107.72,1178.813c9.517-11.896,21.408-14.272,33.302-4.76     C1133.886,1185.948,1119.614,1185.948,1107.72,1178.813z"
   id="path1767" />
			<path
   fill="#67391B"
   d="M1123.722,1117.614l0.614,1.004c-2.5,1.531-5.017,3.088-7.534,4.688     c-5.501,3.485-11.037,7.118-16.538,10.892c-19.521-11.229-22.853-38.673,0.971-61.563     C1118.532,1081.285,1123.722,1099.96,1123.722,1117.614z"
   id="path1769" />
		</g>
		<g
   id="g1817">
			<path
   fill="none"
   stroke="#040000"
   stroke-width="5"
   stroke-linejoin="round"
   stroke-miterlimit="10"
   d="M1315.905,1375.018     c6.366-1.954,12.517-4.04,18.396-6.263c47.314-17.81,78.015-44.339,75.974-84.734c-0.908-17.974-8.306-38.688-23.599-62.605     c-15.034-23.502-40.266-50.523-70.35-74.916c-7.683-6.229-15.674-12.274-23.899-18.053     c-29.858-20.984-62.721-38.346-94.316-47.159"
   id="path1773" />
			<path
   fill="none"
   stroke="#040000"
   stroke-width="5"
   stroke-linejoin="round"
   stroke-miterlimit="10"
   d="M1084.479,1366.835     c15.457,4.748,31.286,7.983,46.164,10.275c2.181,0.361,4.402,0.727,6.66,1.082c16.056,2.523,34.081,4.815,52.738,6.331     c5.062,0.405,10.172,0.762,15.301,1.047c17.181,0.951,34.574,1.133,51.208,0.13c5.337-0.313,10.587-0.762,15.728-1.341     c13.096-1.462,25.456-3.808,36.554-7.249c2.388-0.685,4.74-1.375,7.067-2.094"
   id="path1775" />
			<path
   fill="none"
   stroke="#040000"
   stroke-width="5"
   stroke-linejoin="round"
   stroke-miterlimit="10"
   d="M1198.111,1081.285     c-18.58,6.972-45.518,20.051-73.775,37.333c-2.5,1.531-5.017,3.088-7.534,4.688c-5.501,3.485-11.037,7.118-16.538,10.892     c-54.728,37.515-107.016,88.592-106.792,139.635c0.063,13.754,3.944,27.507,12.611,41.001     c17.36,26.624,47.116,42.401,78.385,52.003"
   id="path1777" />
			<path
   fill="none"
   stroke="#040000"
   stroke-width="5"
   stroke-linejoin="round"
   stroke-miterlimit="10"
   d="M1292.17,1130.036     c0.087-0.536,0.173-1.064,0.26-1.592c3.702-21.625,14.116-36.502,42.299-47.159c10.381,24.22,4.222,52.911-18.397,65.212"
   id="path1779" />
			<path
   fill="none"
   stroke="#040000"
   stroke-width="5"
   stroke-linejoin="round"
   stroke-miterlimit="10"
   d="M1123.722,1117.614     c0-17.654-5.188-36.329-22.487-44.979c-23.822,22.888-20.492,50.333-0.971,61.563"
   id="path1781" />
			<path
   fill="none"
   stroke="#040000"
   stroke-width="5"
   stroke-linejoin="round"
   stroke-miterlimit="10"
   d="M993.48,1273.831     c62.539-25.18,129.125-32.852,195.78-29.963c3.185,0.13,6.375,0.294,9.56,0.484c72.14,4.187,144.142,20.354,210.942,39.692"
   id="path1783" />
			<path
   fill="none"
   stroke="#040000"
   stroke-width="5"
   stroke-linejoin="round"
   stroke-miterlimit="10"
   d="M1193.172,1246.662     c-0.865-0.865-2.249-1.799-3.91-2.794c-8.319-5.025-23.51-11.824-14.264-20.725c4.342-0.744,8.33-1.289,11.963-1.652     c6.133-0.632,11.271-0.753,15.466-0.468c21.642,1.437,18.19,13.604-3.605,23.329     C1197.056,1245.14,1195.17,1245.909,1193.172,1246.662"
   id="path1785" />
			<path
   fill="none"
   stroke="#040000"
   stroke-width="5"
   stroke-linejoin="round"
   stroke-miterlimit="10"
   d="M1193.172,1246.662     c-4.316,20.094-5.441,40.49-8.9,54.33"
   id="path1787" />
			<path
   fill="none"
   stroke="#040000"
   stroke-width="5"
   stroke-linejoin="round"
   stroke-miterlimit="10"
   d="M1149.672,1290.612     c-4.264,11.374,0.528,15.154,8.252,15.656c11.063,0.727,28.173-5.276,33.268-5.276c10.563,0,27.508,7.966,38.381,4.429     c5.153-1.661,8.942-5.917,10.06-14.809"
   id="path1789" />
			<path
   fill="none"
   stroke="#040000"
   stroke-width="5"
   stroke-linejoin="round"
   stroke-miterlimit="10"
   d="M1157.924,1306.329     c-9.125,39.686-1.046,42.738,26.348,43.059c2.188,0.026,4.489,0.035,6.922,0.043c43.258,0.147,29.729-16.33,38.379-44.01"
   id="path1791" />
			<path
   fill="none"
   stroke="#040000"
   stroke-width="5"
   stroke-linejoin="round"
   stroke-miterlimit="10"
   d="M1107.72,1178.813     c9.517-11.896,21.408-14.272,33.302-4.76C1133.886,1185.948,1119.614,1185.948,1107.72,1178.813z"
   id="path1793" />
			<path
   fill="none"
   stroke="#040000"
   stroke-width="5"
   stroke-linejoin="round"
   stroke-miterlimit="10"
   d="M1248.28,1177.074     C1311.372,1156.4,1272.05,1217.866,1248.28,1177.074L1248.28,1177.074z"
   id="path1795" />
			<path
   fill="none"
   stroke="#040000"
   stroke-width="5"
   stroke-linejoin="round"
   stroke-miterlimit="10"
   d="M1084.479,1366.835     c-0.01,0-0.01,0-0.01,0c-57.081-6.92-86.646-39.409-137.204-65.843c-1.729,8.647-5.188,12.107,1.73,20.76     c-3.46,0-10.38,1.729-13.84,1.729c1.729,3.459,1.729,10.38,3.46,13.84c-5.19,1.729-15.57,5.188-20.76,5.188     c27.68,32.869,76.117,51.034,115.906,71.793c10.38,3.46,55.359,23.355,58.819,30.275c8.649,13.84-12.11,48.438-17.3,60.549     c-13.842,36.329-24.222,72.658-32.87,108.988c-5.19,19.027-3.46,32.868-17.302,43.249c-10.38,8.648-84.103,22.574-34.599,36.328     c-5.19,1.729-13.84,6.921-17.3,8.649c6.92,0,15.57,5.189,22.49,3.46c-3.46,3.46-8.65,13.84-12.11,15.569     c31.139,8.648,83.039-20.761,112.448-29.409c32.869-10.38,51.897-22.489,84.769-15.569c41.521,6.92,83.039,17.299,122.828,27.679     c27.681,8.65,74.39,32.87,102.068,24.222c-1.73-5.189-5.189-15.569-10.38-19.029c3.46,0,10.38-1.729,13.84-1.729     c-1.73-3.459-5.19-8.648-8.649-12.108c5.189,0,10.379-3.46,17.299-3.46c-25.948-22.489-74.389-27.68-76.118-65.739     c-0.831-15.819,0.164-27.956,0.691-39.953c0.121-2.751,0.226-5.493,0.27-8.276c0.104-6.651-0.088-13.513-0.961-21.157     c-0.476-4.161-1.148-8.563-2.084-13.295c-2.457-12.388-10.024-57.444-10.024-71.284c1.729-19.029,25.95-27.679,43.25-38.059     c32.869-19.03,105.526-53.631,122.828-88.229c-10.38,0-20.761,5.19-31.142,10.38c3.46-5.188,5.189-13.839,8.649-19.027     c-3.46,0-10.38,0-17.3,3.459c1.729-5.188,0-13.84,0-19.028c-20.761,8.647-39.789,22.489-60.549,32.869     c-17.968,7.697-41.563,9.488-61.024,14.134c-6.772,1.617-13.044,3.581-18.397,6.263h-0.01"
   id="path1797" />
			<path
   fill="none"
   stroke="#040000"
   stroke-width="5"
   stroke-linejoin="round"
   stroke-miterlimit="10"
   d="M1341.699,1556.838     c15.567-22.49,30.344-46.26,42.453-70.479c15.568-25.949,27.178-40.553,54.425-67.729     c39.063-38.959,93.419-79.578,150.508-84.769c45.646-4.567,86.214,14.202,114.188,42.713     c19.538,19.921,32.938,44.59,37.625,69.39c8.963,47.323-13.797,95.088-86.073,111.064c-19.8,4.308-36.606-1.67-49.2-12.62     c-38.042-33.063-37.688-111.454,34.703-89.104"
   id="path1799" />
			<path
   fill="none"
   stroke="#040000"
   stroke-width="5"
   stroke-linejoin="round"
   stroke-miterlimit="10"
   d="M1605.624,1544.408     c-46.71,22.489-87.468,31.647-137.637,40.299c-32.87,5.188-108.988,8.649-126.288,41.52"
   id="path1801" />
			<path
   fill="none"
   stroke="#040000"
   stroke-width="5"
   stroke-linejoin="round"
   stroke-miterlimit="10"
   d="M1137.303,1378.192     c-3.771,23.674-10.121,28.328-13.581,40.438c4.048-0.285,8.044-1.496,12.032-3.296c17.49-7.914,34.668-27.308,54.287-30.812     c2.638-0.477,5.328-0.666,8.07-0.492c2.31,0.188,4.729,0.727,7.229,1.54c19.947,6.505,45.057,30.759,61.968,39.979     c0-12.107-10.76-27.739-10.76-39.85"
   id="path1803" />
			<path
   fill="none"
   stroke="#040000"
   stroke-width="5"
   stroke-linejoin="round"
   stroke-miterlimit="10"
   d="M1135.763,1415.326     l-0.009,0.008c-22.48,25.95-29.332,72.495-29.332,107.095c0,44.979,15.569,77.851,65.739,84.771     c53.629,6.92,100.338-25.95,117.638-76.119c10.38-32.869,17.075-125.959-17.524-146.719"
   id="path1805" />
			<path
   fill="none"
   stroke="#040000"
   stroke-width="5"
   stroke-linejoin="round"
   stroke-miterlimit="10"
   d="M1116.802,1123.307     c53.629-5.188,59.686,50.532,70.064,97.241"
   id="path1807" />
			<path
   fill="none"
   stroke="#040000"
   stroke-width="5"
   stroke-linejoin="round"
   stroke-miterlimit="10"
   d="M1202.436,1220.877     c10.382-53.629,30.916-90.841,89.734-90.841"
   id="path1809" />
			<path
   fill="none"
   stroke="#040000"
   stroke-width="5"
   stroke-linejoin="round"
   stroke-miterlimit="10"
   d="M1341.699,1579.509     c0.312-0.51,0.631-1.012,0.96-1.514c19.644-30.248,66.933-49.157,92.458-79.786c24.22-29.41,48.438-55.359,79.579-74.389     c41.52-27.682,136.668-73.188,188.565-47.237"
   id="path1811" />
			<path
   fill="none"
   stroke="#040000"
   stroke-width="5"
   stroke-linejoin="round"
   stroke-miterlimit="10"
   d="M1341.699,1586.438     c0.231-0.054,0.458-0.104,0.689-0.164c74.063-17.586,132.707-89.916,194.796-127.854c55.358-32.87,156.994-85.104,203.714-12.456     v0.009"
   id="path1813" />
			<path
   fill="none"
   stroke="#040000"
   stroke-width="5"
   stroke-linejoin="round"
   stroke-miterlimit="10"
   d="M1191.191,1300.992     c-2.465,16.798-8.027,33.769-6.92,48.188"
   id="path1815" />
		</g>
	</g>
</g>
<g
   id="圖層_2_1_">
	<g
   id="XMLID_4_">
		<g
   id="g1859">
			<path
   fill="#C39C61"
   d="M1549.359,1475.289c-69.112,23.45-130.154,81.422-206.524,81.967l-0.752,0.077     c-0.468-4.178-1.142-8.589-2.085-13.338c25.396-26.2,68.896-27.619,101.039-52.306c30.093-23.372,59.425-43.37,93.98-55.091     c46.589-17.888,149.409-41.39,194.337-4.68l0.009-0.009c14.696,23.727,22.352,50.74,21.478,75.963h-0.009     C1721.215,1426.737,1610.592,1455.377,1549.359,1475.289z"
   id="path1821" />
			<path
   fill="#915F33"
   d="M1454.124,1583.3c-33.215-2.153-83.341-11.746-111.289,1.843c0.363-8.797,0.416-17.594-0.752-27.81     l0.752-0.077c76.37-0.545,137.412-58.517,206.524-81.967c61.232-19.912,171.855-48.552,201.473,32.584h0.009     c-1.652,48.137-34.349,89.734-108.365,89.448c-20.258-0.146-35.344-9.67-45.23-23.112     C1546.729,1585.887,1504.969,1585.878,1454.124,1583.3z"
   id="path1823" />
			<path
   fill="#915F33"
   d="M1337.17,1528.244c20.085-18.485,39.668-38.389,56.76-59.304c20.89-21.893,35.413-33.597,67.962-54.122     c46.675-29.436,108.617-57.124,165.455-49.65c45.533,5.57,80.98,32.783,102.017,66.742l-0.009,0.009     c-44.928-36.71-147.748-13.208-194.337,4.68c-34.556,11.721-63.888,31.719-93.98,55.091     c-32.143,24.687-75.643,26.105-101.039,52.306c-0.657-3.313-1.678-8.97-2.828-15.743V1528.244z"
   id="path1825" />
			<path
   fill="#915F33"
   d="M1337.17,1528.252c1.15,6.773,2.171,12.431,2.828,15.743c0.943,4.749,1.617,9.16,2.085,13.338     c1.168,10.216,1.115,19.013,0.752,27.81c-0.501,12.517-1.626,25.016-0.752,41.537c1.721,38.059,50.169,43.249,76.11,65.738     c-6.92,0-12.102,3.46-17.291,3.46c3.451,3.46,6.911,8.65,8.649,12.11c-3.46,0-10.38,1.729-13.84,1.729     c5.19,3.46,8.642,13.84,10.38,19.03c-27.68,8.649-74.389-15.57-102.068-24.22c-39.79-10.38-56.336-45.56-108.236-24.558     c-26.996,8.002-29.003,29.998-26.001,54.002c1.003,8.995,3.001,18,3.001,27.999c0,3.996,3.996,13.995-1.998,14.999     c-6.003,0.995-9.004-8.001-9.004-12.006c-3.001,12.006-11.998,14.004-16.997,2.007c1.003,39.997-23-11.003-28-24.004     c-11.998-36-19.004-72.001-24.003-110c-5-34.003-10.994-67.997-10.994-103.003c0-14.999,2.906-27.696,2.993-42.998     c0.078-12.326,0-29.929-2.993-41.935c-6.842-3.607-45.914-1.496-56.362,1.729c-44.443,6.271-94.405,19.688-136.045,9.065     c4.221-3.027,10.648-11.876,13.866-16.305c-3.425-1.809-7.447-7.431-10.873-9.238c2.82-2.016,7.438-7.447,10.25-9.463     c-10.657-3.011-9.861-7.837-13.485-15.873c56.501-7.923,142.187-11.037,192.641-38.621c16.426,5.276,33.372,8.797,49.244,11.236     c2.18,0.363,4.403,0.727,6.661,1.081c-3.771,23.675-10.121,28.328-13.589,40.438c4.057-0.285,8.062-1.496,12.049-3.304     c-22.49,25.949-29.34,72.503-29.34,107.103c0,44.979,15.561,77.849,65.739,84.769c53.629,6.92,100.338-25.949,117.638-76.119     c10.38-32.869,17.075-125.959-17.524-146.719c13.087-1.462,25.456-3.806,36.546-7.248c2.387-0.684,4.748-1.385,7.075-2.094     c0.009-0.009,0.018-0.009,0.026-0.009c6.357-1.955,12.49-4.03,18.363-6.245c19.462-4.653,43.067-6.444,61.042-14.143     c20.76-10.38,39.781-24.22,60.54-32.869c0,5.189,1.739,13.84,0,19.029c6.92-3.46,13.84-3.46,17.309-3.46     c-3.469,5.19-5.189,13.84-8.649,19.03c10.38-5.19,20.76-10.38,31.14-10.38c-17.3,34.6-89.959,69.198-122.828,88.229     c-17.3,10.38-41.52,19.029-43.259,38.06c0,10.138,4.065,37.004,7.206,55.532V1528.252z"
   id="path1827" />
			<path
   fill="#67391B"
   d="M1335.111,1081.737c10.38,24.22,4.221,52.912-18.398,65.212c-7.682-6.229-15.674-12.274-23.899-18.053     C1296.516,1107.272,1306.921,1092.395,1335.111,1081.737z"
   id="path1829" />
			<path
   fill="#AD7E46"
   d="M1292.554,1130.488c0.087-0.536,0.173-1.063,0.26-1.592c8.226,5.778,16.218,11.824,23.899,18.053     c30.084,24.384,55.315,51.415,70.35,74.916c15.293,23.917,22.688,44.634,23.597,62.608l-0.511,0.025     c-66.803-19.341-138.795-35.508-210.927-39.694c21.78-9.722,25.231-21.893,3.59-23.328l0.008-0.147     C1213.2,1167.7,1233.734,1130.488,1292.554,1130.488z M1248.664,1177.526C1272.434,1218.319,1311.748,1156.854,1248.664,1177.526     L1248.664,1177.526z"
   id="path1831" />
			<path
   fill="#915F33"
   d="M1292.813,1128.896c-0.087,0.528-0.173,1.056-0.26,1.592c-58.819,0-79.354,37.212-89.734,90.841     l-0.008,0.147c-4.195-0.286-9.333-0.165-15.466,0.467l-0.095-0.942c-10.388-46.71-16.435-102.424-70.063-97.242     c2.517-1.601,5.025-3.166,7.525-4.688c28.268-17.282,55.203-30.369,73.783-37.333     C1230.093,1090.552,1262.954,1107.912,1292.813,1128.896z"
   id="path1833" />
			<path
   fill="#C39C61"
   d="M1272.659,1384.812c34.6,20.76,27.904,113.85,17.524,146.719c-17.3,50.17-64.009,83.039-117.638,76.119     c-50.178-6.92-65.739-39.789-65.739-84.769c0-34.6,6.851-81.153,29.34-107.103c17.49-7.915,34.668-27.299,54.278-30.803     c5.06,0.407,10.172,0.762,15.302,1.047c19.946,6.505,45.057,30.759,61.967,39.979c0-12.109-10.76-27.739-10.76-39.85     C1262.271,1385.841,1267.521,1385.392,1272.659,1384.812z"
   id="path1835" />
			<path
   d="M1248.664,1177.526C1311.748,1156.854,1272.434,1218.319,1248.664,1177.526L1248.664,1177.526z"
   id="path1837" />
			<path
   fill="#B81C25"
   d="M1256.934,1386.152c0,12.11,10.76,27.74,10.76,39.85c-16.91-9.221-42.021-33.475-61.967-39.979     C1222.905,1386.975,1240.309,1387.156,1256.934,1386.152z"
   id="path1839" />
			<path
   fill="#FFFFFF"
   d="M1191.575,1301.444c10.57,0,27.506,7.967,38.379,4.429c-8.65,27.68,4.878,44.157-38.379,44.011     c-2.431-0.009-4.731-0.018-6.92-0.044v-0.207C1183.548,1335.214,1189.11,1318.242,1191.575,1301.444z"
   id="path1841" />
			<path
   fill="#221714"
   d="M1202.812,1221.477c21.642,1.436,18.19,13.606-3.59,23.328c-3.192-0.19-6.384-0.354-9.576-0.484     c-8.321-5.025-23.51-11.824-14.272-20.725c4.351-0.744,8.338-1.289,11.971-1.652     C1193.478,1221.312,1198.616,1221.19,1202.812,1221.477z"
   id="path1843" />
			<path
   fill="#221714"
   d="M1199.222,1244.805c-1.765,0.787-3.659,1.558-5.666,2.31c-0.865-0.864-2.249-1.799-3.91-2.794     C1192.838,1244.45,1196.03,1244.614,1199.222,1244.805z"
   id="path1845" />
			<path
   fill="#C39C61"
   d="M1229.955,1305.873c-10.873,3.538-27.809-4.429-38.379-4.429c-5.095,0-22.204,6.003-33.268,5.276v0.061     c-9.125,39.686-1.046,42.739,26.348,43.059c2.188,0.026,4.489,0.035,6.92,0.044     C1234.833,1350.03,1221.305,1333.553,1229.955,1305.873z M1193.556,1247.114c2.006-0.752,3.901-1.522,5.666-2.31     c72.131,4.187,144.124,20.354,210.927,39.694l0.511-0.025c2.041,40.395-28.666,66.933-75.989,84.742     c-6.756,1.609-13.019,3.572-18.363,6.245c-0.009,0-0.018,0-0.026,0.009c-2.327,0.709-4.688,1.41-7.075,2.094     c-11.09,3.442-23.459,5.786-36.546,7.248c-5.138,0.58-10.389,1.029-15.726,1.341c-16.625,1.004-34.029,0.822-51.207-0.13     c-2.5-0.813-4.922-1.35-7.231-1.539c-2.742-0.174-5.432,0.017-8.07,0.492c-18.658-1.514-36.684-3.806-52.738-6.331     c-2.258-0.354-4.48-0.718-6.661-1.081c-15.872-2.439-32.817-5.96-49.244-11.236c-30.136-9.688-58.525-25.292-75.323-51.043     c-8.667-13.494-12.542-27.247-12.603-41h0.009c62.539-25.181,129.125-32.853,195.781-29.964     C1191.307,1245.315,1192.691,1246.25,1193.556,1247.114z"
   id="path1847" />
			<path
   fill="#FFFFFF"
   d="M1158.308,1306.721c11.063,0.727,28.173-5.276,33.268-5.276c-2.465,16.798-8.027,33.77-6.92,48.188v0.207     c-27.394-0.319-35.473-3.373-26.348-43.059V1306.721z"
   id="path1849" />
			<path
   fill="#B81C25"
   d="M1137.687,1378.645c16.054,2.525,34.081,4.817,52.738,6.331c-19.609,3.504-36.788,22.888-54.278,30.803     c-3.988,1.808-7.993,3.019-12.049,3.304C1127.566,1406.973,1133.915,1402.319,1137.687,1378.645z"
   id="path1851" />
			<path
   d="M1108.104,1179.265c9.515-11.894,21.408-14.271,33.302-4.757C1134.261,1186.401,1119.998,1186.401,1108.104,1179.265z"
   id="path1853" />
			<path
   fill="#67391B"
   d="M1124.098,1118.067l0.614,1.003c-2.5,1.522-5.008,3.088-7.525,4.688h-0.009     c-5.501,3.486-11.029,7.119-16.53,10.891c-19.523-11.228-22.853-38.674,0.969-61.562     C1118.908,1081.737,1124.098,1100.413,1124.098,1118.067z"
   id="path1855" />
			<path
   fill="#AD7E46"
   d="M993.856,1274.284c-0.225-51.043,52.063-102.121,106.792-139.635c5.501-3.771,11.028-7.404,16.53-10.891     h0.009c53.629-5.182,59.675,50.532,70.063,97.242l0.095,0.942c-3.633,0.363-7.621,0.908-11.971,1.652     c-9.238,8.9,5.951,15.699,14.272,20.725c-66.656-2.889-133.242,4.783-195.781,29.964H993.856z M1141.406,1174.508     c-11.894-9.515-23.787-7.137-33.302,4.757C1119.998,1186.401,1134.261,1186.401,1141.406,1174.508z"
   id="path1857" />
		</g>
		<g
   id="g1911">
			<path
   fill="none"
   stroke="#000000"
   stroke-width="5"
   stroke-linejoin="round"
   stroke-miterlimit="10"
   d="M1316.307,1375.461     c6.357-1.955,12.49-4.03,18.363-6.245c47.323-17.81,78.03-44.348,75.989-84.742c-0.908-17.975-8.304-38.691-23.597-62.608     c-15.034-23.501-40.266-50.532-70.35-74.916c-7.682-6.229-15.674-12.274-23.899-18.053     c-29.86-20.984-62.721-38.345-94.318-47.159"
   id="path1861" />
			<path
   fill="none"
   stroke="#000000"
   stroke-width="5"
   stroke-linejoin="round"
   stroke-miterlimit="10"
   d="M1117.178,1123.759     c-5.501,3.486-11.029,7.119-16.53,10.891c-54.728,37.514-107.016,88.592-106.792,139.635c0.061,13.753,3.936,27.506,12.603,41     c16.798,25.751,45.187,41.354,75.323,51.043c16.426,5.276,33.372,8.797,49.244,11.236c2.18,0.363,4.403,0.727,6.661,1.081     c16.054,2.525,34.081,4.817,52.738,6.331c5.06,0.407,10.172,0.762,15.302,1.047c17.178,0.952,34.582,1.134,51.207,0.13     c5.337-0.312,10.587-0.761,15.726-1.341c13.087-1.462,25.456-3.806,36.546-7.248c2.387-0.684,4.748-1.385,7.075-2.094"
   id="path1863" />
			<path
   fill="none"
   stroke="#000000"
   stroke-width="5"
   stroke-linejoin="round"
   stroke-miterlimit="10"
   d="M1198.495,1081.737     c-18.58,6.964-45.516,20.051-73.783,37.333c-2.5,1.522-5.008,3.088-7.525,4.688"
   id="path1865" />
			<path
   fill="none"
   stroke="#000000"
   stroke-width="5"
   stroke-linejoin="round"
   stroke-miterlimit="10"
   d="M1292.554,1130.488     c0.087-0.536,0.173-1.063,0.26-1.592c3.702-21.624,14.107-36.502,42.298-47.159c10.38,24.22,4.221,52.912-18.398,65.212"
   id="path1867" />
			<path
   fill="none"
   stroke="#000000"
   stroke-width="5"
   stroke-linejoin="round"
   stroke-miterlimit="10"
   d="M1124.098,1118.067     c0-17.654-5.19-36.33-22.481-44.979c-23.822,22.888-20.492,50.334-0.969,61.562"
   id="path1869" />
			<path
   fill="none"
   stroke="#000000"
   stroke-width="5"
   stroke-linejoin="round"
   stroke-miterlimit="10"
   d="M993.865,1274.284     c62.539-25.181,129.125-32.853,195.781-29.964c3.192,0.13,6.384,0.294,9.576,0.484c72.131,4.187,144.124,20.354,210.927,39.694"
   id="path1871" />
			<path
   fill="none"
   stroke="#000000"
   stroke-width="5"
   stroke-linejoin="round"
   stroke-miterlimit="10"
   d="M1193.556,1247.114     c-0.865-0.864-2.249-1.799-3.91-2.794c-8.321-5.025-23.51-11.824-14.272-20.725c4.351-0.744,8.338-1.289,11.971-1.652     c6.133-0.632,11.271-0.753,15.466-0.467c21.642,1.436,18.19,13.606-3.59,23.328     C1197.457,1245.592,1195.563,1246.362,1193.556,1247.114"
   id="path1873" />
			<path
   fill="none"
   stroke="#000000"
   stroke-width="5"
   stroke-linejoin="round"
   stroke-miterlimit="10"
   d="M1193.556,1247.114     c-4.316,20.094-5.441,40.49-8.901,54.33"
   id="path1875" />
			<path
   fill="none"
   stroke="#000000"
   stroke-width="5"
   stroke-linejoin="round"
   stroke-miterlimit="10"
   d="M1150.056,1291.064     c-4.264,11.375,0.528,15.154,8.252,15.656c11.063,0.727,28.173-5.276,33.268-5.276c10.57,0,27.506,7.967,38.379,4.429     c5.146-1.669,8.936-5.917,10.051-14.809"
   id="path1877" />
			<path
   fill="none"
   stroke="#000000"
   stroke-width="5"
   stroke-linejoin="round"
   stroke-miterlimit="10"
   d="M1158.308,1306.781     c-9.125,39.686-1.046,42.739,26.348,43.059c2.188,0.026,4.489,0.035,6.92,0.044c43.258,0.146,29.729-16.331,38.379-44.011"
   id="path1879" />
			<path
   fill="none"
   stroke="#000000"
   stroke-width="5"
   stroke-linejoin="round"
   stroke-miterlimit="10"
   d="M1108.104,1179.265     c9.515-11.894,21.408-14.271,33.302-4.757C1134.261,1186.401,1119.998,1186.401,1108.104,1179.265z"
   id="path1881" />
			<path
   fill="none"
   stroke="#000000"
   stroke-width="5"
   stroke-linejoin="round"
   stroke-miterlimit="10"
   d="M1248.664,1177.526     C1311.748,1156.854,1272.434,1218.319,1248.664,1177.526L1248.664,1177.526z"
   id="path1883" />
			<path
   fill="none"
   stroke="#000000"
   stroke-width="5"
   stroke-linejoin="round"
   stroke-miterlimit="10"
   d="M1337.17,1528.244     c-3.141-18.528-7.206-45.395-7.206-55.532c1.739-19.03,25.959-27.68,43.259-38.06c32.869-19.03,105.528-53.629,122.828-88.229     c-10.38,0-20.76,5.189-31.14,10.38c3.46-5.19,5.181-13.84,8.649-19.03c-3.469,0-10.389,0-17.309,3.46     c1.739-5.189,0-13.84,0-19.029c-20.759,8.649-39.78,22.489-60.54,32.869c-17.975,7.698-41.58,9.489-61.042,14.143     c-6.756,1.609-13.019,3.572-18.363,6.245c-0.009,0-0.018,0-0.026,0.009"
   id="path1885" />
			<path
   fill="none"
   stroke="#000000"
   stroke-width="5"
   stroke-linejoin="round"
   stroke-miterlimit="10"
   d="M1195.788,1679.971     c51.899-21.002,68.446,14.178,108.236,24.558c27.68,8.649,74.389,32.869,102.068,24.22c-1.738-5.19-5.189-15.57-10.38-19.03     c3.46,0,10.38-1.729,13.84-1.729c-1.738-3.46-5.198-8.65-8.649-12.11c5.189,0,10.371-3.46,17.291-3.46     c-25.941-22.489-74.39-27.68-76.11-65.738c-0.874-16.521,0.251-29.021,0.752-41.537c0.363-8.797,0.416-17.594-0.752-27.81     c-0.468-4.178-1.142-8.589-2.085-13.338c-0.657-3.313-1.678-8.97-2.828-15.743"
   id="path1887" />
			<path
   fill="none"
   stroke="#000000"
   stroke-width="5"
   stroke-linejoin="round"
   stroke-miterlimit="10"
   d="M1081.791,1366.318     c0,0-0.009,0-0.009,0.009c-50.455,27.584-136.14,30.698-192.641,38.621c3.625,8.036,2.829,12.862,13.485,15.873     c-2.812,2.016-7.43,7.447-10.25,9.463c3.425,1.808,7.447,7.43,10.873,9.238c-3.218,4.429-9.645,13.277-13.866,16.305     c41.641,10.622,91.602-2.794,136.045-9.065c10.449-3.226,49.521-5.337,56.362-1.729"
   id="path1889" />
			<path
   fill="none"
   stroke="#000000"
   stroke-width="5"
   stroke-linejoin="round"
   stroke-miterlimit="10"
   d="M1337.031,1528.374     c0.043-0.044,0.095-0.087,0.139-0.122v-0.008c20.085-18.485,39.668-38.389,56.76-59.304     c20.89-21.893,35.413-33.597,67.962-54.122c46.675-29.436,108.617-57.124,165.455-49.65c45.533,5.57,80.98,32.783,102.017,66.742     c14.696,23.727,22.352,50.74,21.478,75.963c-1.652,48.137-34.349,89.734-108.365,89.448c-20.258-0.146-35.344-9.67-45.23-23.112     c-29.859-40.611-12.291-117.016,53.422-79.311"
   id="path1891" />
			<path
   fill="none"
   stroke="#000000"
   stroke-width="5"
   stroke-linejoin="round"
   stroke-miterlimit="10"
   d="M1597.245,1574.209     c-50.516,11.678-92.276,11.669-143.121,9.091c-33.215-2.153-83.341-11.746-111.289,1.843"
   id="path1893" />
			<path
   fill="none"
   stroke="#000000"
   stroke-width="5"
   stroke-linejoin="round"
   stroke-miterlimit="10"
   d="M1137.687,1378.645     c-3.771,23.675-10.121,28.328-13.589,40.438c4.057-0.285,8.062-1.496,12.049-3.304c17.49-7.915,34.668-27.299,54.278-30.803     c2.638-0.476,5.328-0.666,8.07-0.492c2.31,0.189,4.731,0.727,7.231,1.539c19.946,6.505,45.057,30.759,61.967,39.979     c0-12.109-10.76-27.739-10.76-39.85"
   id="path1895" />
			<path
   fill="none"
   stroke="#000000"
   stroke-width="5"
   stroke-linejoin="round"
   stroke-miterlimit="10"
   d="M1136.147,1415.778     c-22.49,25.949-29.34,72.503-29.34,107.103c0,44.979,15.561,77.849,65.739,84.769c53.629,6.92,100.338-25.949,117.638-76.119     c10.38-32.869,17.075-125.959-17.524-146.719"
   id="path1897" />
			<path
   fill="none"
   stroke="#000000"
   stroke-width="5"
   stroke-linejoin="round"
   stroke-miterlimit="10"
   d="M1117.178,1123.759     h0.009c53.629-5.182,59.675,50.532,70.063,97.242"
   id="path1899" />
			<path
   fill="none"
   stroke="#000000"
   stroke-width="5"
   stroke-linejoin="round"
   stroke-miterlimit="10"
   d="M1202.82,1221.329     c10.38-53.629,30.915-90.841,89.734-90.841"
   id="path1901" />
			<path
   fill="none"
   stroke="#000000"
   stroke-width="5"
   stroke-linejoin="round"
   stroke-miterlimit="10"
   d="M1339.998,1543.995     c25.396-26.2,68.896-27.619,101.039-52.306c30.093-23.372,59.425-43.37,93.98-55.091c46.589-17.888,149.409-41.39,194.337-4.68"
   id="path1903" />
			<path
   fill="none"
   stroke="#000000"
   stroke-width="5"
   stroke-linejoin="round"
   stroke-miterlimit="10"
   d="M1342.835,1557.256     c76.37-0.545,137.412-58.517,206.524-81.967c61.232-19.912,171.855-48.552,201.473,32.584"
   id="path1905" />
			<path
   fill="none"
   stroke="#000000"
   stroke-width="5"
   stroke-linejoin="round"
   stroke-miterlimit="10"
   d="M1191.575,1301.444     c-2.465,16.798-8.027,33.77-6.92,48.188"
   id="path1907" />
			<path
   fill="none"
   stroke="#000000"
   stroke-width="5"
   stroke-linejoin="round"
   stroke-miterlimit="10"
   d="M1081.791,1445.032     c2.993,12.006,3.071,29.608,2.993,41.935c-0.086,15.302-2.993,27.999-2.993,42.998c0,35.006,5.995,69,10.994,103.003     c5,37.999,12.006,74,24.003,110c5,13.001,29.003,64.001,28,24.004c5,11.997,13.996,9.999,16.997-2.007     c0,4.005,3.001,13.001,9.004,12.006c5.994-1.004,1.998-11.003,1.998-14.999c0-9.999-1.998-19.004-3.001-27.999     c-3.001-24.004-0.995-46,26.001-54.002"
   id="path1909" />
		</g>
	</g>
</g>
<g
   id="圖層_1_1_">
	<polygon
   opacity="0.7"
   fill="#DF6662"
   enable-background="new    "
   points="1288.479,890.383 648.979,390 795.475,1388.062  "
   id="polygon1915" />
</g>
<g
   id="圖層_6">
	<polygon
   opacity="0.6"
   fill="#ADC81B"
   enable-background="new    "
   points="967.417,1006.646 1292.171,344.646 1616.923,1006.646     "
   id="polygon1918" />
</g>
<g
   id="圖層_7">
	<polygon
   opacity="0.6"
   fill="#0868AC"
   enable-background="new    "
   points="1288.479,890.383 1932.947,391.336 1789.527,1389.396     "
   id="polygon1921" />
</g>
<g
   id="圖層_4">
	<circle
   opacity="0.5"
   fill="#FFFFFF"
   enable-background="new    "
   cx="1291.152"
   cy="1386.366"
   r="496"
   id="circle1924" />
	<polygon
   fill="#040000"
   points="1976.251,555.148 1787.152,453.915 1900.665,344.541 2004.363,400.054  "
   id="polygon1926" />
	<polygon
   fill="#040000"
   points="1399.416,449.846 1184.924,449.846 1233.377,299.845 1350.998,299.845  "
   id="polygon1928" />
	<polygon
   fill="#040000"
   points="606.052,555.15 795.152,453.917 681.638,344.542 577.94,400.055  "
   id="polygon1930" />
	
		<line
   fill="none"
   stroke="#040000"
   stroke-width="40"
   stroke-miterlimit="10"
   x1="570.468"
   y1="107.385"
   x2="554.494"
   y2="267.383"
   id="line1932" />
	<line
   fill="none"
   stroke="#040000"
   stroke-width="40"
   stroke-miterlimit="10"
   x1="556.161"
   y1="257.63"
   x2="631.769"
   y2="391.23"
   id="line1934" />
	
		<line
   fill="none"
   stroke="#040000"
   stroke-width="40"
   stroke-miterlimit="10"
   x1="2000.393"
   y1="117.385"
   x2="2016.365"
   y2="277.383"
   id="line1936" />
	
		<line
   fill="none"
   stroke="#040000"
   stroke-width="40"
   stroke-miterlimit="10"
   x1="2014.699"
   y1="267.63"
   x2="1944.689"
   y2="391.336"
   id="line1938" />
	
		<line
   fill="none"
   stroke="#040000"
   stroke-width="40"
   stroke-miterlimit="10"
   x1="1283.529"
   y1="112.968"
   x2="1293.424"
   y2="316.649"
   id="line1940" />
</g>
</svg>