<?xml version="1.0" encoding="UTF-8" standalone="no"?>
<!-- Generator: Adobe Illustrator 16.0.0, SVG Export Plug-In . SVG Version: 6.00 Build 0)  -->

<svg
   xmlns:dc="http://purl.org/dc/elements/1.1/"
   xmlns:cc="http://creativecommons.org/ns#"
   xmlns:rdf="http://www.w3.org/1999/02/22-rdf-syntax-ns#"
   xmlns:svg="http://www.w3.org/2000/svg"
   xmlns="http://www.w3.org/2000/svg"
   xmlns:sodipodi="http://sodipodi.sourceforge.net/DTD/sodipodi-0.dtd"
   xmlns:inkscape="http://www.inkscape.org/namespaces/inkscape"
   version="1.1"
   x="0px"
   y="0px"
   width="2560px"
   height="1920px"
   viewBox="0 0 2560 1920"
   enable-background="new 0 0 2560 1920"
   xml:space="preserve"
   id="svg1028"
   sodipodi:docname="on-off-off.svg"
   inkscape:version="0.92.3 (2405546, 2018-03-11)"><metadata
   id="metadata1034"><rdf:RDF><cc:Work
       rdf:about=""><dc:format>image/svg+xml</dc:format><dc:type
         rdf:resource="http://purl.org/dc/dcmitype/StillImage" /></cc:Work></rdf:RDF></metadata><defs
   id="defs1032" /><sodipodi:namedview
   pagecolor="#ffffff"
   bordercolor="#666666"
   borderopacity="1"
   objecttolerance="10"
   gridtolerance="10"
   guidetolerance="10"
   inkscape:pageopacity="0"
   inkscape:pageshadow="2"
   inkscape:window-width="1920"
   inkscape:window-height="1052"
   id="namedview1030"
   showgrid="false"
   inkscape:zoom="0.34766083"
   inkscape:cx="1496.6892"
   inkscape:cy="1064.9922"
   inkscape:window-x="0"
   inkscape:window-y="0"
   inkscape:window-maximized="1"
   inkscape:current-layer="svg1028" />
<rect
   style="fill:#ffe6d5"
   id="rect211"
   width="2301.0933"
   height="1507.2161"
   x="123.68375"
   y="130.90002" /><g
   id="圖層_5">
	<rect
   x="0"
   y="-3.53"
   width="2560"
   height="184.529"
   id="rect825" />
	
		<rect
   x="0"
   y="1608.115"
   fill="#B28247"
   stroke="#000000"
   stroke-width="10"
   stroke-miterlimit="10"
   width="2560"
   height="313.382"
   id="rect827" />
	<g
   id="XMLID_2_">
		<g
   id="g835">
			<path
   fill="#730001"
   d="M171.05,1123.26c-1.74,4.931-3.35,9.87-4.8,14.84c-4.2,14.271-3.14,29.19,0.35,44.381l-0.35,0.079     c-45.06,19.311-98.71,26.36-150.21,24.21c-17.17,0-55.79,2.15-66.52-15.02c-0.12-0.16-0.24-0.33-0.35-0.51     c0.1-9.12,0.22-18.25,0.35-27.391c0.12-6.72,0.25-13.449,0.39-20.17c0.67-4.16,1.3-7.62,1.75-9.87     C7.46,1144.54,121.7,1155.45,171.05,1123.26z"
   id="path829" />
			<path
   fill="#A6061B"
   d="M370.12,1938.53c-79.4,0-156.66,0-233.91,0c-47.21,0-92.27-2.15-137.34,2.14     c-36.48,2.15-42.92,12.88-49.35-23.6c-15.03-98.71,0-212.45,0-311.16c0-138.93-1.89-275.97-0.35-414.67     c0.11,0.18,0.23,0.35,0.35,0.51c10.73,17.17,49.35,15.02,66.52,15.02c51.5,2.15,105.15-4.899,150.21-24.21l0.35-0.079     c5.42,23.659,16.73,47.979,23.26,71.5c17.17,62.229,45.06,122.319,64.38,186.689c42.92,154.51,47.21,313.311,96.56,463.521     C355.09,1917.07,365.82,1927.8,370.12,1938.53z"
   id="path831" />
			<path
   fill="#A6061B"
   d="M421.62-3.53c0,96.57-15.02,201.72-30.04,296.14c-21.46,133.04-32.19,268.24-66.53,396.99     c-25.75,98.71-53.65,203.86-92.27,300.43c-17.46,42.66-45.41,87.069-61.73,133.229c-49.35,32.19-163.59,21.28-219.39,10.55     c-0.45,2.25-1.08,5.71-1.75,9.87c6.7-340.83,23.21-679.68,23.21-1020.6c0-23.61-10.73-81.55,0-103.01     C-16.15,0.76-20.44,9.34,1.02,5.05c34.33-6.44,72.96,0,107.29,0C209.17,5.05,322.91,9.34,421.62-3.53z"
   id="path833" />
		</g>
		<g
   id="g843">
			<path
   fill="none"
   stroke="#000000"
   stroke-width="10"
   stroke-miterlimit="10"
   d="M421.62-3.53c0,96.57-15.02,201.72-30.04,296.14     c-21.46,133.04-32.19,268.24-66.53,396.99c-25.75,98.71-53.65,203.86-92.27,300.43c-17.46,42.66-45.41,87.069-61.73,133.229     c-1.74,4.931-3.35,9.87-4.8,14.84c-4.2,14.271-3.14,29.19,0.35,44.381c5.42,23.659,16.73,47.979,23.26,71.5     c17.17,62.229,45.06,122.319,64.38,186.689c42.92,154.51,47.21,313.311,96.56,463.521c4.29,12.88,15.02,23.609,19.32,34.34"
   id="path837" />
			<path
   fill="none"
   stroke="#000000"
   stroke-width="10"
   stroke-miterlimit="10"
   d="M421.62-3.53     C322.91,9.34,209.17,5.05,108.31,5.05c-34.33,0-72.96-6.44-107.29,0c-21.46,4.29-17.17-4.29-27.9,15.02     c-10.73,21.46,0,79.4,0,103.01c0,340.92-16.51,679.77-23.21,1020.6c-0.14,6.721-0.27,13.45-0.39,20.17     c-0.13,9.141-0.25,18.271-0.35,27.391c-1.54,138.7,0.35,275.74,0.35,414.67c0,98.71-15.03,212.45,0,311.16     c6.43,36.479,12.87,25.75,49.35,23.6c45.07-4.29,90.13-2.14,137.34-2.14c77.25,0,154.51,0,233.91,0"
   id="path839" />
			<path
   fill="none"
   stroke="#000000"
   stroke-width="10"
   stroke-miterlimit="10"
   d="M171.05,1123.26     c-49.35,32.19-163.59,21.28-219.39,10.55c-0.45,2.25-1.08,5.71-1.75,9.87c-2.46,15.33-5.34,40.07-0.74,47.561     c0.11,0.18,0.23,0.35,0.35,0.51c10.73,17.17,49.35,15.02,66.52,15.02c51.5,2.15,105.15-4.899,150.21-24.21"
   id="path841" />
		</g>
	</g>
	<g
   id="XMLID_3_">
		<g
   id="g852">
			<path
   fill="#A6061B"
   d="M2131.768-3.53c0,96.57,15.021,201.72,30.04,296.14c21.46,133.04,32.19,268.24,66.53,396.99     c25.75,98.71,53.649,203.86,92.27,300.43c17.46,42.66,45.41,87.069,61.73,133.229c49.35,32.19,163.59,21.28,219.39,10.55     c0.45,2.25,1.08,5.71,1.75,9.87c-6.7-340.83-23.21-679.68-23.21-1020.6c0-23.61,10.73-81.55,0-103.01     c-10.729-19.31-6.439-10.73-27.899-15.02c-34.33-6.44-72.961,0-107.29,0C2344.218,5.05,2230.478,9.34,2131.768-3.53z"
   id="path846" />
			<path
   fill="#A6061B"
   d="M2183.268,1938.53c79.4,0,156.66,0,233.91,0c47.21,0,92.27-2.15,137.34,2.14     c36.48,2.15,42.92,12.88,49.351-23.6c15.029-98.71,0-212.45,0-311.16c0-138.93,1.89-275.97,0.35-414.67     c-0.11,0.18-0.23,0.35-0.35,0.51c-10.73,17.17-49.351,15.02-66.521,15.02c-51.5,2.15-105.15-4.899-150.21-24.21l-0.35-0.079     c-5.42,23.659-16.73,47.979-23.261,71.5c-17.17,62.229-45.06,122.319-64.38,186.689c-42.92,154.51-47.21,313.311-96.56,463.521     C2198.298,1917.07,2187.567,1927.8,2183.268,1938.53z"
   id="path848" />
			<path
   fill="#730001"
   d="M2382.338,1123.26c1.74,4.931,3.35,9.87,4.8,14.84c4.2,14.271,3.14,29.19-0.35,44.381l0.35,0.079     c45.06,19.311,98.71,26.36,150.21,24.21c17.17,0,55.79,2.15,66.521-15.02c0.119-0.16,0.239-0.33,0.35-0.51     c-0.1-9.12-0.22-18.25-0.35-27.391c-0.12-6.72-0.25-13.449-0.391-20.17c-0.67-4.16-1.3-7.62-1.75-9.87     C2545.928,1144.54,2431.688,1155.45,2382.338,1123.26z"
   id="path850" />
		</g>
		<g
   id="g860">
			<path
   fill="none"
   stroke="#000000"
   stroke-width="10"
   stroke-miterlimit="10"
   d="M2131.768-3.53     c0,96.57,15.021,201.72,30.04,296.14c21.46,133.04,32.19,268.24,66.53,396.99c25.75,98.71,53.649,203.86,92.27,300.43     c17.46,42.66,45.41,87.069,61.73,133.229c1.74,4.931,3.35,9.87,4.8,14.84c4.2,14.271,3.14,29.19-0.35,44.381     c-5.42,23.659-16.73,47.979-23.261,71.5c-17.17,62.229-45.06,122.319-64.38,186.689c-42.92,154.51-47.21,313.311-96.56,463.521     c-4.29,12.88-15.021,23.609-19.32,34.34"
   id="path854" />
			<path
   fill="none"
   stroke="#000000"
   stroke-width="10"
   stroke-miterlimit="10"
   d="M2131.768-3.53     c98.71,12.87,212.45,8.58,313.311,8.58c34.329,0,72.96-6.44,107.29,0c21.46,4.29,17.17-4.29,27.899,15.02     c10.73,21.46,0,79.4,0,103.01c0,340.92,16.51,679.77,23.21,1020.6c0.141,6.721,0.271,13.45,0.391,20.17     c0.13,9.141,0.25,18.271,0.35,27.391c1.54,138.7-0.35,275.74-0.35,414.67c0,98.71,15.029,212.45,0,311.16     c-6.431,36.479-12.87,25.75-49.351,23.6c-45.07-4.29-90.13-2.14-137.34-2.14c-77.25,0-154.51,0-233.91,0"
   id="path856" />
			<path
   fill="none"
   stroke="#000000"
   stroke-width="10"
   stroke-miterlimit="10"
   d="M2382.338,1123.26     c49.35,32.19,163.59,21.28,219.39,10.55c0.45,2.25,1.08,5.71,1.75,9.87c2.46,15.33,5.34,40.07,0.74,47.561     c-0.11,0.18-0.23,0.35-0.35,0.51c-10.73,17.17-49.351,15.02-66.521,15.02c-51.5,2.15-105.15-4.899-150.21-24.21"
   id="path858" />
		</g>
	</g>
	<g
   id="g867">
		<g
   id="g865">
			<path
   fill="#730001"
   d="M321.136,84.451c-0.161,62.86-15.219,124.639-24.26,186.559c-9.251,63.357-16.05,127.046-25.547,190.37     c-9.244,61.632-21.048,123.01-39.977,182.466c-17.871,56.132-40.857,110.467-63.707,164.705     c-33.237,78.895-66.664,158.406-84.261,242.534c-1.394,6.663,1.86,13.486,8.73,15.377c6.254,1.72,13.981-2.06,15.377-8.73     c24.173-115.569,77.813-221.664,120.601-330.904c21.774-55.592,39.57-112.09,51.788-170.56     c13.327-63.776,21.49-128.495,29.708-193.083c5.864-46.088,11.868-92.139,19.725-137.937     c7.986-46.553,16.701-93.404,16.823-140.797C346.177,68.328,321.177,68.332,321.136,84.451L321.136,84.451z"
   id="path863" />
		</g>
	</g>
	<g
   id="g873">
		<g
   id="g871">
			<path
   fill="#730001"
   d="M173.513,87.565c-5.962,32.707-7.658,65.859-8.806,99.022c-1.119,32.333-2.644,64.361-7.021,96.436     c-8.956,65.614-17.999,131.217-27.806,196.71c-9.636,64.351-18.967,128.781-29.241,193.033     C90.488,736.25,78.268,799.36,61.21,861.379C45.148,919.78,27.145,978.02,19.007,1038.21c-0.912,6.747,1.509,13.391,8.731,15.377     c5.894,1.621,14.461-1.965,15.376-8.73c8.565-63.358,27.998-124.558,44.73-186.068c16.876-62.041,28.4-125.415,38.411-188.878     c10.155-64.38,19.608-128.899,29.2-193.366c9.746-65.496,18.73-131.102,27.68-196.71c8.399-61.571,3.325-124.4,14.485-185.622     c1.221-6.697-1.733-13.452-8.731-15.377C182.766,77.15,174.736,80.856,173.513,87.565L173.513,87.565z"
   id="path869" />
		</g>
	</g>
	<g
   id="g879">
		<g
   id="g877">
			<path
   fill="#730001"
   d="M98.406,1304.513c24.829,118.581,38.573,239.259,66.487,357.229     c13.589,57.431,30.732,114.103,53.685,168.522c2.646,6.273,8.157,10.716,15.376,8.73c5.925-1.63,11.384-9.085,8.731-15.377     c-47.443-112.486-69.093-233.208-89.141-352.981c-9.659-57.709-19.037-115.486-31.03-172.77     c-1.397-6.671-9.122-10.451-15.377-8.73C100.267,1291.025,97.011,1297.85,98.406,1304.513L98.406,1304.513z"
   id="path875" />
		</g>
	</g>
	<g
   id="g885">
		<g
   id="g883">
			<path
   fill="#730001"
   d="M22.853,1303.335c5.911,129.151,32.671,256.063,58.179,382.439     c12.708,62.958,25.123,126.005,34.542,189.554c1.001,6.751,9.418,10.369,15.377,8.73c7.159-1.97,9.729-8.643,8.73-15.377     c-18.882-127.393-49.748-252.603-70.948-379.588c-10.267-61.496-18.028-123.445-20.88-185.759c-0.312-6.805-5.45-12.5-12.5-12.5     C28.774,1290.835,22.541,1296.523,22.853,1303.335L22.853,1303.335z"
   id="path881" />
		</g>
	</g>
	<g
   id="g891">
		<g
   id="g889">
			<path
   fill="#730001"
   d="M2207.402,165.996c4.479,123.572,21.916,246.625,47.144,367.587     c12.487,59.876,27.099,119.31,43.63,178.197c15.943,56.796,31.731,113.53,50.734,169.407     c20.871,61.37,44.879,121.962,74.791,179.529c3.139,6.041,11.446,7.798,17.102,4.484c6.092-3.567,7.627-11.056,4.484-17.102     c-54.218-104.348-89.086-218.01-119.726-331.139c-15.936-58.838-31.425-117.644-44.211-177.268     c-13.053-60.865-23.923-122.207-32.343-183.885c-8.593-62.936-14.305-126.33-16.605-189.812c-0.247-6.808-5.499-12.5-12.5-12.5     C2213.275,153.496,2207.155,159.183,2207.402,165.996L2207.402,165.996z"
   id="path887" />
		</g>
	</g>
	<g
   id="g897">
		<g
   id="g895">
			<path
   fill="#730001"
   d="M2396.243,187.456c0.023,130.287,4.746,260.589,15.762,390.425     c11.06,130.362,28.568,260.239,53.603,388.665c0.627,3.215,1.262,6.428,1.897,9.642c1.324,6.688,9.177,10.436,15.377,8.73     c6.923-1.904,10.053-8.699,8.73-15.377c-25.248-127.492-42.869-256.362-54.106-385.827     c-11.268-129.798-16.094-260.108-16.26-390.377c-0.002-1.96-0.003-3.92-0.003-5.88     C2421.24,171.334,2396.24,171.333,2396.243,187.456L2396.243,187.456z"
   id="path893" />
		</g>
	</g>
	<g
   id="g903">
		<g
   id="g901">
			<path
   fill="#730001"
   d="M2409.119,1303.335c-4.789,63.04-12.671,125.795-23.023,188.157c-5.239,31.56-11.143,63.008-17.602,94.34     c-6.237,30.262-13.837,60.257-19.41,90.649c-11.543,62.947-16.248,128.008-40.378,187.908c-2.55,6.331,2.728,13.726,8.73,15.377     c7.14,1.964,12.833-2.416,15.377-8.73c22.308-55.38,28.107-115.387,37.906-173.788c5.067-30.202,12.368-59.898,18.75-89.834     c6.661-31.244,12.699-62.62,18.156-94.097c12.054-69.522,21.147-139.619,26.493-209.982c0.517-6.803-6.077-12.5-12.5-12.5     C2414.415,1290.835,2409.635,1296.543,2409.119,1303.335L2409.119,1303.335z"
   id="path899" />
		</g>
	</g>
	<g
   id="g909">
		<g
   id="g907">
			<path
   fill="#730001"
   d="M2477.788,1307.627c0.016,66.028,1.529,132.074-0.656,198.085     c-2.145,64.768-10.056,128.792-19.661,192.822c-9.612,64.07-19.986,128.121-24.747,192.784c-0.501,6.804,6.065,12.5,12.5,12.5     c7.192,0,12-5.707,12.5-12.5c4.741-64.391,15.185-128.12,24.72-191.922c9.712-64.981,17.578-129.95,19.754-195.665     c2.163-65.347,0.606-130.74,0.591-196.104C2502.784,1291.506,2477.784,1291.505,2477.788,1307.627L2477.788,1307.627z"
   id="path905" />
		</g>
	</g>
</g>
<g
   id="圖層_2">
	<g
   id="XMLID_1_">
		<g
   id="g950">
			<path
   fill="#956134"
   d="M1740.898,1445.964c8.962,47.323-13.796,95.088-86.074,111.064c-19.8,4.308-36.606-1.67-49.2-12.62     c-46.71,22.489-87.468,31.649-137.637,40.299c-32.87,5.19-108.988,8.65-126.288,41.52c-0.831-15.82,0.164-27.956,0.691-39.953     c74.061-17.586,132.707-89.916,194.795-127.854C1592.545,1425.55,1694.181,1373.313,1740.898,1445.964z"
   id="path912" />
			<path
   fill="#C9A063"
   d="M1703.272,1376.574c19.54,19.921,32.938,44.59,37.626,69.39c-46.718-72.65-148.354-20.414-203.713,12.456     c-62.088,37.938-120.734,110.268-194.795,127.854c0.121-2.751,0.226-5.493,0.269-8.278     c19.644-30.248,66.933-49.157,92.458-79.786c24.22-29.41,48.439-55.359,79.579-74.389c41.52-27.68,136.668-73.187,188.567-47.237     L1703.272,1376.574z"
   id="path914" />
			<path
   fill="#956134"
   d="M1703.272,1376.574l-0.009,0.009c-51.899-25.949-147.048,19.558-188.567,47.237     c-31.14,19.029-55.359,44.979-79.579,74.389c-25.525,30.629-72.814,49.538-92.458,79.786c0.104-6.651-0.087-13.511-0.96-21.157     c15.569-22.49,30.344-46.26,42.453-70.479c15.57-25.949,27.178-40.551,54.425-67.729c39.063-38.959,93.419-79.578,150.508-84.769     C1634.73,1329.294,1675.299,1348.064,1703.272,1376.574z"
   id="path916" />
			<path
   fill="#956134"
   d="M1342.659,1577.995c-0.043,2.785-0.147,5.527-0.269,8.278c-0.527,11.997-1.522,24.133-0.691,39.953     c1.729,38.06,50.169,43.25,76.118,65.739c-6.92,0-12.109,3.46-17.299,3.46c3.459,3.46,6.919,8.649,8.649,12.109     c-3.46,0-10.38,1.73-13.84,1.73c5.19,3.46,8.649,13.84,10.38,19.029c-27.68,8.65-74.389-15.569-102.068-24.22     c-39.79-10.38-81.309-20.759-122.828-27.679c-32.87-6.92-51.899,5.189-84.769,15.569c-29.41,8.649-81.309,38.06-112.448,29.409     c3.46-1.729,8.65-12.109,12.11-15.569c-6.92,1.729-15.57-3.46-22.49-3.46c3.46-1.73,12.11-6.92,17.3-8.65     c-49.503-13.753,24.219-27.679,34.599-36.329c13.84-10.38,12.11-24.22,17.3-43.249c8.65-36.33,19.03-72.659,32.87-108.988     c5.19-12.11,25.95-46.709,17.3-60.549c-3.46-6.92-48.439-26.815-58.819-30.275c-39.789-20.759-88.229-38.924-115.908-71.793     c5.19,0,15.57-3.46,20.76-5.19c-1.73-3.46-1.73-10.38-3.46-13.84c3.46,0,10.38-1.729,13.84-1.729     c-6.92-8.65-3.46-12.11-1.73-20.76c50.559,26.434,80.124,58.923,137.204,65.843c0,0,0,0,0.009,0     c15.457,4.748,31.287,7.983,46.164,10.275c2.18,0.363,4.403,0.727,6.661,1.082c-3.771,23.674-10.121,28.328-13.581,40.438     c4.048-0.285,8.044-1.496,12.032-3.296c-22.481,25.95-29.332,72.495-29.332,107.095c0,44.979,15.569,77.849,65.739,84.769     c53.629,6.92,100.338-25.95,117.638-76.119c10.38-32.869,17.075-125.959-17.524-146.719c13.096-1.462,25.456-3.806,36.554-7.249     c2.388-0.683,4.74-1.375,7.067-2.093h0.009c6.366-1.955,12.517-4.04,18.398-6.263c19.462-4.645,43.059-6.436,61.024-14.134     c20.76-10.38,39.789-24.22,60.549-32.869c0,5.189,1.73,13.84,0,19.029c6.92-3.46,13.84-3.46,17.3-3.46     c-3.46,5.19-5.189,13.84-8.649,19.029c10.38-5.189,20.76-10.38,31.14-10.38c-17.3,34.6-89.959,69.199-122.828,88.229     c-17.3,10.38-41.52,19.029-43.25,38.059c0,13.84,7.569,58.897,10.025,71.284c0.935,4.731,1.609,9.134,2.085,13.295     C1342.572,1564.484,1342.763,1571.344,1342.659,1577.995z"
   id="path918" />
			<path
   fill="#C9A063"
   d="M1229.571,1305.421c-10.873,3.537-27.818-4.429-38.379-4.429c-5.095,0-22.204,6.003-33.268,5.276v0.061     c-9.125,39.686-1.046,42.738,26.348,43.059c2.188,0.026,4.489,0.035,6.92,0.043     C1234.449,1349.578,1220.921,1333.101,1229.571,1305.421z M1193.172,1246.662c1.998-0.753,3.884-1.522,5.648-2.31     c72.14,4.187,144.142,20.354,210.944,39.694l0.511-0.026c2.041,40.396-28.657,66.925-75.972,84.734     c-6.773,1.617-13.044,3.581-18.398,6.263h-0.009c-2.327,0.718-4.68,1.41-7.067,2.093c-11.098,3.443-23.458,5.787-36.554,7.249     c-5.138,0.579-10.389,1.029-15.726,1.341c-16.634,1.003-34.029,0.821-51.208-0.13c-2.5-0.813-4.921-1.35-7.231-1.54     c-2.742-0.173-5.432,0.018-8.07,0.493c-18.658-1.514-36.684-3.806-52.738-6.331c-2.258-0.355-4.48-0.719-6.661-1.082     c-14.877-2.292-30.707-5.527-46.164-10.275c-0.009,0-0.009,0-0.009,0c-31.269-9.602-61.025-25.379-78.385-52.003     c-8.667-13.494-12.551-27.247-12.611-41.001h0.009c62.539-25.18,129.125-32.852,195.781-29.963     C1190.923,1244.863,1192.307,1245.797,1193.172,1246.662z"
   id="path920" />
			<path
   fill="#B28247"
   d="M1410.275,1284.021l-0.511,0.026c-66.803-19.341-138.804-35.508-210.944-39.694     c21.798-9.723,25.249-21.893,3.607-23.329l0.008-0.146c10.38-53.629,30.915-90.841,89.734-90.841     c0.087-0.536,0.173-1.064,0.26-1.592c8.226,5.778,16.218,11.824,23.899,18.053c30.084,24.393,55.315,51.414,70.35,74.916     C1401.972,1245.33,1409.367,1266.047,1410.275,1284.021z M1248.28,1177.074C1272.05,1217.866,1311.372,1156.4,1248.28,1177.074     L1248.28,1177.074z"
   id="path922" />
			<path
   fill="#6A3906"
   d="M1334.728,1081.285c10.38,24.22,4.221,52.911-18.398,65.212c-7.682-6.229-15.674-12.274-23.899-18.053     C1296.132,1106.819,1306.546,1091.942,1334.728,1081.285z"
   id="path924" />
			<path
   fill="#956134"
   d="M1292.43,1128.444c-0.087,0.527-0.173,1.056-0.26,1.592c-58.819,0-79.354,37.212-89.734,90.841     l-0.008,0.146c-4.195-0.285-9.333-0.164-15.466,0.468l-0.095-0.943c-10.38-46.709-16.435-102.432-70.064-97.241     c2.518-1.601,5.035-3.157,7.534-4.688c28.259-17.282,55.195-30.361,73.775-37.333     C1229.709,1090.1,1262.57,1107.46,1292.43,1128.444z"
   id="path926" />
			<path
   fill="#C9A063"
   d="M1272.275,1384.359c34.6,20.76,27.904,113.85,17.524,146.719c-17.3,50.169-64.009,83.039-117.638,76.119     c-50.169-6.92-65.739-39.789-65.739-84.769c0-34.6,6.851-81.145,29.332-107.095c17.49-7.914,34.668-27.308,54.287-30.811     c5.06,0.407,10.172,0.762,15.301,1.047c19.947,6.505,45.057,30.759,61.968,39.979c0-12.109-10.76-27.74-10.76-39.85     C1261.887,1385.389,1267.137,1384.938,1272.275,1384.359z"
   id="path928" />
			<path
   d="M1248.28,1177.074C1311.372,1156.4,1272.05,1217.866,1248.28,1177.074L1248.28,1177.074z"
   id="path930" />
			<path
   fill="#C30D23"
   d="M1256.55,1385.7c0,12.109,10.76,27.74,10.76,39.85c-16.911-9.221-42.021-33.475-61.968-39.979     C1222.521,1386.521,1239.916,1386.703,1256.55,1385.7z"
   id="path932" />
			<path
   fill="#FFFFFF"
   d="M1191.191,1300.992c10.562,0,27.506,7.966,38.379,4.429c-8.65,27.68,4.878,44.157-38.379,44.01     c-2.431-0.008-4.731-0.017-6.92-0.043v-0.207C1183.164,1334.761,1188.726,1317.79,1191.191,1300.992z"
   id="path934" />
			<path
   d="M1202.428,1221.023c21.642,1.437,18.19,13.606-3.607,23.329c-3.183-0.19-6.375-0.354-9.558-0.484     c-8.321-5.025-23.51-11.824-14.264-20.725c4.342-0.744,8.33-1.289,11.963-1.652     C1193.094,1220.859,1198.232,1220.738,1202.428,1221.023z"
   id="path936" />
			<path
   d="M1198.82,1244.353c-1.764,0.787-3.65,1.557-5.648,2.31c-0.865-0.865-2.249-1.799-3.91-2.794     C1192.445,1243.998,1195.637,1244.162,1198.82,1244.353z"
   id="path938" />
			<path
   fill="#B28247"
   d="M1186.866,1220.548l0.095,0.943c-3.633,0.363-7.621,0.908-11.963,1.652     c-9.247,8.9,5.943,15.699,14.264,20.725c-66.656-2.889-133.242,4.783-195.781,29.963h-0.009     c-0.225-51.043,52.063-102.12,106.792-139.635c5.501-3.771,11.037-7.404,16.538-10.89     C1170.432,1118.116,1176.486,1173.839,1186.866,1220.548z M1141.022,1174.055c-11.894-9.515-23.787-7.136-33.302,4.758     C1119.614,1185.948,1133.886,1185.948,1141.022,1174.055z"
   id="path940" />
			<path
   fill="#FFFFFF"
   d="M1184.271,1349.181v0.207c-27.394-0.32-35.473-3.373-26.348-43.059v-0.061     c11.063,0.727,28.173-5.276,33.268-5.276C1188.726,1317.79,1183.164,1334.761,1184.271,1349.181z"
   id="path942" />
			<path
   fill="#C30D23"
   d="M1135.754,1415.334c-3.988,1.8-7.984,3.011-12.032,3.296c3.46-12.109,9.809-16.764,13.581-40.438     c16.054,2.525,34.081,4.817,52.738,6.331C1170.423,1388.026,1153.244,1407.42,1135.754,1415.334z"
   id="path944" />
			<path
   d="M1107.72,1178.813c9.515-11.894,21.408-14.272,33.302-4.758C1133.886,1185.948,1119.614,1185.948,1107.72,1178.813z"
   id="path946" />
			<path
   fill="#6A3906"
   d="M1123.722,1117.614l0.614,1.004c-2.5,1.531-5.017,3.088-7.534,4.688     c-5.501,3.485-11.037,7.118-16.538,10.89c-19.523-11.228-22.853-38.673,0.969-61.561     C1118.532,1081.285,1123.722,1099.96,1123.722,1117.614z"
   id="path948" />
		</g>
		<g
   id="g996">
			<path
   fill="none"
   stroke="#000000"
   stroke-width="5"
   stroke-linejoin="round"
   stroke-miterlimit="10"
   d="M1315.905,1375.018     c6.366-1.955,12.517-4.04,18.398-6.263c47.314-17.81,78.013-44.339,75.972-84.734c-0.908-17.974-8.304-38.69-23.597-62.607     c-15.034-23.502-40.266-50.523-70.35-74.916c-7.682-6.229-15.674-12.274-23.899-18.053     c-29.86-20.984-62.721-38.345-94.318-47.159"
   id="path952" />
			<path
   fill="none"
   stroke="#000000"
   stroke-width="5"
   stroke-linejoin="round"
   stroke-miterlimit="10"
   d="M1084.478,1366.835     c15.457,4.748,31.287,7.983,46.164,10.275c2.18,0.363,4.403,0.727,6.661,1.082c16.054,2.525,34.081,4.817,52.738,6.331     c5.06,0.407,10.172,0.762,15.301,1.047c17.179,0.951,34.574,1.133,51.208,0.13c5.337-0.312,10.587-0.762,15.726-1.341     c13.096-1.462,25.456-3.806,36.554-7.249c2.388-0.683,4.74-1.375,7.067-2.093"
   id="path954" />
			<path
   fill="none"
   stroke="#000000"
   stroke-width="5"
   stroke-linejoin="round"
   stroke-miterlimit="10"
   d="M1198.111,1081.285     c-18.58,6.972-45.516,20.051-73.775,37.333c-2.5,1.531-5.017,3.088-7.534,4.688c-5.501,3.485-11.037,7.118-16.538,10.89     c-54.728,37.515-107.016,88.592-106.792,139.635c0.061,13.754,3.944,27.507,12.611,41.001     c17.36,26.624,47.116,42.401,78.385,52.003"
   id="path956" />
			<path
   fill="none"
   stroke="#000000"
   stroke-width="5"
   stroke-linejoin="round"
   stroke-miterlimit="10"
   d="M1292.17,1130.036     c0.087-0.536,0.173-1.064,0.26-1.592c3.702-21.625,14.116-36.502,42.298-47.159c10.38,24.22,4.221,52.911-18.398,65.212"
   id="path958" />
			<path
   fill="none"
   stroke="#000000"
   stroke-width="5"
   stroke-linejoin="round"
   stroke-miterlimit="10"
   d="M1123.722,1117.614     c0-17.654-5.19-36.329-22.489-44.979c-23.822,22.888-20.492,50.333-0.969,61.561"
   id="path960" />
			<path
   fill="none"
   stroke="#000000"
   stroke-width="5"
   stroke-linejoin="round"
   stroke-miterlimit="10"
   d="M993.481,1273.831     c62.539-25.18,129.125-32.852,195.781-29.963c3.183,0.13,6.375,0.294,9.558,0.484c72.14,4.187,144.142,20.354,210.944,39.694"
   id="path962" />
			<path
   fill="none"
   stroke="#000000"
   stroke-width="5"
   stroke-linejoin="round"
   stroke-miterlimit="10"
   d="M1193.172,1246.662     c-0.865-0.865-2.249-1.799-3.91-2.794c-8.321-5.025-23.51-11.824-14.264-20.725c4.342-0.744,8.33-1.289,11.963-1.652     c6.133-0.632,11.271-0.753,15.466-0.468c21.642,1.437,18.19,13.606-3.607,23.329     C1197.056,1245.14,1195.17,1245.909,1193.172,1246.662"
   id="path964" />
			<path
   fill="none"
   stroke="#000000"
   stroke-width="5"
   stroke-linejoin="round"
   stroke-miterlimit="10"
   d="M1193.172,1246.662     c-4.316,20.094-5.441,40.49-8.901,54.33"
   id="path966" />
			<path
   fill="none"
   stroke="#000000"
   stroke-width="5"
   stroke-linejoin="round"
   stroke-miterlimit="10"
   d="M1149.672,1290.612     c-4.264,11.374,0.528,15.154,8.252,15.656c11.063,0.727,28.173-5.276,33.268-5.276c10.562,0,27.506,7.966,38.379,4.429     c5.155-1.661,8.944-5.917,10.06-14.809"
   id="path968" />
			<path
   fill="none"
   stroke="#000000"
   stroke-width="5"
   stroke-linejoin="round"
   stroke-miterlimit="10"
   d="M1157.924,1306.329     c-9.125,39.686-1.046,42.738,26.348,43.059c2.188,0.026,4.489,0.035,6.92,0.043c43.258,0.147,29.729-16.33,38.379-44.01"
   id="path970" />
			<path
   fill="none"
   stroke="#000000"
   stroke-width="5"
   stroke-linejoin="round"
   stroke-miterlimit="10"
   d="M1107.72,1178.813     c9.515-11.894,21.408-14.272,33.302-4.758C1133.886,1185.948,1119.614,1185.948,1107.72,1178.813z"
   id="path972" />
			<path
   fill="none"
   stroke="#000000"
   stroke-width="5"
   stroke-linejoin="round"
   stroke-miterlimit="10"
   d="M1248.28,1177.074     C1311.372,1156.4,1272.05,1217.866,1248.28,1177.074L1248.28,1177.074z"
   id="path974" />
			<path
   fill="none"
   stroke="#000000"
   stroke-width="5"
   stroke-linejoin="round"
   stroke-miterlimit="10"
   d="M1084.478,1366.835     c-0.009,0-0.009,0-0.009,0c-57.081-6.92-86.646-39.409-137.204-65.843c-1.73,8.649-5.19,12.109,1.73,20.76     c-3.46,0-10.38,1.729-13.84,1.729c1.73,3.46,1.73,10.38,3.46,13.84c-5.19,1.73-15.57,5.19-20.76,5.19     c27.68,32.869,76.119,51.034,115.908,71.793c10.38,3.46,55.359,23.355,58.819,30.275c8.65,13.84-12.11,48.438-17.3,60.549     c-13.84,36.329-24.22,72.658-32.87,108.988c-5.19,19.029-3.46,32.869-17.3,43.249c-10.38,8.65-84.103,22.576-34.599,36.329     c-5.19,1.73-13.84,6.92-17.3,8.65c6.92,0,15.57,5.189,22.49,3.46c-3.46,3.46-8.65,13.84-12.11,15.569     c31.139,8.65,83.039-20.76,112.448-29.409c32.869-10.38,51.899-22.489,84.769-15.569c41.52,6.92,83.039,17.299,122.828,27.679     c27.68,8.65,74.389,32.87,102.068,24.22c-1.73-5.189-5.189-15.569-10.38-19.029c3.46,0,10.38-1.73,13.84-1.73     c-1.73-3.46-5.19-8.649-8.649-12.109c5.189,0,10.379-3.46,17.299-3.46c-25.949-22.489-74.389-27.68-76.118-65.739     c-0.831-15.82,0.164-27.956,0.691-39.953c0.121-2.751,0.226-5.493,0.269-8.278c0.104-6.651-0.087-13.511-0.96-21.157     c-0.476-4.161-1.15-8.563-2.085-13.295c-2.456-12.387-10.025-57.444-10.025-71.284c1.73-19.029,25.95-27.679,43.25-38.059     c32.869-19.03,105.528-53.63,122.828-88.229c-10.38,0-20.76,5.19-31.14,10.38c3.46-5.189,5.189-13.839,8.649-19.029     c-3.46,0-10.38,0-17.3,3.46c1.73-5.189,0-13.84,0-19.029c-20.76,8.649-39.789,22.489-60.549,32.869     c-17.966,7.698-41.563,9.489-61.024,14.134c-6.773,1.617-13.044,3.581-18.398,6.263h-0.009"
   id="path976" />
			<path
   fill="none"
   stroke="#000000"
   stroke-width="5"
   stroke-linejoin="round"
   stroke-miterlimit="10"
   d="M1341.699,1556.838     c15.569-22.49,30.344-46.26,42.453-70.479c15.57-25.949,27.178-40.551,54.425-67.729c39.063-38.959,93.419-79.578,150.508-84.769     c45.646-4.567,86.214,14.203,114.188,42.713c19.54,19.921,32.938,44.59,37.626,69.39c8.962,47.323-13.796,95.088-86.074,111.064     c-19.8,4.308-36.606-1.67-49.2-12.62c-38.042-33.061-37.688-111.454,34.703-89.103"
   id="path978" />
			<path
   fill="none"
   stroke="#000000"
   stroke-width="5"
   stroke-linejoin="round"
   stroke-miterlimit="10"
   d="M1605.624,1544.408     c-46.71,22.489-87.468,31.649-137.637,40.299c-32.87,5.19-108.988,8.65-126.288,41.52"
   id="path980" />
			<path
   fill="none"
   stroke="#000000"
   stroke-width="5"
   stroke-linejoin="round"
   stroke-miterlimit="10"
   d="M1137.303,1378.192     c-3.771,23.674-10.121,28.328-13.581,40.438c4.048-0.285,8.044-1.496,12.032-3.296c17.49-7.914,34.668-27.308,54.287-30.811     c2.638-0.476,5.328-0.666,8.07-0.493c2.31,0.19,4.731,0.727,7.231,1.54c19.947,6.505,45.057,30.759,61.968,39.979     c0-12.109-10.76-27.74-10.76-39.85"
   id="path982" />
			<path
   fill="none"
   stroke="#000000"
   stroke-width="5"
   stroke-linejoin="round"
   stroke-miterlimit="10"
   d="M1135.763,1415.326     l-0.009,0.008c-22.481,25.95-29.332,72.495-29.332,107.095c0,44.979,15.569,77.849,65.739,84.769     c53.629,6.92,100.338-25.95,117.638-76.119c10.38-32.869,17.075-125.959-17.524-146.719"
   id="path984" />
			<path
   fill="none"
   stroke="#000000"
   stroke-width="5"
   stroke-linejoin="round"
   stroke-miterlimit="10"
   d="M1116.802,1123.307     c53.629-5.19,59.684,50.532,70.064,97.241"
   id="path986" />
			<path
   fill="none"
   stroke="#000000"
   stroke-width="5"
   stroke-linejoin="round"
   stroke-miterlimit="10"
   d="M1202.436,1220.877     c10.38-53.629,30.915-90.841,89.734-90.841"
   id="path988" />
			<path
   fill="none"
   stroke="#000000"
   stroke-width="5"
   stroke-linejoin="round"
   stroke-miterlimit="10"
   d="M1341.699,1579.509     c0.312-0.51,0.631-1.012,0.96-1.514c19.644-30.248,66.933-49.157,92.458-79.786c24.22-29.41,48.439-55.359,79.579-74.389     c41.52-27.68,136.668-73.187,188.567-47.237"
   id="path990" />
			<path
   fill="none"
   stroke="#000000"
   stroke-width="5"
   stroke-linejoin="round"
   stroke-miterlimit="10"
   d="M1341.699,1586.438     c0.233-0.052,0.458-0.104,0.691-0.164c74.061-17.586,132.707-89.916,194.795-127.854c55.359-32.87,156.995-85.106,203.713-12.456     v0.009"
   id="path992" />
			<path
   fill="none"
   stroke="#000000"
   stroke-width="5"
   stroke-linejoin="round"
   stroke-miterlimit="10"
   d="M1191.191,1300.992     c-2.465,16.798-8.027,33.769-6.92,48.188"
   id="path994" />
		</g>
	</g>
</g>
<g
   id="圖層_1">
	<polygon
   opacity="0.7"
   fill="#EC6865"
   points="1288.478,890.383 648.979,390 795.475,1388.061  "
   id="polygon1000" />
</g>
<g
   id="圖層_6"
   display="none">
	<polygon
   display="inline"
   opacity="0.6"
   fill="#8FC31F"
   points="967.417,1006.646 1292.171,344.646 1616.923,1006.646  "
   id="polygon1003" />
</g>
<g
   id="圖層_7"
   display="none">
	<polygon
   display="inline"
   opacity="0.6"
   fill="#00A0E9"
   points="1288.478,890.383 1932.947,391.336 1789.527,1389.396  "
   id="polygon1006" />
</g>
<g
   id="圖層_4">
	<circle
   opacity="0.5"
   fill="#EC6865"
   cx="1291.152"
   cy="1386.366"
   r="496"
   id="circle1009" />
	<polygon
   points="1976.251,555.148 1787.152,453.915 1900.665,344.541 2004.363,400.054  "
   id="polygon1011" />
	<polygon
   points="1399.416,449.846 1184.924,449.846 1233.377,299.845 1350.998,299.845  "
   id="polygon1013" />
	<polygon
   points="606.052,555.15 795.152,453.917 681.638,344.542 577.94,400.055  "
   id="polygon1015" />
	
		<line
   fill="none"
   stroke="#000000"
   stroke-width="40"
   stroke-miterlimit="10"
   x1="570.468"
   y1="107.385"
   x2="554.494"
   y2="267.383"
   id="line1017" />
	<line
   fill="none"
   stroke="#000000"
   stroke-width="40"
   stroke-miterlimit="10"
   x1="556.161"
   y1="257.63"
   x2="631.769"
   y2="391.23"
   id="line1019" />
	
		<line
   fill="none"
   stroke="#000000"
   stroke-width="40"
   stroke-miterlimit="10"
   x1="2000.393"
   y1="117.385"
   x2="2016.365"
   y2="277.383"
   id="line1021" />
	
		<line
   fill="none"
   stroke="#000000"
   stroke-width="40"
   stroke-miterlimit="10"
   x1="2014.699"
   y1="267.63"
   x2="1944.689"
   y2="391.336"
   id="line1023" />
	
		<line
   fill="none"
   stroke="#000000"
   stroke-width="40"
   stroke-miterlimit="10"
   x1="1283.529"
   y1="112.968"
   x2="1293.424"
   y2="316.649"
   id="line1025" />
</g>
</svg>