<svg height="480pt" viewBox="-72 0 480 480" width="480pt" xmlns="http://www.w3.org/2000/svg"><path d="m168 8c-88.367188 0-160 71.632812-160 160v144c0 88.367188 71.632812 160 160 160s160-71.632812 160-160v-144c0-88.367188-71.632812-160-160-160zm128 184v120c0 70.691406-57.308594 128-128 128s-128-57.308594-128-128v-144c0-70.691406 57.308594-128 128-128s128 57.308594 128 128zm0 0" fill="#ff6243"/><path d="m296 192v120c-.03125 67.546875-52.582031 123.425781-120 127.601562 2.65625.160157 5.296875.398438 8 .398438 70.691406 0 128-57.308594 128-128v-144c0-70.691406-57.308594-128-128-128-2.703125 0-5.34375.238281-8 .398438 67.417969 4.175781 119.96875 60.054687 120 127.601562zm0 0" fill="#cd2a00"/><path d="m24 312v-144c.042969-85.203125 66.898438-155.40625 152-159.601562-2.664062-.125-5.296875-.398438-8-.398438-88.367188 0-160 71.632812-160 160v144c0 88.367188 71.632812 160 160 160 2.703125 0 5.335938-.273438 8-.398438-85.101562-4.195312-151.957031-74.398437-152-159.601562zm0 0" fill="#cd2a00"/><path d="m168 40c-70.691406 0-128 57.308594-128 128v144c0 70.691406 57.308594 128 128 128s128-57.308594 128-128v-144c0-70.691406-57.308594-128-128-128zm96 272c0 53.019531-42.980469 96-96 96s-96-42.980469-96-96v-144c0-53.019531 42.980469-96 96-96s96 42.980469 96 96zm0 0" fill="#ff7956"/><path d="m264 312c-.035156 49.890625-38.28125 91.441406-88 95.601562 2.648438.214844 5.296875.398438 8 .398438 53.019531 0 96-42.980469 96-96v-144c0-53.019531-42.980469-96-96-96-2.703125 0-5.351562.183594-8 .398438 49.71875 4.160156 87.964844 45.710937 88 95.601562zm0 0" fill="#ff5023"/><path d="m56 312v-144c.03125-67.546875 52.582031-123.425781 120-127.601562-2.65625-.160157-5.296875-.398438-8-.398438-70.691406 0-128 57.308594-128 128v144c0 70.691406 57.308594 128 128 128 2.703125 0 5.34375-.238281 8-.398438-67.417969-4.175781-119.96875-60.054687-120-127.601562zm0 0" fill="#ff5023"/><path d="m168 408c53.019531 0 96-42.980469 96-96v-144c0-53.019531-42.980469-96-96-96s-96 42.980469-96 96v144c0 53.019531 42.980469 96 96 96zm0 0" fill="#1db794"/><path d="m96 312v-144c.003906-48.371094 36.007812-89.175781 84-95.199219-27.367188-3.640625-54.96875 4.746094-75.679688 23.003907-20.710937 18.257812-32.5 44.585937-32.320312 72.195312v144c-.179688 27.609375 11.609375 53.9375 32.320312 72.195312 20.710938 18.257813 48.3125 26.644532 75.679688 23.003907-47.992188-6.023438-83.996094-46.828125-84-95.199219zm0 0" fill="#009444"/><path d="m168 0c-92.742188.101562-167.898438 75.257812-168 168v144c0 92.785156 75.214844 168 168 168s168-75.214844 168-168v-144c-.101562-92.742188-75.257812-167.898438-168-168zm0 16c80.75.132812 147.3125 63.363281 151.59375 144h-16c-4.296875-73.402344-66.1875-130.082031-139.683594-127.914062-73.496094 2.164062-131.945312 62.386718-131.910156 135.914062v136h-16v-136c.09375-83.910156 68.089844-151.90625 152-152zm120 168h-16v-16c0-57.4375-46.5625-104-104-104s-104 46.5625-104 104v136h-16v-136c0-66.273438 53.726562-120 120-120s120 53.726562 120 120zm-32 128c0 48.601562-39.398438 88-88 88s-88-39.398438-88-88v-144c0-48.601562 39.398438-88 88-88s88 39.398438 88 88zm-191.59375 8c4.324219 55.667969 51.851562 97.976562 107.644531 95.828125 55.792969-2.152344 99.921875-47.992187 99.949219-103.828125v-112h16v112c.023438 64.695312-51.265625 117.75-115.925781 119.910156-64.660157 2.15625-119.375-47.359375-123.667969-111.910156zm103.59375 144c-80.75-.132812-147.3125-63.363281-151.59375-144h16c4.296875 73.402344 66.1875 130.082031 139.683594 127.914062 73.496094-2.164062 131.945312-62.386718 131.910156-135.914062v-136h16v136c-.09375 83.910156-68.089844 151.90625-152 152zm0 0"/></svg>