<?xml version="1.0" encoding="utf-8"?>
<!-- Generator: Adobe Illustrator 16.0.0, SVG Export Plug-In . SVG Version: 6.00 Build 0)  -->
<!DOCTYPE svg PUBLIC "-//W3C//DTD SVG 1.1//EN" "http://www.w3.org/Graphics/SVG/1.1/DTD/svg11.dtd">
<svg version="1.1" xmlns="http://www.w3.org/2000/svg" xmlns:xlink="http://www.w3.org/1999/xlink" x="0px" y="0px" width="227px"
	 height="237px" viewBox="0 0 227 237" enable-background="new 0 0 227 237" xml:space="preserve">
<g id="圖層_2">
</g>
<g id="圖層_1">
</g>
<g id="圖層_4">
	<g>
		<g id="XMLID_7_">
			<g>
				<path fill="#B9CCE9" d="M151.649,155.083c5.191,19.465-16.869,31.144-29.846,12.977l-0.545-0.104
					c5.405-13.625,0.74-36.665-6.54-46.611C136.078,124.154,149.054,140.81,151.649,155.083z"/>
				<path fill="#FFFFFF" d="M119.332,99.713c5.787,0,10.485,4.84,10.485,10.816c0,5.969-4.698,10.815-10.485,10.815
					c-5.794,0-10.492-4.847-10.492-10.815C108.84,104.553,113.538,99.713,119.332,99.713z"/>
				<path d="M114.718,121.345c7.28,9.947,11.945,32.986,6.54,46.611c-2.238,5.645-6.209,9.674-12.431,10.485
					c-13.074,1.188-17.213-8.467-17.213-20.301v-0.007c0-14.001,5.794-31.046,9.427-36.788
					C105.524,114.24,110.553,115.648,114.718,121.345z"/>
				<path fill="#FFFFFF" d="M107.614,109.692c0,5.969-4.698,10.816-10.492,10.816s-10.485-4.847-10.485-10.816
					c0-5.976,4.691-10.815,10.485-10.815S107.614,103.716,107.614,109.692z"/>
				<path fill="#B9CCE9" d="M57.784,160.274c-9.635-18.933,20.762-38.929,43.257-38.929c-3.633,5.742-9.427,22.787-9.427,36.788
					v0.007C83.821,175.002,67.088,178.539,57.784,160.274z"/>
			</g>
			<g>
				<path fill="none" stroke="#000000" stroke-width="4" stroke-miterlimit="10" d="M91.614,158.14
					c0,11.834,4.14,21.489,17.213,20.301c6.222-0.811,10.193-4.84,12.431-10.485c5.405-13.625,0.74-36.665-6.54-46.611
					c-4.166-5.696-9.194-7.104-13.677,0"/>
				<path fill="none" stroke="#000000" stroke-width="4" stroke-miterlimit="10" d="M101.041,121.345
					c-3.633,5.742-9.427,22.787-9.427,36.788"/>
				<path fill="none" stroke="#000000" stroke-width="4" stroke-miterlimit="10" d="M101.041,121.345
					c-22.495,0-52.892,19.997-43.257,38.929c9.304,18.265,26.037,14.729,33.83-2.134v-0.007"/>
				<path fill="none" stroke="#000000" stroke-width="4" stroke-miterlimit="10" d="M114.718,121.345
					c21.359,2.81,34.335,19.465,36.931,33.739c5.191,19.465-16.869,31.144-29.846,12.977"/>
				<path fill="none" stroke="#000000" stroke-width="4" stroke-miterlimit="10" d="M107.614,109.692
					c0,5.969-4.698,10.816-10.492,10.816s-10.485-4.847-10.485-10.816c0-5.976,4.691-10.815,10.485-10.815
					S107.614,103.716,107.614,109.692z"/>
				<path fill="none" stroke="#000000" stroke-width="4" stroke-miterlimit="10" d="M129.816,110.529
					c0,5.969-4.698,10.815-10.485,10.815c-5.794,0-10.492-4.847-10.492-10.815c0-5.976,4.698-10.816,10.492-10.816
					C125.119,99.713,129.816,104.553,129.816,110.529z"/>
			</g>
		</g>
		<circle stroke="#000000" stroke-width="0.5" stroke-miterlimit="10" cx="99.088" cy="110.238" r="7.904"/>
		<circle stroke="#000000" stroke-width="0.5" stroke-miterlimit="10" cx="117.393" cy="111.178" r="7.904"/>
	</g>
</g>
</svg>
