<?xml version="1.0" encoding="utf-8"?>
<!-- Generator: Adobe Illustrator 16.0.0, SVG Export Plug-In . SVG Version: 6.00 Build 0)  -->
<!DOCTYPE svg PUBLIC "-//W3C//DTD SVG 1.1//EN" "http://www.w3.org/Graphics/SVG/1.1/DTD/svg11.dtd">
<svg version="1.1" xmlns="http://www.w3.org/2000/svg" xmlns:xlink="http://www.w3.org/1999/xlink" x="0px" y="0px" width="227px"
	 height="237px" viewBox="0 0 227 237" enable-background="new 0 0 227 237" xml:space="preserve">
<g id="圖層_2">
</g>
<g id="圖層_1">
	<g>
		<path fill="#8FC31F" d="M159.145,35.636c-15.936,13.659-27.317,33.008-39.838,50.082c25.921-1.875,32.359-6.133,55.772-12.521
			c12.079-3.295,9.106-2.276,15.936,9.106c5.69,9.105,6.829,18.211,7.968,27.317c3.414,40.976-17.073,81.952-58.049,93.334
			C73.778,221.166,21.42,159.701,28.25,97.099C35.079,35.636,109.063,21.977,159.145,35.636"/>
		<g>
			<path d="M157.377,33.868c-16.378,14.295-27.545,33.192-40.229,50.587c-1.091,1.495,0.363,3.898,2.158,3.762
				c11.39-0.865,22.493-2.591,33.47-5.781c5.049-1.467,10.054-3.087,15.093-4.587c3.072-0.915,6.16-1.776,9.254-2.616
				c1.805-0.49,4.245-1.508,6.152-1.122c1.928,0.391,4.695,7.947,5.58,9.454c4.036,6.865,5.943,14.081,7.088,21.899
				c1.79,12.225,0.926,24.79-1.932,36.781c-5.447,22.861-19.887,42.866-41.027,53.497c-21.207,10.665-47.631,10.439-69.072,0.72
				c-40.267-18.254-63.014-69.599-50.578-111.869c11.596-39.417,56.97-52.318,93.622-51.21c10.648,0.322,21.237,1.906,31.524,4.664
				c3.118,0.836,4.439-3.987,1.328-4.821c-34.834-9.339-77.751-6.914-107.264,15.648c-33.621,25.702-33.154,73.829-15.198,108.801
				c9.55,18.6,25.104,34.168,44.041,43.104c20.061,9.465,43.413,10.183,64.376,3.304c44.68-14.661,64.841-68.015,52.693-111.196
				c-1.325-4.712-3.592-8.968-6.058-13.162c-1.587-2.7-2.737-5.8-4.698-8.261c-3.618-4.542-10.479-1.451-14.97-0.214
				c-8.28,2.28-16.419,5.039-24.694,7.334c-9.403,2.609-19.016,3.895-28.73,4.633c0.72,1.254,1.439,2.508,2.158,3.762
				c12.444-17.065,23.381-35.551,39.447-49.576C163.346,35.279,159.794,31.758,157.377,33.868L157.377,33.868z"/>
		</g>
	</g>
</g>
<g id="圖層_4">
</g>
</svg>
