<?xml version="1.0" encoding="utf-8"?>
<!-- Generator: Adobe Illustrator 16.0.0, SVG Export Plug-In . SVG Version: 6.00 Build 0)  -->
<!DOCTYPE svg PUBLIC "-//W3C//DTD SVG 1.1//EN" "http://www.w3.org/Graphics/SVG/1.1/DTD/svg11.dtd">
<svg version="1.1" xmlns="http://www.w3.org/2000/svg" xmlns:xlink="http://www.w3.org/1999/xlink" x="0px" y="0px" width="227px"
	 height="237px" viewBox="0 0 227 237" enable-background="new 0 0 227 237" xml:space="preserve">
<g id="圖層_2">
</g>
<g id="圖層_1">
</g>
<g id="圖層_4">
	<g id="XMLID_4_">
		<g>
			<path fill="#FAEE00" d="M202.251,199.5c-11,3-9.34,0.7-19.34,0.7c2.88,2.48,4.35,7.3,3.85,12.3c-6-2-6.51-3-12.51-3c0,4,0,8,0,12
				c-18-12-36.99-33.48-54.99-45.48c11.37-4,22.2-9.44,30.82-15.85c-10.19,13.13-2.63,32.91,15.02,32.07
				c5.68-0.27,10.38-2.14,13.97-4.97C185.072,191.27,198.751,192.27,202.251,199.5z"/>
			<path fill="#F39800" d="M119.262,176.02c-3.84,1.35-7.75,2.54-11.65,3.54c-32.22,8.31-64.27,4.18-59.96-22.39
				c0-13.91-3.29-44.3,0.66-64.81c1.6-8.36,4.41-15.07,9.13-18.38c12.02-8.81,31.91-4.64,51.17,3.82v0.01
				c4.69,2.06,9.34,4.37,13.83,6.82c12.24,6.66,23.29,14.27,30.65,20.3c1.43,1.17,2.72,2.28,3.85,3.31
				c17.51,16.05,13.99,32.25,0.68,45.48c-3.16,1.8-5.66,4.01-7.54,6.45C141.461,166.58,130.632,172.02,119.262,176.02z"/>
			<path d="M174.521,159.86c6.76,0,12.24,5.48,12.24,12.24c0,6.76-5.48,12.24-12.24,12.24c-6.76,0-12.25-5.48-12.25-12.24
				C162.271,165.34,167.762,159.86,174.521,159.86z"/>
			<path fill="#FFFFFF" d="M168.362,149.83c22.19,4.89,23.59,27.31,10.71,37.44c-3.59,2.83-8.29,4.7-13.97,4.97
				c-17.65,0.84-25.21-18.94-15.02-32.07c2.76-2.06,5.29-4.22,7.54-6.45C160.602,152.01,164.162,150.67,168.362,149.83z
				 M174.521,184.34c6.76,0,12.24-5.48,12.24-12.24c0-6.76-5.48-12.24-12.24-12.24c-6.76,0-12.25,5.48-12.25,12.24
				C162.271,178.86,167.762,184.34,174.521,184.34z"/>
			<path fill="#FFFFFF" d="M186.762,83.69c0-6.76-5.48-12.24-12.24-12.24c-6.76,0-12.25,5.48-12.25,12.24
				c0,6.77,5.49,12.25,12.25,12.25C181.282,95.94,186.762,90.46,186.762,83.69z M182.231,69.09c14.51,16.78,0,45.67-24.47,35.88
				c-0.89-0.52-1.73-1.05-2.53-1.61c-23.75-16.6-3.75-49.64,16.96-41.71C175.582,62.95,178.992,65.35,182.231,69.09z"/>
			<path d="M174.521,71.45c6.76,0,12.24,5.48,12.24,12.24c0,6.77-5.48,12.25-12.24,12.25c-6.76,0-12.25-5.48-12.25-12.25
				C162.271,76.93,167.762,71.45,174.521,71.45z"/>
			<path fill="#FAEE00" d="M47.652,157.17c-4.31,26.57,27.74,30.7,59.96,22.39c-12.65,27.76-43.65,51.02-69.75,37.97
				C13.402,206.11,11.762,147.39,47.652,157.17z"/>
			<path fill="#FAEE00" d="M170.251,37.5c0,2,16.51,1.5,16.51,1.5c0,6-8.51,16.5-14.51,22.5l-0.06,0.15
				c-20.71-7.93-40.71,25.11-16.96,41.71l-2.14,1.57c-7.36-6.03-18.41-13.64-30.65-20.3l0.51-0.94c4-24,15.3-46.19,27.3-68.19
				c0,6,6,12,8,18c4-2,8-4,12-6C170.251,29.5,168.251,35.5,170.251,37.5z"/>
			<path fill="#FAEE00" d="M108.612,77.8c-19.26-8.46-39.15-12.63-51.17-3.82c-4.72,3.31-7.53,10.02-9.13,18.38l-2.29-0.44
				C-27.378,106.61,66.662-30.41,108.612,77.8z"/>
		</g>
		<g>
			<path fill="none" stroke="#000000" stroke-width="4" stroke-miterlimit="10" d="M108.612,77.81c4.69,2.06,9.34,4.37,13.83,6.82
				c12.24,6.66,23.29,14.27,30.65,20.3c1.43,1.17,2.72,2.28,3.85,3.31c17.51,16.05,13.99,32.25,0.68,45.48
				c-2.25,2.23-4.78,4.39-7.54,6.45c-8.62,6.41-19.45,11.85-30.82,15.85c-3.84,1.35-7.75,2.54-11.65,3.54
				c-32.22,8.31-64.27,4.18-59.96-22.39"/>
			<path fill="none" stroke="#000000" stroke-width="4" stroke-miterlimit="10" d="M47.652,157.17c0-13.91-3.29-44.3,0.66-64.81
				c1.6-8.36,4.41-15.07,9.13-18.38c12.02-8.81,31.91-4.64,51.17,3.82"/>
			<path fill="none" stroke="#000000" stroke-width="4" stroke-miterlimit="10" d="M157.762,104.97c-0.89-0.52-1.73-1.05-2.53-1.61
				c-23.75-16.6-3.75-49.64,16.96-41.71c3.39,1.3,6.8,3.7,10.04,7.44C196.742,85.87,182.231,114.76,157.762,104.97"/>
			<path fill="none" stroke="#000000" stroke-width="4" stroke-miterlimit="10" d="M168.362,149.83
				c22.19,4.89,23.59,27.31,10.71,37.44c-3.59,2.83-8.29,4.7-13.97,4.97c-17.65,0.84-25.21-18.94-15.02-32.07
				c1.88-2.44,4.38-4.65,7.54-6.45C160.602,152.01,164.162,150.67,168.362,149.83"/>
			<path fill="none" stroke="#000000" stroke-width="4" stroke-miterlimit="10" d="M108.612,77.81V77.8
				c-41.95-108.21-135.99,28.81-62.59,14.12"/>
			<path fill="none" stroke="#000000" stroke-width="4" stroke-miterlimit="10" d="M107.612,179.56
				c-12.65,27.76-43.65,51.02-69.75,37.97c-24.46-11.42-26.1-70.14,9.79-60.36"/>
			<path fill="none" stroke="#000000" stroke-width="4" stroke-miterlimit="10" d="M186.762,83.69c0,6.77-5.48,12.25-12.24,12.25
				c-6.76,0-12.25-5.48-12.25-12.25c0-6.76,5.49-12.24,12.25-12.24C181.282,71.45,186.762,76.93,186.762,83.69z"/>
			<path fill="none" stroke="#000000" stroke-width="4" stroke-miterlimit="10" d="M186.762,172.1c0,6.76-5.48,12.24-12.24,12.24
				c-6.76,0-12.25-5.48-12.25-12.24c0-6.76,5.49-12.24,12.25-12.24C181.282,159.86,186.762,165.34,186.762,172.1z"/>
			<path fill="none" stroke="#000000" stroke-width="4" stroke-miterlimit="10" d="M122.952,83.69c4-24,15.3-46.19,27.3-68.19
				c0,6,6,12,8,18c4-2,8-4,12-6c0,2-2,8,0,10c0,2,16.51,1.5,16.51,1.5c0,6-8.51,16.5-14.51,22.5"/>
			<path fill="none" stroke="#000000" stroke-width="4" stroke-miterlimit="10" d="M119.251,176.01c0,0,0.01,0,0.01,0.01
				c18,12,36.99,33.48,54.99,45.48c0-4,0-8,0-12c6,0,6.51,1,12.51,3c0.5-5-0.97-9.82-3.85-12.3c10,0,8.34,2.3,19.34-0.7
				c-3.5-7.23-17.18-8.23-23.18-12.23"/>
		</g>
	</g>
</g>
</svg>
